<?xml version="1.0" standalone="no"?>
<!DOCTYPE svg PUBLIC "-//W3C//DTD SVG 1.1//EN" "http://www.w3.org/Graphics/SVG/1.1/DTD/svg11.dtd" >
<svg>
<metadata>
Created by FontForge 20090914 at Sun May 22 16:27:43 2016
 By www-data
Copyright (c) 1999 by Bigelow &#38; Holmes Inc.
</metadata>
<defs>
<font id="LucidaSans-Typewriter" horiz-adv-x="1234" >
  <font-face 
    font-family="Lucida Sans Typewriter"
    font-weight="400"
    font-stretch="normal"
    units-per-em="2048"
    panose-1="2 11 6 2 4 5 2 2 3 4"
    ascent="1638"
    descent="-410"
    x-height="1086"
    cap-height="1480"
    bbox="-1026 -1514 1776 2401"
    underline-thickness="100"
    underline-position="-150"
    unicode-range="U+0020-U+FEFC"
  />
<missing-glyph 
d="M256 0v1280h722v-1280h-722zM320 64h594v1152h-594v-1152z" />
    <glyph glyph-name="shaddadammatanisoarabic" unicode="&#xfc5e;" arabic-form="isolated" 
d="M988 1740v-169c0 -116.667 -17.667 -204.167 -53 -262.5s-88.333 -87.5 -159 -87.5c-37.333 0 -69.833 11 -97.5 33s-50.167 55 -67.5 99c-19.333 -68.667 -46.5 -120.167 -81.5 -154.5s-77.5 -51.5 -127.5 -51.5c-56.667 0 -96.667 20.167 -120 60.5
s-35 109.833 -35 208.5v225h111v-240c0 -60 4.66699 -99.833 14 -119.5s28 -29.5 56 -29.5c35.333 0 66.5 25.667 93.5 77s40.5 111 40.5 179v182h111v-192c0 -57.333 9.16699 -100.333 27.5 -129s45.833 -43 82.5 -43c36 0 60.667 15 74 45s20 85.667 20 167v202h111z
M1063 1938l-0.00195312 -94.998l-45 1c-62 0 -121 4.33301 -177 13c-44 -43.333 -96 -75.833 -156 -97.5s-127.667 -32.5 -203 -32.5h-248v111c82 50 123 97.667 123 143c0 28.667 -8.66699 50.167 -26 64.5s-43.333 21.5 -78 21.5c-29.333 0 -71.666 -10.333 -126.999 -31
v92c52.667 20.667 103.667 31 153 31c68.667 0 120.334 -12.833 155.001 -38.5s52 -63.834 52 -114.501c0 -68.667 -35.333 -128.667 -106 -180h73c81.333 0 140 4 176 12s73.333 25 112 51c-76.667 32.667 -126.334 59.667 -149.001 81s-34 50.666 -34 87.999
c0 60.667 23.333 115.334 70 164c46.667 48.667 99.334 73 158.001 73c56 0 98.167 -15.5 126.5 -46.5s42.5 -77.5 42.5 -139.5c0 -48.667 -18.333 -103.667 -55 -165c78 -4 132.333 -6 163 -6zM804.998 1974c31.333 42.667 47 84 47 124c0 30.667 -7.33301 53.667 -22 69
s-36.667 23 -66 23c-26.667 0 -50 -10.833 -70 -32.5s-36.667 -53.834 -50 -96.5c42 -32.667 95.667 -61.667 161 -87z" />
    <glyph glyph-name="shaddakasratanisoarabic" unicode="&#xfc5f;" arabic-form="isolated" 
d="M988 2220v-169c0 -116.667 -17.667 -204.167 -53 -262.5s-88.333 -87.5 -159 -87.5c-37.333 0 -69.833 11 -97.5 33s-50.167 55 -67.5 99c-19.333 -68.667 -46.5 -120.167 -81.5 -154.5s-77.5 -51.5 -127.5 -51.5c-56.667 0 -96.667 20.167 -120 60.5
s-35 109.833 -35 208.5v225h111v-240c0 -60 4.66699 -99.833 14 -119.5s28 -29.5 56 -29.5c35.333 0 66.5 25.667 93.5 77s40.5 111 40.5 179v182h111v-192c0 -57.333 9.16699 -100.333 27.5 -129s45.833 -43 82.5 -43c36 0 60.667 15 74 45s20 85.667 20 167v202h111z
M968 1559l-703 -188v105l703 188v-105zM968 1335l-703 -188v105l703 188v-105z" />
    <glyph glyph-name="shaddafathaisoarabic" unicode="&#xfc60;" arabic-form="isolated" 
d="M988 1740v-169c0 -116.667 -17.667 -204.167 -53 -262.5s-88.333 -87.5 -159 -87.5c-37.333 0 -69.833 11 -97.5 33s-50.167 55 -67.5 99c-19.333 -68.667 -46.5 -120.167 -81.5 -154.5s-77.5 -51.5 -127.5 -51.5c-56.667 0 -96.667 20.167 -120 60.5
s-35 109.833 -35 208.5v225h111v-240c0 -60 4.66699 -99.833 14 -119.5s28 -29.5 56 -29.5c35.333 0 66.5 25.667 93.5 77s40.5 111 40.5 179v182h111v-192c0 -57.333 9.16699 -100.333 27.5 -129s45.833 -43 82.5 -43c36 0 60.667 15 74 45s20 85.667 20 167v202h111z
M968 1895l-703 -188v105l703 188v-105z" />
    <glyph glyph-name="shaddadammaisoarabic" unicode="&#xfc61;" arabic-form="isolated" 
d="M988 1740v-169c0 -116.667 -17.667 -204.167 -53 -262.5s-88.333 -87.5 -159 -87.5c-37.333 0 -69.833 11 -97.5 33s-50.167 55 -67.5 99c-19.333 -68.667 -46.5 -120.167 -81.5 -154.5s-77.5 -51.5 -127.5 -51.5c-56.667 0 -96.667 20.167 -120 60.5
s-35 109.833 -35 208.5v225h111v-240c0 -60 4.66699 -99.833 14 -119.5s28 -29.5 56 -29.5c35.333 0 66.5 25.667 93.5 77s40.5 111 40.5 179v182h111v-192c0 -57.333 9.16699 -100.333 27.5 -129s45.833 -43 82.5 -43c36 0 60.667 15 74 45s20 85.667 20 167v202h111z
M987 1938v-95c-88 0 -172 4.66699 -252 14c-52.667 -51.333 -104 -85.833 -154 -103.5s-122.667 -26.5 -218 -26.5h-116v99h100c66.667 0 123.5 5.33301 170.5 16s84.167 27 111.5 49c-59.333 16 -103.833 39.833 -133.5 71.5s-44.5 71.5 -44.5 119.5
c0 61.333 24.667 116.5 74 165.5s105.333 73.5 168 73.5c45.333 0 82.5 -17.667 111.5 -53s43.5 -81 43.5 -137c0 -62.667 -19.333 -124.667 -58 -186l81 -4zM692 1968c32.667 46.667 49.001 92 49.001 136c0 34.667 -7.33301 60.834 -22 78.5
c-14.667 17.667 -36.334 26.5 -65.001 26.5c-28 0 -51.833 -10.5 -71.5 -31.5s-35.167 -52.5 -46.5 -94.5c13.333 -30 33 -54.5 59 -73.5s58.333 -32.833 97 -41.5z" />
    <glyph glyph-name="shaddakasraisoarabic" unicode="&#xfc62;" arabic-form="isolated" 
d="M988 1996v-169c0 -116.667 -17.667 -204.167 -53 -262.5s-88.333 -87.5 -159 -87.5c-37.333 0 -69.833 11 -97.5 33s-50.167 55 -67.5 99c-19.333 -68.667 -46.5 -120.167 -81.5 -154.5s-77.5 -51.5 -127.5 -51.5c-56.667 0 -96.667 20.167 -120 60.5
s-35 109.833 -35 208.5v225h111v-240c0 -60 4.66699 -99.833 14 -119.5s28 -29.5 56 -29.5c35.333 0 66.5 25.667 93.5 77s40.5 111 40.5 179v182h111v-192c0 -57.333 9.16699 -100.333 27.5 -129s45.833 -43 82.5 -43c36 0 60.667 15 74 45s20 85.667 20 167v202h111z
M968 1335l-703 -188v105l703 188v-105z" />
    <glyph glyph-name="fathatanisoarabic" unicode="&#xfe70;" arabic-form="isolated" 
d="M968 1335l-703 -188v105l703 188v-105zM968 1574l-703 -188v105l703 188v-105z" />
    <glyph glyph-name="tatweelfathatanabvarabic" unicode="&#xfe71;" arabic-form="medial" 
d="M968 1076l-703 -188v105l703 188v-105zM968 1315l-703 -188v105l703 188v-105zM-24 197h1283v-197h-1283v197z" />
    <glyph glyph-name="dammatanisoarabic" unicode="&#xfe72;" arabic-form="isolated" 
d="M1086 1358l-0.00195312 -94.999l-45 1c-62 0 -121 4.33301 -177 13c-44 -43.333 -96 -75.833 -156 -97.5s-127.667 -32.5 -203 -32.5h-248v111c82 50 123 97.667 123 143c0 28.667 -8.66699 50.167 -26 64.5s-43.333 21.5 -78 21.5
c-29.333 0 -71.666 -10.333 -126.999 -31v92c52.667 20.667 103.667 31 153 31c68.667 0 120.334 -12.833 155.001 -38.5s52 -63.834 52 -114.501c0 -68.667 -35.333 -128.667 -106 -180h73c81.333 0 140 4 176 12s73.333 25 112 51
c-76.667 32.667 -126.334 59.667 -149.001 81s-34 50.666 -34 87.999c0 60.667 23.333 115.334 70 164.001s99.334 73 158.001 73c56 0 98.167 -15.5 126.5 -46.5s42.5 -77.5 42.5 -139.5c0 -48.667 -18.333 -103.667 -55 -165c78 -4 132.333 -6 163 -6zM827.998 1394
c31.333 42.667 47 84.001 47 124.001c0 30.667 -7.33301 53.667 -22 69s-36.667 23 -66 23c-26.667 0 -50 -10.833 -70 -32.5s-36.667 -53.834 -50 -96.501c42 -32.667 95.667 -61.667 161 -87z" />
    <glyph glyph-name="kasratanisoarabic" unicode="&#xfe74;" arabic-form="isolated" 
d="M968 -602l-703 -188v105l703 188v-105zM968 -363l-703 -188v105l703 188v-105z" />
    <glyph glyph-name="fathaisoarabic" unicode="&#xfe76;" arabic-form="isolated" 
d="M968 1335l-703 -188v105l703 188v-105z" />
    <glyph glyph-name="fathamedialarabic" unicode="&#xfe77;" arabic-form="medial" 
d="M968 1076l-703 -188v105l703 188v-105zM-24 197h1283v-197h-1283v197z" />
    <glyph glyph-name="dammaisoarabic" unicode="&#xfe78;" arabic-form="isolated" 
d="M987 1358v-95c-88 0 -172 4.66699 -252 14c-52.667 -51.333 -104 -85.833 -154 -103.5s-122.667 -26.5 -218 -26.5h-116v99h100c66.667 0 123.5 5.33301 170.5 16s84.167 27 111.5 49c-59.333 16 -103.833 39.833 -133.5 71.5s-44.5 71.5 -44.5 119.5
c0 61.333 24.667 116.5 74 165.5s105.333 73.5 168 73.5c45.333 0 82.5 -17.667 111.5 -53s43.5 -81 43.5 -137c0 -62.667 -19.333 -124.667 -58 -186l81 -4zM692 1388c32.667 46.667 49.001 91.999 49.001 135.999c0 34.667 -7.33301 60.834 -22 78.501
s-36.334 26.5 -65.001 26.5c-28 0 -51.833 -10.5 -71.5 -31.5s-35.167 -52.5 -46.5 -94.5c13.333 -30 33 -54.5 59 -73.5s58.333 -32.833 97 -41.5z" />
    <glyph glyph-name="dammamedialarabic" unicode="&#xfe79;" arabic-form="medial" 
d="M987 1099v-95c-88 0 -172 4.66699 -252 14c-52.667 -51.333 -104 -85.833 -154 -103.5s-122.667 -26.5 -218 -26.5h-116v99h100c66.667 0 123.5 5.33301 170.5 16s84.167 27 111.5 49c-59.333 16 -103.833 39.833 -133.5 71.5s-44.5 71.5 -44.5 119.5
c0 61.333 24.667 116.5 74 165.5s105.333 73.5 168 73.5c45.333 0 82.5 -17.667 111.5 -53s43.5 -81 43.5 -137c0 -62.667 -19.333 -124.667 -58 -186l81 -4zM692 1129c32.667 46.667 49.001 91.999 49.001 135.999c0 34.667 -7.33301 60.834 -22 78.501
s-36.334 26.5 -65.001 26.5c-28 0 -51.833 -10.5 -71.5 -31.5s-35.167 -52.5 -46.5 -94.5c13.333 -30 33 -54.5 59 -73.5s58.333 -32.833 97 -41.5zM-23.999 196.999h1283v-197h-1283v197z" />
    <glyph glyph-name="kasraisoarabic" unicode="&#xfe7a;" arabic-form="isolated" 
d="M968 -602l-703 -188v105l703 188v-105z" />
    <glyph glyph-name="kasramedialarabic" unicode="&#xfe7b;" arabic-form="medial" 
d="M968 -302l-703 -188v105l703 188v-105zM-24 197h1283v-197h-1283v197z" />
    <glyph glyph-name="shaddaisoarabic" unicode="&#xfe7c;" arabic-form="isolated" 
d="M988 1740v-169c0 -116.667 -17.667 -204.167 -53 -262.5s-88.333 -87.5 -159 -87.5c-37.333 0 -69.833 11 -97.5 33s-50.167 55 -67.5 99c-19.333 -68.667 -46.5 -120.167 -81.5 -154.5s-77.5 -51.5 -127.5 -51.5c-56.667 0 -96.667 20.167 -120 60.5
s-35 109.833 -35 208.5v225h111v-240c0 -60 4.66699 -99.833 14 -119.5s28 -29.5 56 -29.5c35.333 0 66.5 25.667 93.5 77s40.5 111 40.5 179v182h111v-192c0 -57.333 9.16699 -100.333 27.5 -129s45.833 -43 82.5 -43c36 0 60.667 15 74 45s20 85.667 20 167v202h111z" />
    <glyph glyph-name="shaddamedialarabic" unicode="&#xfe7d;" arabic-form="medial" 
d="M988 1481v-169c0 -116.667 -17.667 -204.167 -53 -262.5s-88.333 -87.5 -159 -87.5c-37.333 0 -69.833 11 -97.5 33s-50.167 55 -67.5 99c-19.333 -68.667 -46.5 -120.167 -81.5 -154.5s-77.5 -51.5 -127.5 -51.5c-56.667 0 -96.667 20.167 -120 60.5
s-35 109.833 -35 208.5v225h111v-240c0 -60 4.66699 -99.833 14 -119.5s28 -29.5 56 -29.5c35.333 0 66.5 25.667 93.5 77s40.5 111 40.5 179v182h111v-192c0 -57.333 9.16699 -100.333 27.5 -129s45.833 -43 82.5 -43c36 0 60.667 15 74 45s20 85.667 20 167v202h111z
M-24 197h1283v-197h-1283v197z" />
    <glyph glyph-name="sukunisoarabic" unicode="&#xfe7e;" arabic-form="isolated" 
d="M630 1740c76.667 -47.333 138.166 -101.167 184.499 -161.5s69.5 -116.833 69.5 -169.5c0 -69.333 -30.333 -130.333 -91 -183s-131.667 -79 -213 -79c-69.333 0 -125.166 19.167 -167.499 57.5s-63.5 88.5 -63.5 150.5s23.333 125.167 70 189.5s117 129.5 211 195.5z
M612.999 1611c-48.667 -44 -85.167 -84.833 -109.5 -122.5s-36.5 -72.5 -36.5 -104.5c0 -38 10.833 -66.5 32.5 -85.5s54.5 -28.5 98.5 -28.5c30 0 60.167 6 90.5 18s60.5 30.333 90.5 55c-4 52 -19.833 100.333 -47.5 145s-67.167 85.667 -118.5 123z" />
    <glyph glyph-name="sukunmedialarabic" unicode="&#xfe7f;" arabic-form="medial" 
d="M630 1481c76.667 -47.333 138.166 -101.167 184.499 -161.5s69.5 -116.833 69.5 -169.5c0 -69.333 -30.333 -130.333 -91 -183s-131.667 -79 -213 -79c-69.333 0 -125.166 19.167 -167.499 57.5s-63.5 88.5 -63.5 150.5s23.333 125.167 70 189.5s117 129.5 211 195.5z
M612.999 1352c-48.667 -44 -85.167 -84.833 -109.5 -122.5s-36.5 -72.5 -36.5 -104.5c0 -38 10.833 -66.5 32.5 -85.5s54.5 -28.5 98.5 -28.5c30 0 60.167 6 90.5 18s60.5 30.333 90.5 55c-4 52 -19.833 100.333 -47.5 145s-67.167 85.667 -118.5 123zM-24.001 196.999h1283
v-197h-1283v197z" />
    <glyph glyph-name="hamzaisoarabic" unicode="&#x621;" arabic-form="isolated" 
d="M956 350l-0.00292969 -171l-666 -179v185l297 79c-89.333 31.333 -156.166 68.833 -200.499 112.5s-66.5 93.5 -66.5 149.5c0 100.667 61.833 186.167 185.5 256.5s273.834 105.5 450.501 105.5v-184h-46c-87.333 0 -166.666 -13 -237.999 -39s-135 -65 -191 -117
c51.333 -66 113.333 -115.5 186 -148.5s155.667 -49.5 249 -49.5h40z" />
    <glyph glyph-name="alefmaddaabvisoarabic" unicode="&#x622;" arabic-form="isolated" 
d="M531 0v1678h173v-1678h-173zM309 1798l0.000976562 89c66 92.667 122 139 168 139c21.333 0 51.666 -6.33301 90.999 -19l48 -15l42 -13c53.333 -16.667 90.333 -25 111 -25c30.667 0 82.667 29 156 87v-88c-66 -93.333 -122 -140 -168 -140
c-20 0 -50.333 6.33301 -91 19l-48 16l-42 13l-39 10c-33.333 9.33301 -57.333 14 -72 14c-30 0 -82 -29 -156 -87z" />
    <glyph glyph-name="alefmaddaabovfinalarabic" unicode="&#x622;" arabic-form="final" 
d="M1258 197l0.000976562 -197h-114l-281 4c-162.667 0 -268.334 40 -317.001 120c-30.667 50.667 -46 182.667 -46 396v1158h172v-1120l1 -128c0 -100.667 13.667 -164.5 41 -191.5s92.333 -40.5 195 -40.5l265 -1h84zM278.001 1798l0.000976562 89
c66 92.667 122 139 168 139c21.333 0 51.666 -6.33301 90.999 -19l48 -15l42 -13c53.333 -16.667 90.333 -25 111 -25c30.667 0 82.667 29 156 87v-88c-66 -93.333 -122 -140 -168 -140c-20 0 -50.333 6.33301 -91 19l-48 16l-42 13l-39 10
c-33.333 9.33301 -57.333 14 -72 14c-30 0 -82 -29 -156 -87z" />
    <glyph glyph-name="alefhamzaabvisoarabic" unicode="&#x623;" arabic-form="isolated" 
d="M531 0v1678h173v-1678h-173zM355 1690v103.998l312 89c-75.333 30.667 -131.833 63.334 -169.5 98.001s-56.5 71.667 -56.5 111.001c0 65.333 40.167 122.5 120.5 171.5s184.5 79.833 312.5 92.5v-123c-61.333 -4.66699 -119.333 -17.334 -174 -38.001
s-105.667 -49 -153 -85c43.333 -41.333 90.5 -76.666 141.5 -105.999s105.833 -52.333 164.5 -69v-104z" />
    <glyph glyph-name="alefhamzaabovfinalarabic" unicode="&#x623;" arabic-form="final" 
d="M1258 197l0.000976562 -197h-114l-281 4c-162.667 0 -268.334 40 -317.001 120c-30.667 50.667 -46 182.667 -46 396v1158h172v-1120l1 -128c0 -100.667 13.667 -164.5 41 -191.5s92.333 -40.5 195 -40.5l265 -1h84zM325.001 1690v103.998l312 89
c-75.333 30.667 -131.833 63.334 -169.5 98.001s-56.5 71.667 -56.5 111.001c0 65.333 40.167 122.5 120.5 171.5s184.5 79.833 312.5 92.5v-123c-61.333 -4.66699 -119.333 -17.334 -174 -38.001s-105.667 -49 -153 -85c43.333 -41.333 90.5 -76.666 141.5 -105.999
s105.833 -52.333 164.5 -69v-104z" />
    <glyph glyph-name="wawhamzaabvisoarabic" unicode="&#x624;" arabic-form="isolated" 
d="M62 -790l106 78c257.333 186.667 436.5 326.167 537.5 418.5s185.833 193.5 254.5 303.5c-42.667 -6.66699 -91.667 -10 -147 -10c-135.333 0 -236.833 19 -304.5 57s-101.5 95 -101.5 171c0 130.667 43.333 248.667 130 354s184 158 292 158
c106 0 185.667 -41.333 239 -124s80 -206.334 80 -371.001c0 -178 -51.333 -338.167 -154 -480.5s-300 -327.166 -592 -554.499h-340zM980 191c0 120 -14.499 210.167 -43.499 270.5s-72.167 90.5 -129.5 90.5c-59.333 0 -108.5 -26.167 -147.5 -78.5
s-67.5 -130.833 -85.5 -235.5c85.333 -35.333 177.666 -53 276.999 -53c28 0 71 2 129 6zM514.001 888v103.999l312 89c-75.333 30.667 -131.833 63.334 -169.5 98.001s-56.5 71.667 -56.5 111c0 65.333 40.167 122.5 120.5 171.5s184.5 79.833 312.5 92.5v-123
c-61.333 -4.66699 -119.333 -17.334 -174 -38.001s-105.667 -49 -153 -85c43.333 -41.333 90.5 -76.666 141.5 -105.999s105.833 -52.333 164.5 -69v-104z" />
    <glyph glyph-name="wawhamzaabovfinalarabic" unicode="&#x624;" arabic-form="final" 
d="M933 191c0 120 -14.167 210.167 -42.5 270.5s-70.5 90.5 -126.5 90.5c-58 0 -105.667 -25.5 -143 -76.5s-64 -127.5 -80 -229.5c84 -40.667 181.333 -61 292 -61c20.667 0 54 2 100 6zM361 -790h-340.999l107 78c257.333 186.667 436.5 326.167 537.5 418.5
s185.833 193.5 254.5 303.5c-42.667 -6.66699 -91.667 -10 -147 -10c-136 0 -237.833 19 -305.5 57s-101.5 95 -101.5 171c0 130.667 43.5 248.667 130.5 354s184.5 158 292.5 158c106 0 185.667 -41 239 -123s80 -204.667 80 -368l-2 -52h154v-197h-182
c-57.333 -138 -133.333 -259.167 -228 -363.5s-257.334 -246.5 -488.001 -426.5zM473.001 888v103.999l312 89c-75.333 30.667 -131.833 63.334 -169.5 98.001s-56.5 71.667 -56.5 111c0 65.333 40.167 122.5 120.5 171.5s184.5 79.833 312.5 92.5v-123
c-61.333 -4.66699 -119.333 -17.334 -174 -38.001s-105.667 -49 -153 -85c43.333 -41.333 90.5 -76.666 141.5 -105.999s105.833 -52.333 164.5 -69v-104z" />
    <glyph glyph-name="alefhamzablwisoarabic" unicode="&#x625;" arabic-form="isolated" 
d="M531 0v1678h173v-1678h-173zM332 -790v103.999l312 89c-75.333 30.667 -131.833 63.334 -169.5 98.001s-56.5 71.667 -56.5 111c0 65.333 40.167 122.5 120.5 171.5s184.5 79.833 312.5 92.5v-123c-61.333 -4.66699 -119.333 -17.334 -174 -38.001s-105.667 -49 -153 -85
c43.333 -41.333 90.5 -76.666 141.5 -105.999s105.833 -52.333 164.5 -69v-104z" />
    <glyph glyph-name="alefhamzabelofinalarabic" unicode="&#x625;" arabic-form="final" 
d="M1258 197l0.000976562 -197h-114l-281 4c-162.667 0 -268.334 40 -317.001 120c-30.667 50.667 -46 182.667 -46 396v1158h172v-1120l1 -128c0 -100.667 13.667 -164.5 41 -191.5s92.333 -40.5 195 -40.5l265 -1h84zM350.001 -790v103.999l312 89
c-75.333 30.667 -131.833 63.334 -169.5 98.001s-56.5 71.667 -56.5 111c0 65.333 40.167 122.5 120.5 171.5s184.5 79.833 312.5 92.5v-123c-61.333 -4.66699 -119.333 -17.334 -174 -38.001s-105.667 -49 -153 -85c43.333 -41.333 90.5 -76.666 141.5 -105.999
s105.833 -52.333 164.5 -69v-104z" />
    <glyph glyph-name="yehhamzaabvisoarabic" unicode="&#x626;" arabic-form="isolated" 
d="M104 691l122.999 0.000976562c-39.333 -202 -59 -355.333 -59 -460c0 -142 34.167 -253 102.5 -333s162.833 -120 283.5 -120c118 0 221.167 41.667 309.5 125s151.166 198 188.499 344h-92c-155.333 0 -264.166 19.167 -326.499 57.5s-93.5 105.5 -93.5 201.5
c0 160 60.167 304.833 180.5 434.5s254.833 194.5 403.5 194.5c23.333 0 54 -2.66699 92 -8v-184c-44 6.66699 -80 10 -108 10c-100 0 -186.167 -37.667 -258.5 -113s-108.5 -165.333 -108.5 -270c0 -45.333 9.66699 -76.333 29 -93s57.333 -26.667 114 -30l50 -3h45
c96 0 160.333 -8 193 -24s49 -48 49 -96c0 -146.667 -55.333 -297.667 -166 -453c-137.333 -194 -316 -291 -536 -291c-149.333 0 -271.166 50.167 -365.499 150.5s-141.5 230.166 -141.5 389.499c0 136.667 30.667 327 92 571zM11.999 962.001v103.999l312 89
c-75.333 30.667 -131.833 63.334 -169.5 98.001s-56.5 71.667 -56.5 111c0 65.333 40.167 122.5 120.5 171.5s184.5 79.833 312.5 92.5v-123c-61.333 -4.66699 -119.333 -17.334 -174 -38.001s-105.667 -49 -153 -85c43.333 -41.333 90.5 -76.666 141.5 -105.999
s105.833 -52.333 164.5 -69v-104z" />
    <glyph glyph-name="yehhamzaabovefinalarabic" unicode="&#x626;" arabic-form="final" 
d="M126 -62l123.004 0.00292969c-37.333 -178 -56 -331.667 -56 -461c0 -142.667 34.333 -251.834 103 -327.501s168.334 -113.5 299.001 -113.5c121.333 0 221.666 33.167 300.999 99.5s130 159.166 152 278.499h-94c-150.667 0 -256.834 18 -318.501 54
s-92.5 98 -92.5 186c0 140.667 52.667 268.5 158 383.5s222 172.5 350 172.5c20 0 41.667 -1.33301 65 -4l66 -7c13.333 -1.33301 23.666 -2 30.999 -2h45v-197h-36c-28.667 0 -50.667 1 -66 3l-85 10c-27.333 4 -51.333 6 -72 6c-68 0 -127.5 -31.167 -178.5 -93.5
s-76.5 -134.833 -76.5 -217.5c0 -34 10.167 -57.333 30.5 -70s60.833 -20.334 121.5 -23.001l65 -4h43c78.667 0 133.5 -9.33301 164.5 -28s46.5 -51.667 46.5 -99c0 -110.667 -43 -230 -129 -358c-64.667 -95.333 -139.834 -166.833 -225.501 -214.5
s-181.834 -71.5 -288.501 -71.5c-158.667 0 -287.5 48.333 -386.5 145s-148.5 222.667 -148.5 378c0 145.333 29.667 337 89 575zM35.0039 210.003v103.999l312 89c-75.333 30.667 -131.833 63.334 -169.5 98.001s-56.5 71.667 -56.5 111c0 65.333 40.167 122.5 120.5 171.5
s184.5 79.833 312.5 92.5v-123c-61.333 -4.66699 -119.333 -17.334 -174 -38.001s-105.667 -49 -153 -85c43.333 -41.333 90.5 -76.666 141.5 -105.999s105.833 -52.333 164.5 -69v-104z" />
    <glyph glyph-name="yehhamzaabovinitlarabic" unicode="&#x626;" arabic-form="initial" 
d="M822 302c41.333 80.667 62 180.334 62 299.001c0 92 -14.667 187.667 -44 287h190c20.667 -91.333 31 -183.666 31 -276.999c0 -214 -68.667 -368.667 -206 -464c-84.667 -58.667 -182.667 -97.834 -294 -117.501s-290 -29.5 -536 -29.5h-50v197h57
c222 0 386.5 7.16699 493.5 21.5s205.833 42.166 296.5 83.499zM601 1073v103.999l312 89c-75.333 30.667 -131.833 63.334 -169.5 98.001s-56.5 71.667 -56.5 111c0 65.333 40.167 122.5 120.5 171.5s184.5 79.833 312.5 92.5v-123
c-61.333 -4.66699 -119.333 -17.334 -174 -38.001s-105.667 -49 -153 -85c43.333 -41.333 90.5 -76.666 141.5 -105.999s105.833 -52.333 164.5 -69v-104z" />
    <glyph glyph-name="yehhamzaabovmedialarabic" unicode="&#x626;" arabic-form="medial" 
d="M530 716l173 0.00195312v-234c0 -77.333 4.16699 -129.333 12.5 -156s27.833 -50.334 58.5 -71.001c56.667 -38.667 171.667 -58 345 -58h139v-197h-155c-180 0 -303 10.667 -369 32s-126 70 -180 146c-67.333 -59.333 -143.5 -103.833 -228.5 -133.5
s-178.833 -44.5 -281.5 -44.5h-69v197h71c117.333 0 210.5 9.66699 279.5 29s132.5 53.333 190.5 102c3.33301 23.333 5 37.666 5 42.999l4 70c3.33301 53.333 5 83 5 89v186zM334 962.002v103.999l312 89c-75.333 30.667 -131.833 63.334 -169.5 98.001
s-56.5 71.667 -56.5 111c0 65.333 40.167 122.5 120.5 171.5s184.5 79.833 312.5 92.5v-123c-61.333 -4.66699 -119.333 -17.334 -174 -38.001s-105.667 -49 -153 -85c43.333 -41.333 90.5 -76.666 141.5 -105.999s105.833 -52.333 164.5 -69v-104z" />
    <glyph glyph-name="alefisoarabic" unicode="&#x627;" arabic-form="isolated" 
d="M531 0v1678h173v-1678h-173z" />
    <glyph glyph-name="aleffinalarabic" unicode="&#x627;" arabic-form="final" 
d="M1258 197l0.000976562 -197h-114l-281 4c-162.667 0 -268.334 40 -317.001 120c-30.667 50.667 -46 182.667 -46 396v1158h172v-1120l1 -128c0 -100.667 13.667 -164.5 41 -191.5s92.333 -40.5 195 -40.5l265 -1h84z" />
    <glyph glyph-name="behisoarabic" unicode="&#x628;" arabic-form="isolated" 
d="M69 666l123.001 -0.00390625c-2.66699 -40.667 -4 -74 -4 -100c0 -152 23.667 -255.667 71 -311s136.333 -83 267 -83c155.333 0 307.666 34.333 456.999 103c18 87.333 27 164 27 230c0 112.667 -11.333 222.334 -34 329.001l-12 54h190
c20.667 -131.333 31 -237.666 31 -318.999c0 -207.333 -55.5 -358.166 -166.5 -452.499s-287.833 -141.5 -530.5 -141.5c-156 0 -268.167 36.167 -336.5 108.5s-102.5 190.833 -102.5 355.5c0 62.667 6.66699 138.334 20 227.001zM572.001 -198.004l139 -139l-139 -140
l-140 140z" />
    <glyph glyph-name="behfinalarabic" unicode="&#x628;" arabic-form="final" 
d="M68 666l124 1c-4 -42 -6 -84.667 -6 -128c0 -138 15.667 -233.5 47 -286.5s88 -79.5 170 -79.5c114.667 0 210.5 38.667 287.5 116s153.167 211.333 228.5 402h173v-169l1 -118c0 -84.667 9.16699 -140.334 27.5 -167.001s56.833 -40 115.5 -40h22v-197h-25
c-130 0 -214.833 24.667 -254.5 74s-59.5 155 -59.5 317v36c-56.667 -150.667 -128.667 -263.667 -216 -339s-190 -113 -308 -113c-115.333 0 -201.833 38.333 -259.5 115s-86.5 192 -86.5 346c0 64.667 6.33301 141.334 19 230.001zM413 -198l139 -139l-139 -140l-140 140z
" />
    <glyph glyph-name="behinitialarabic" unicode="&#x628;" arabic-form="initial" 
d="M822 302c41.333 80.667 62 180.334 62 299.001c0 92 -14.667 187.667 -44 287h190c20.667 -91.333 31 -183.666 31 -276.999c0 -214 -68.667 -368.667 -206 -464c-84.667 -58.667 -182.667 -97.834 -294 -117.501s-290 -29.5 -536 -29.5h-50v197h57
c222 0 386.5 7.16699 493.5 21.5s205.833 42.166 296.5 83.499zM370 -198l139 -139l-139 -140l-140 140z" />
    <glyph glyph-name="behmedialarabic" unicode="&#x628;" arabic-form="medial" 
d="M530 716l173 0.00195312v-234c0 -77.333 4.16699 -129.333 12.5 -156s27.833 -50.334 58.5 -71.001c56.667 -38.667 171.667 -58 345 -58h139v-197h-155c-180 0 -303 10.667 -369 32s-126 70 -180 146c-67.333 -59.333 -143.5 -103.833 -228.5 -133.5
s-178.833 -44.5 -281.5 -44.5h-69v197h71c117.333 0 210.5 9.66699 279.5 29s132.5 53.333 190.5 102c3.33301 23.333 5 37.666 5 42.999l4 70c3.33301 53.333 5 83 5 89v186zM617 -197.998l139 -139l-139 -140l-140 140z" />
    <glyph glyph-name="tehmarbutaisoarabic" unicode="&#x629;" arabic-form="isolated" 
d="M625 913c153.333 -83.333 268.5 -166.5 345.5 -249.5s115.5 -165.833 115.5 -248.5c0 -126 -55 -230.833 -165 -314.5s-248 -125.5 -414 -125.5c-112.667 0 -200.667 27 -264 81s-95 129 -95 225c0 120 41 234.333 123 343s200 205 354 289zM585 691
c-75.333 -46 -135.164 -102.332 -179.497 -168.999s-66.5 -133.334 -66.5 -200.001c0 -50 19.833 -87.5 59.5 -112.5s99.5 -37.5 179.5 -37.5c61.333 0 118.166 9 170.499 27s100.166 45.333 143.499 82c5.33301 30 8 53.333 8 70c0 60 -26.333 118.333 -79 175
s-131.334 111.667 -236.001 165zM425.002 1389l139 -139l-139 -140l-140 140zM827.002 1389l139 -139l-139 -140l-140 140z" />
    <glyph glyph-name="tehmarbutafinalarabic" unicode="&#x629;" arabic-form="final" 
d="M780 1135l173 -0.000976562v-627l3 -101c0 -81.333 16.333 -136.666 49 -165.999s94.334 -44 185.001 -44h69v-197h-81c-152.667 0 -257.167 26.167 -313.5 78.5s-84.5 149.833 -84.5 292.5v35c-42 -68.667 -97 -120 -165 -154s-148.667 -51 -242 -51
c-84.667 0 -151.5 17.667 -200.5 53s-73.5 83.333 -73.5 144c0 92.667 56.667 184 170 274s283.666 179 510.999 267v196zM780 775.999c-115.333 -46.667 -215.5 -97.333 -300.5 -152s-154.5 -113 -208.5 -175c40.667 -42 98.667 -63 174 -63c68.667 0 130 13.833 184 41.5
s101 69.167 141 124.5c2.66699 19.333 4 31.333 4 36l3 57l3 66v65zM666 1611l139 -139l-139 -140l-140 140zM1068 1611l139 -139l-139 -140l-140 140z" />
    <glyph glyph-name="tehisoarabic" unicode="&#x62a;" arabic-form="isolated" 
d="M69 666l123.001 -0.00390625c-2.66699 -40.667 -4 -74 -4 -100c0 -152 23.667 -255.667 71 -311s136.333 -83 267 -83c155.333 0 307.666 34.333 456.999 103c18 87.333 27 164 27 230c0 112.667 -11.333 222.334 -34 329.001l-12 54h190
c20.667 -131.333 31 -237.666 31 -318.999c0 -207.333 -55.5 -358.166 -166.5 -452.499s-287.833 -141.5 -530.5 -141.5c-156 0 -268.167 36.167 -336.5 108.5s-102.5 190.833 -102.5 355.5c0 62.667 6.66699 138.334 20 227.001zM371.001 1019l139 -139l-139 -140l-140 140
zM773.001 1019l139 -139l-139 -140l-140 140z" />
    <glyph glyph-name="tehfinalarabic" unicode="&#x62a;" arabic-form="final" 
d="M68 666l124 1c-4 -42 -6 -84.667 -6 -128c0 -138 15.667 -233.5 47 -286.5s88 -79.5 170 -79.5c114.667 0 210.5 38.667 287.5 116s153.167 211.333 228.5 402h173v-169l1 -118c0 -84.667 9.16699 -140.334 27.5 -167.001s56.833 -40 115.5 -40h22v-197h-25
c-130 0 -214.833 24.667 -254.5 74s-59.5 155 -59.5 317v36c-56.667 -150.667 -128.667 -263.667 -216 -339s-190 -113 -308 -113c-115.333 0 -201.833 38.333 -259.5 115s-86.5 192 -86.5 346c0 64.667 6.33301 141.334 19 230.001zM369 1118l139 -139l-139 -140l-140 140z
M771 1118l139 -139l-139 -140l-140 140z" />
    <glyph glyph-name="tehinitialarabic" unicode="&#x62a;" arabic-form="initial" 
d="M822 302c41.333 80.667 62 180.334 62 299.001c0 92 -14.667 187.667 -44 287h190c20.667 -91.333 31 -183.666 31 -276.999c0 -214 -68.667 -368.667 -206 -464c-84.667 -58.667 -182.667 -97.834 -294 -117.501s-290 -29.5 -536 -29.5h-50v197h57
c222 0 386.5 7.16699 493.5 21.5s205.833 42.166 296.5 83.499zM630 1365l139 -139l-139 -140l-140 140zM1032 1365l139 -139l-139 -140l-140 140z" />
    <glyph glyph-name="tehmedialarabic" unicode="&#x62a;" arabic-form="medial" 
d="M530 716l173 0.00195312v-234c0 -77.333 4.16699 -129.333 12.5 -156s27.833 -50.334 58.5 -71.001c56.667 -38.667 171.667 -58 345 -58h139v-197h-155c-180 0 -303 10.667 -369 32s-126 70 -180 146c-67.333 -59.333 -143.5 -103.833 -228.5 -133.5
s-178.833 -44.5 -281.5 -44.5h-69v197h71c117.333 0 210.5 9.66699 279.5 29s132.5 53.333 190.5 102c3.33301 23.333 5 37.666 5 42.999l4 70c3.33301 53.333 5 83 5 89v186zM416 1192l139 -139l-139 -140l-140 140zM818 1192l139 -139l-139 -140l-140 140z" />
    <glyph glyph-name="theisoharabic" unicode="&#x62b;" arabic-form="isolated" 
d="M69 666l123.001 -0.00390625c-2.66699 -40.667 -4 -74 -4 -100c0 -152 23.667 -255.667 71 -311s136.333 -83 267 -83c155.333 0 307.666 34.333 456.999 103c18 87.333 27 164 27 230c0 112.667 -11.333 222.334 -34 329.001l-12 54h190
c20.667 -131.333 31 -237.666 31 -318.999c0 -207.333 -55.5 -358.166 -166.5 -452.499s-287.833 -141.5 -530.5 -141.5c-156 0 -268.167 36.167 -336.5 108.5s-102.5 190.833 -102.5 355.5c0 62.667 6.66699 138.334 20 227.001zM371.001 1019l139 -140l-139 -139l-140 139
zM773.001 1019l140 -140l-140 -139l-139 139zM572.001 1290l139 -139l-139 -140l-140 140z" />
    <glyph glyph-name="thehfinalarabic" unicode="&#x62b;" arabic-form="final" 
d="M68 666l124 1c-4 -42 -6 -84.667 -6 -128c0 -138 15.667 -233.5 47 -286.5s88 -79.5 170 -79.5c114.667 0 210.5 38.667 287.5 116s153.167 211.333 228.5 402h173v-169l1 -118c0 -84.667 9.16699 -140.334 27.5 -167.001s56.833 -40 115.5 -40h22v-197h-25
c-130 0 -214.833 24.667 -254.5 74s-59.5 155 -59.5 317v36c-56.667 -150.667 -128.667 -263.667 -216 -339s-190 -113 -308 -113c-115.333 0 -201.833 38.333 -259.5 115s-86.5 192 -86.5 346c0 64.667 6.33301 141.334 19 230.001zM372 1019l139 -140l-139 -139l-140 139z
M774 1019l140 -140l-140 -139l-139 139zM573 1290l139 -139l-139 -140l-140 140z" />
    <glyph glyph-name="thehinitialarabic" unicode="&#x62b;" arabic-form="initial" 
d="M822 302c41.333 80.667 62 180.334 62 299.001c0 92 -14.667 187.667 -44 287h190c20.667 -91.333 31 -183.666 31 -276.999c0 -214 -68.667 -368.667 -206 -464c-84.667 -58.667 -182.667 -97.834 -294 -117.501s-290 -29.5 -536 -29.5h-50v197h57
c222 0 386.5 7.16699 493.5 21.5s205.833 42.166 296.5 83.499zM630 1365l139 -140l-139 -139l-140 139zM1032 1365l140 -140l-140 -139l-139 139zM831 1636l139 -139l-139 -140l-140 140z" />
    <glyph glyph-name="thehmedialarabic" unicode="&#x62b;" arabic-form="medial" 
d="M530 716l173 0.00195312v-234c0 -77.333 4.16699 -129.333 12.5 -156s27.833 -50.334 58.5 -71.001c56.667 -38.667 171.667 -58 345 -58h139v-197h-155c-180 0 -303 10.667 -369 32s-126 70 -180 146c-67.333 -59.333 -143.5 -103.833 -228.5 -133.5
s-178.833 -44.5 -281.5 -44.5h-69v197h71c117.333 0 210.5 9.66699 279.5 29s132.5 53.333 190.5 102c3.33301 23.333 5 37.666 5 42.999l4 70c3.33301 53.333 5 83 5 89v186zM416 1192l139 -140l-139 -139l-140 139zM818 1192l140 -140l-140 -139l-139 139zM617 1463
l139 -139l-139 -140l-140 140z" />
    <glyph glyph-name="jeemisoarabic" unicode="&#x62c;" arabic-form="isolated" 
d="M1147 -541l-0.00195312 -127c-162.667 -81.333 -297.334 -122 -404.001 -122c-125.333 0 -247.666 36 -366.999 108c-193.333 116 -290 295.667 -290 539c0 176 45.333 323.667 136 443s227 210.666 409 273.999c-158 20.667 -270.333 31 -337 31
c-65.333 0 -138.666 -9.66699 -219.999 -29v191c78 15.333 158 23 240 23c66.667 0 153 -5.66699 259 -17c208.667 -22 359.667 -33 453 -33h139v-197h-129c-232.667 0 -417 -59.333 -553 -178s-204 -279.667 -204 -483c0 -139.333 46.333 -253.166 139 -341.499
s212 -132.5 358 -132.5c114.667 0 238.334 17 371.001 51zM716.998 139l139 -139l-139 -140l-140 140z" />
    <glyph glyph-name="jeemfinalarabic" unicode="&#x62c;" arabic-form="final" 
d="M1148 -541l-0.00292969 -127c-162.667 -81.333 -297.667 -122 -405 -122c-183.333 0 -338.666 61 -465.999 183s-191 271 -191 447c0 205.333 64.667 380.333 194 525c74.667 84 191.667 153.667 351 209c-157.333 20.667 -269.666 31 -336.999 31
c-65.333 0 -138.666 -9.66699 -219.999 -29v191c78 15.333 158 23 240 23c66.667 0 153 -5.66699 259 -17c208.667 -22 359.667 -33 453 -33h139v-197h-153v-114c0 -102.667 11 -167 33 -193s76.667 -39 164 -39h50v-197h-54c-133.333 0 -223.5 27.167 -270.5 81.5
s-70.5 157.833 -70.5 310.5v151c-182.667 -35.333 -325.667 -111.5 -429 -228.5s-155 -260.833 -155 -431.5c0 -140 46.167 -254.167 138.5 -342.5s211.5 -132.5 357.5 -132.5c115.333 0 239.333 17 372 51zM644.997 139l139 -139l-139 -140l-140 140z" />
    <glyph glyph-name="jeeminitialarabic" unicode="&#x62c;" arabic-form="initial" 
d="M-25 0l0.000976562 197.001h197c92.667 0 170.5 10.667 233.5 32s175.5 74.333 337.5 159c19.333 10.667 48.666 26 87.999 46l-97 33l-217 71c-135.333 44.667 -247.333 67 -336 67c-40 0 -82 -4.66699 -126 -14v199c43.333 8 84 12 122 12
c113.333 0 261 -34.333 443 -103l111 -43l60 -21l127 -44c98 -32 191 -48 279 -48v-198h-51c-146 0 -302.667 -48.667 -470 -146l-52 -31c-108 -62.667 -199 -106.334 -273 -131.001s-151.667 -37 -233 -37h-143zM679.001 -48.999l139 -139l-139 -140l-140 140z" />
    <glyph glyph-name="jeemmedialarabic" unicode="&#x62c;" arabic-form="medial" 
d="M-25 0l-0.000976562 196.999h300c74 0 148.333 9.5 223 28.5s150 47.5 226 85.5c-173.333 136.667 -302.666 228 -387.999 274s-167.666 69 -246.999 69l-30 -1v197l50 1c100 0 215.667 -36.167 347 -108.5s278.666 -180.5 441.999 -324.5l188 -168
c6.66699 -5.33301 27.334 -23 62.001 -53h111v-197h-70c-63.333 0 -116.666 13.333 -159.999 40s-111.333 87.334 -204 182.001c-100.667 -74 -203.334 -129.5 -308.001 -166.5s-211.334 -55.5 -320.001 -55.5h-222zM627.999 -49.001l139 -139l-139 -140l-140 140z" />
    <glyph glyph-name="hahisoarabic" unicode="&#x62d;" arabic-form="isolated" 
d="M1147 -541l-0.00195312 -127c-162.667 -81.333 -297.334 -122 -404.001 -122c-125.333 0 -247.666 36 -366.999 108c-193.333 116 -290 295.667 -290 539c0 176 45.333 323.667 136 443s227 210.666 409 273.999c-158 20.667 -270.333 31 -337 31
c-65.333 0 -138.666 -9.66699 -219.999 -29v191c78 15.333 158 23 240 23c66.667 0 153 -5.66699 259 -17c208.667 -22 359.667 -33 453 -33h139v-197h-129c-232.667 0 -417 -59.333 -553 -178s-204 -279.667 -204 -483c0 -139.333 46.333 -253.166 139 -341.499
s212 -132.5 358 -132.5c114.667 0 238.334 17 371.001 51z" />
    <glyph glyph-name="hahfinalarabic" unicode="&#x62d;" arabic-form="final" 
d="M1148 -541l-0.00292969 -127c-162.667 -81.333 -297.667 -122 -405 -122c-183.333 0 -338.666 61 -465.999 183s-191 271 -191 447c0 205.333 64.667 380.333 194 525c74.667 84 191.667 153.667 351 209c-157.333 20.667 -269.666 31 -336.999 31
c-65.333 0 -138.666 -9.66699 -219.999 -29v191c78 15.333 158 23 240 23c66.667 0 153 -5.66699 259 -17c208.667 -22 359.667 -33 453 -33h139v-197h-153v-114c0 -102.667 11 -167 33 -193s76.667 -39 164 -39h50v-197h-54c-133.333 0 -223.5 27.167 -270.5 81.5
s-70.5 157.833 -70.5 310.5v151c-182.667 -35.333 -325.667 -111.5 -429 -228.5s-155 -260.833 -155 -431.5c0 -140 46.167 -254.167 138.5 -342.5s211.5 -132.5 357.5 -132.5c115.333 0 239.333 17 372 51z" />
    <glyph glyph-name="hahinitialarabic" unicode="&#x62d;" arabic-form="initial" 
d="M-25 0l0.000976562 197.001h197c92.667 0 170.5 10.667 233.5 32s175.5 74.333 337.5 159c19.333 10.667 48.666 26 87.999 46l-97 33l-217 71c-135.333 44.667 -247.333 67 -336 67c-40 0 -82 -4.66699 -126 -14v199c43.333 8 84 12 122 12
c113.333 0 261 -34.333 443 -103l111 -43l60 -21l127 -44c98 -32 191 -48 279 -48v-198h-51c-146 0 -302.667 -48.667 -470 -146l-52 -31c-108 -62.667 -199 -106.334 -273 -131.001s-151.667 -37 -233 -37h-143z" />
    <glyph glyph-name="hahmedialarabic" unicode="&#x62d;" arabic-form="medial" 
d="M-25 0l-0.000976562 196.999h300c74 0 148.333 9.5 223 28.5s150 47.5 226 85.5c-173.333 136.667 -302.666 228 -387.999 274s-167.666 69 -246.999 69l-30 -1v197l50 1c100 0 215.667 -36.167 347 -108.5s278.666 -180.5 441.999 -324.5l188 -168
c6.66699 -5.33301 27.334 -23 62.001 -53h111v-197h-70c-63.333 0 -116.666 13.333 -159.999 40s-111.333 87.334 -204 182.001c-100.667 -74 -203.334 -129.5 -308.001 -166.5s-211.334 -55.5 -320.001 -55.5h-222z" />
    <glyph glyph-name="khahisoarabic" unicode="&#x62e;" arabic-form="isolated" 
d="M1147 -541l-0.00195312 -127c-162.667 -81.333 -297.334 -122 -404.001 -122c-125.333 0 -247.666 36 -366.999 108c-193.333 116 -290 295.667 -290 539c0 176 45.333 323.667 136 443s227 210.666 409 273.999c-158 20.667 -270.333 31 -337 31
c-65.333 0 -138.666 -9.66699 -219.999 -29v191c78 15.333 158 23 240 23c66.667 0 153 -5.66699 259 -17c208.667 -22 359.667 -33 453 -33h139v-197h-129c-232.667 0 -417 -59.333 -553 -178s-204 -279.667 -204 -483c0 -139.333 46.333 -253.166 139 -341.499
s212 -132.5 358 -132.5c114.667 0 238.334 17 371.001 51zM653.998 1241l139 -139l-139 -140l-140 140z" />
    <glyph glyph-name="khahfinalarabic" unicode="&#x62e;" arabic-form="final" 
d="M1148 -541l-0.00292969 -127c-162.667 -81.333 -297.667 -122 -405 -122c-183.333 0 -338.666 61 -465.999 183s-191 271 -191 447c0 205.333 64.667 380.333 194 525c74.667 84 191.667 153.667 351 209c-157.333 20.667 -269.666 31 -336.999 31
c-65.333 0 -138.666 -9.66699 -219.999 -29v191c78 15.333 158 23 240 23c66.667 0 153 -5.66699 259 -17c208.667 -22 359.667 -33 453 -33h139v-197h-153v-114c0 -102.667 11 -167 33 -193s76.667 -39 164 -39h50v-197h-54c-133.333 0 -223.5 27.167 -270.5 81.5
s-70.5 157.833 -70.5 310.5v151c-182.667 -35.333 -325.667 -111.5 -429 -228.5s-155 -260.833 -155 -431.5c0 -140 46.167 -254.167 138.5 -342.5s211.5 -132.5 357.5 -132.5c115.333 0 239.333 17 372 51zM628.997 1241l139 -139l-139 -140l-140 140z" />
    <glyph glyph-name="khahinitialarabic" unicode="&#x62e;" arabic-form="initial" 
d="M-25 0l0.000976562 197.001h197c92.667 0 170.5 10.667 233.5 32s175.5 74.333 337.5 159c19.333 10.667 48.666 26 87.999 46l-97 33l-217 71c-135.333 44.667 -247.333 67 -336 67c-40 0 -82 -4.66699 -126 -14v199c43.333 8 84 12 122 12
c113.333 0 261 -34.333 443 -103l111 -43l60 -21l127 -44c98 -32 191 -48 279 -48v-198h-51c-146 0 -302.667 -48.667 -470 -146l-52 -31c-108 -62.667 -199 -106.334 -273 -131.001s-151.667 -37 -233 -37h-143zM607.001 1241l139 -139l-139 -140l-140 140z" />
    <glyph glyph-name="khahmedialarabic" unicode="&#x62e;" arabic-form="medial" 
d="M-25 0l-0.000976562 196.999h300c74 0 148.333 9.5 223 28.5s150 47.5 226 85.5c-173.333 136.667 -302.666 228 -387.999 274s-167.666 69 -246.999 69l-30 -1v197l50 1c100 0 215.667 -36.167 347 -108.5s278.666 -180.5 441.999 -324.5l188 -168
c6.66699 -5.33301 27.334 -23 62.001 -53h111v-197h-70c-63.333 0 -116.666 13.333 -159.999 40s-111.333 87.334 -204 182.001c-100.667 -74 -203.334 -129.5 -308.001 -166.5s-211.334 -55.5 -320.001 -55.5h-222zM626.999 1192l139 -139l-139 -140l-140 140z" />
    <glyph glyph-name="dalisoarabic" unicode="&#x62f;" arabic-form="isolated" 
d="M921 249c-14 191.333 -58.5 347.168 -133.5 467.501s-180.167 205.166 -315.5 254.499c65.333 93.333 122.333 140 171 140c92.667 0 188 -79 286 -237c104.667 -168 157 -347 157 -537c0 -124.667 -46.667 -214 -140 -268c-110 -62.667 -271.333 -94 -484 -94
c-121.333 0 -248.333 13.333 -381 40v221c120.667 -42 252.667 -63 396 -63c124.667 0 272.667 25.333 444 76z" />
    <glyph glyph-name="dalfinalarabic" unicode="&#x62f;" arabic-form="final" 
d="M66 15v221c122 -42 241.667 -63 359 -63c170 0 305.333 25.333 406 76l-1 79c0 88 -7.66699 171.667 -23 251l-101 507h173l100 -507c28 -140 60.5 -238.667 97.5 -296s86.833 -86 149.5 -86h32v-197h-44c-78 -0 -137 9.33301 -177 28s-78.667 54.667 -116 108
c-67.333 -62.667 -135.5 -105.167 -204.5 -127.5s-166.167 -33.5 -291.5 -33.5c-105.333 0 -225 13.333 -359 40z" />
    <glyph glyph-name="thalisoarabic" unicode="&#x630;" arabic-form="isolated" 
d="M921 249c-14 191.333 -58.5 347.168 -133.5 467.501s-180.167 205.166 -315.5 254.499c65.333 93.333 122.333 140 171 140c92.667 0 188 -79 286 -237c104.667 -168 157 -347 157 -537c0 -124.667 -46.667 -214 -140 -268c-110 -62.667 -271.333 -94 -484 -94
c-121.333 0 -248.333 13.333 -381 40v221c120.667 -42 252.667 -63 396 -63c124.667 0 272.667 25.333 444 76zM636 1587l139 -139l-139 -140l-140 140z" />
    <glyph glyph-name="thalfinalarabic" unicode="&#x630;" arabic-form="final" 
d="M66 15v221c122 -42 241.667 -63 359 -63c170 0 305.333 25.333 406 76l-1 79c0 88 -7.66699 171.667 -23 251l-101 507h173l100 -507c28 -140 60.5 -238.667 97.5 -296s86.833 -86 149.5 -86h32v-197h-44c-78 -0 -137 9.33301 -177 28s-78.667 54.667 -116 108
c-67.333 -62.667 -135.5 -105.167 -204.5 -127.5s-166.167 -33.5 -291.5 -33.5c-105.333 0 -225 13.333 -359 40zM707 1562l139 -139l-139 -140l-140 140z" />
    <glyph glyph-name="rehisoarabic" unicode="&#x631;" arabic-form="isolated" 
d="M562 716l255.999 -0.00390625c102 -117.333 178.5 -223 229.5 -317s76.5 -176.667 76.5 -248c0 -107.333 -53.667 -228.5 -161 -363.5s-302.333 -327.5 -585 -577.5h-341l105 82c210.667 164.667 385.334 314.334 524.001 449.001s241.667 254.334 309 359.001
c-32 88.667 -82.5 184.334 -151.5 287.001s-156.167 212.334 -261.5 329.001z" />
    <glyph glyph-name="rehfinalarabic" unicode="&#x631;" arabic-form="final" 
d="M588 568l227.999 -0.000976562c58.667 -91.333 100.334 -162 125.001 -212l17 -34c35.333 -71.333 87.666 -110 156.999 -116l64 -6c22 -2 37.333 -3 46 -3h33v-197h-34c-86.667 0 -169 29.667 -247 89c-42 -150.667 -109.667 -291.5 -203 -422.5
s-234 -283.167 -422 -456.5h-340l105 82c213.333 164 372.5 305.667 477.5 425s185.833 249.666 242.5 390.999c-20 58.667 -50.667 126.334 -92 203.001s-93.666 162.334 -156.999 257.001z" />
    <glyph glyph-name="zainisoarabic" unicode="&#x632;" arabic-form="isolated" 
d="M562 716l255.999 -0.00390625c102 -117.333 178.5 -223 229.5 -317s76.5 -176.667 76.5 -248c0 -107.333 -53.667 -228.5 -161 -363.5s-302.333 -327.5 -585 -577.5h-341l105 82c210.667 164.667 385.334 314.334 524.001 449.001s241.667 254.334 309 359.001
c-32 88.667 -82.5 184.334 -151.5 287.001s-156.167 212.334 -261.5 329.001zM541.999 1192l139 -139l-139 -140l-140 140z" />
    <glyph glyph-name="zainfinalarabic" unicode="&#x632;" arabic-form="final" 
d="M588 568l227.999 -0.000976562c58.667 -91.333 100.334 -162 125.001 -212l17 -34c35.333 -71.333 87.666 -110 156.999 -116l64 -6c22 -2 37.333 -3 46 -3h33v-197h-34c-86.667 0 -169 29.667 -247 89c-42 -150.667 -109.667 -291.5 -203 -422.5
s-234 -283.167 -422 -456.5h-340l105 82c213.333 164 372.5 305.667 477.5 425s185.833 249.666 242.5 390.999c-20 58.667 -50.667 126.334 -92 203.001s-93.666 162.334 -156.999 257.001zM567.999 1044l139 -139l-139 -140l-140 140z" />
    <glyph glyph-name="seenisoarabic" unicode="&#x633;" arabic-form="isolated" 
d="M649 53c3.33301 -54.667 4.99902 -94.001 4.99902 -118.001c0 -210 -27 -362.833 -81 -458.5s-140.667 -143.5 -260 -143.5c-100.667 0 -176 43.5 -226 130.5s-75 217.5 -75 391.5c0 160.667 18.333 307.667 55 441h121c-26.667 -128 -40 -255.333 -40 -382
c0 -137.333 13.667 -235.5 41 -294.5s73 -88.5 137 -88.5c38.667 0 74.5 13.167 107.5 39.5s63.167 65.5 90.5 117.5c3.33301 71.333 5 123.333 5 156c0 280 -45.333 539.667 -136 779h161c37.333 -98.667 65.333 -203.667 84 -315l13 -80c22 -29.333 44 -44 66 -44
c44.667 0 71.334 38.667 80.001 116v416h123v-398c0 -88.667 27 -133 81 -133c35.333 0 64 22 86 66c4 60.667 6 106.667 6 138c0 193.333 -26 380.333 -78 561h148c38.667 -137.333 58 -275 58 -413c0 -183.333 -19.5 -320.666 -58.5 -411.999s-97.167 -137 -174.5 -137
c-60.667 0 -106.667 41 -138 123c-26 -82 -62 -123 -108 -123c-35.333 0 -66.333 21.667 -93 65z" />
    <glyph glyph-name="seenfinalarabic" unicode="&#x633;" arabic-form="final" 
d="M813 111c-32 -82 -67.3311 -123.001 -105.998 -123.001c-32 0 -59.667 18.667 -83 56c3.33301 -52.667 5 -90 5 -112c0 -206 -26 -357.167 -78 -453.5s-133.667 -144.5 -245 -144.5c-98 0 -171.5 43.5 -220.5 130.5s-73.5 217.167 -73.5 390.5
c0 160.667 18.333 307.667 55 441h121c-26.667 -128 -40 -255.333 -40 -382c0 -127.333 14.167 -223 42.5 -287s71.166 -96 128.499 -96c32.667 0 64 13.167 94 39.5s59 65.5 87 117.5c3.33301 70.667 5 122.334 5 155.001c0 280.667 -45.333 540.667 -136 780h160
c37.333 -98 65.333 -203 84 -315l13 -80c21.333 -29.333 41.666 -44 60.999 -44c39.333 0 63.666 38.667 72.999 116v416h123v-410c0 -80.667 24.667 -121 74 -121c52 0 80 43.667 84 131v523h124v-521l4 -60c2.66699 -40.667 18.667 -61 48 -61h41v-197h-59
c-71.333 0 -115.666 37 -132.999 111c-28.667 -82 -70.667 -123 -126 -123c-52 0 -94.333 41 -127 123z" />
    <glyph glyph-name="seeninitialarabic" unicode="&#x633;" arabic-form="initial" 
d="M598 294c8 64.667 11.998 108.332 11.998 130.999v291h160v-338c0 -128.667 42.333 -193 127 -193c56.667 0 101.334 38 134.001 114c8 58 12 108.667 12 152c0 164.667 -26.667 331 -80 499h179c36.667 -141.333 55 -284.666 55 -429.999
c0 -178 -29.167 -311.333 -87.5 -400s-145.833 -133 -262.5 -133c-89.333 0 -159 41.333 -209 124c-72 -82 -150 -123 -234 -123c-82 0 -153.333 39.333 -214 118c-27.333 -43.333 -53.166 -71.833 -77.499 -85.5s-61.5 -20.5 -111.5 -20.5h-26v197h28
c56 0 108.333 32.333 157 97l6 57c4 32 6 56.667 6 74v291h160v-338c0 -128.667 39.333 -193 118 -193c52 0 101.333 36.333 148 109z" />
    <glyph glyph-name="seenmedialarabic" unicode="&#x633;" arabic-form="medial" 
d="M560 111c-40.667 -82.667 -102.999 -123.999 -186.999 -123.999c-76.667 0 -144 39.667 -202 119c-41.333 -70.667 -99 -106 -173 -106h-23v197h25c53.333 0 100.666 32.333 141.999 97l6 57c3.33301 32 5 56.667 5 74v291h161v-338c0 -128.667 32 -193 96 -193
c50.667 0 90 29 118 87l5 83c2 31.333 3 54.666 3 69.999v291h160v-338c0 -128.667 32.333 -193 97 -193c50 0 89 29 117 87l6 83c1.33301 31.333 2 54.666 2 69.999v414h161v-461c0 -71.333 9.33301 -119.333 28 -144s55.667 -37 111 -37h40v-197h-57
c-82.667 0 -141.167 7.33301 -175.5 22s-61.833 44.334 -82.5 89.001c-41.333 -82 -103.333 -123 -186 -123c-87.333 0 -153 41 -197 123z" />
    <glyph glyph-name="sheenisoarabic" unicode="&#x634;" arabic-form="isolated" 
d="M649 53c3.33301 -54.667 4.99902 -94.001 4.99902 -118.001c0 -210 -27 -362.833 -81 -458.5s-140.667 -143.5 -260 -143.5c-100.667 0 -176 43.5 -226 130.5s-75 217.5 -75 391.5c0 160.667 18.333 307.667 55 441h121c-26.667 -128 -40 -255.333 -40 -382
c0 -137.333 13.667 -235.5 41 -294.5s73 -88.5 137 -88.5c38.667 0 74.5 13.167 107.5 39.5s63.167 65.5 90.5 117.5c3.33301 71.333 5 123.333 5 156c0 280 -45.333 539.667 -136 779h161c37.333 -98.667 65.333 -203.667 84 -315l13 -80c22 -29.333 44 -44 66 -44
c44.667 0 71.334 38.667 80.001 116v416h123v-398c0 -88.667 27 -133 81 -133c35.333 0 64 22 86 66c4 60.667 6 106.667 6 138c0 193.333 -26 380.333 -78 561h148c38.667 -137.333 58 -275 58 -413c0 -183.333 -19.5 -320.666 -58.5 -411.999s-97.167 -137 -174.5 -137
c-60.667 0 -106.667 41 -138 123c-26 -82 -62 -123 -108 -123c-35.333 0 -66.333 21.667 -93 65zM457.999 1192l139 -140l-139 -139l-140 139zM859.999 1192l140 -140l-140 -139l-139 139zM658.999 1463l139 -139l-139 -140l-140 140z" />
    <glyph glyph-name="sheenfinalarabic" unicode="&#x634;" arabic-form="final" 
d="M813 111c-32 -82 -67.3311 -123.001 -105.998 -123.001c-32 0 -59.667 18.667 -83 56c3.33301 -52.667 5 -90 5 -112c0 -206 -26 -357.167 -78 -453.5s-133.667 -144.5 -245 -144.5c-98 0 -171.5 43.5 -220.5 130.5s-73.5 217.167 -73.5 390.5
c0 160.667 18.333 307.667 55 441h121c-26.667 -128 -40 -255.333 -40 -382c0 -127.333 14.167 -223 42.5 -287s71.166 -96 128.499 -96c32.667 0 64 13.167 94 39.5s59 65.5 87 117.5c3.33301 70.667 5 122.334 5 155.001c0 280.667 -45.333 540.667 -136 780h160
c37.333 -98 65.333 -203 84 -315l13 -80c21.333 -29.333 41.666 -44 60.999 -44c39.333 0 63.666 38.667 72.999 116v416h123v-410c0 -80.667 24.667 -121 74 -121c52 0 80 43.667 84 131v523h124v-521l4 -60c2.66699 -40.667 18.667 -61 48 -61h41v-197h-59
c-71.333 0 -115.666 37 -132.999 111c-28.667 -82 -70.667 -123 -126 -123c-52 0 -94.333 41 -127 123zM408.002 1192l139 -140l-139 -139l-140 139zM810.002 1192l140 -140l-140 -139l-139 139zM609.002 1463l139 -139l-139 -140l-140 140z" />
    <glyph glyph-name="sheeninitialarabi" unicode="&#x634;" arabic-form="initial" 
d="M598 294c8 64.667 11.998 108.332 11.998 130.999v291h160v-338c0 -128.667 42.333 -193 127 -193c56.667 0 101.334 38 134.001 114c8 58 12 108.667 12 152c0 164.667 -26.667 331 -80 499h179c36.667 -141.333 55 -284.666 55 -429.999
c0 -178 -29.167 -311.333 -87.5 -400s-145.833 -133 -262.5 -133c-89.333 0 -159 41.333 -209 124c-72 -82 -150 -123 -234 -123c-82 0 -153.333 39.333 -214 118c-27.333 -43.333 -53.166 -71.833 -77.499 -85.5s-61.5 -20.5 -111.5 -20.5h-26v197h28
c56 0 108.333 32.333 157 97l6 57c4 32 6 56.667 6 74v291h160v-338c0 -128.667 39.333 -193 118 -193c52 0 101.333 36.333 148 109zM339.998 1192l139 -140l-139 -139l-140 139zM741.998 1192l140 -140l-140 -139l-139 139zM540.998 1463l139 -139l-139 -140l-140 140z
" />
    <glyph glyph-name="sheenmedialarabic" unicode="&#x634;" arabic-form="medial" 
d="M560 111c-40.667 -82.667 -102.999 -123.999 -186.999 -123.999c-76.667 0 -144 39.667 -202 119c-41.333 -70.667 -99 -106 -173 -106h-23v197h25c53.333 0 100.666 32.333 141.999 97l6 57c3.33301 32 5 56.667 5 74v291h161v-338c0 -128.667 32 -193 96 -193
c50.667 0 90 29 118 87l5 83c2 31.333 3 54.666 3 69.999v291h160v-338c0 -128.667 32.333 -193 97 -193c50 0 89 29 117 87l6 83c1.33301 31.333 2 54.666 2 69.999v414h161v-461c0 -71.333 9.33301 -119.333 28 -144s55.667 -37 111 -37h40v-197h-57
c-82.667 0 -141.167 7.33301 -175.5 22s-61.833 44.334 -82.5 89.001c-41.333 -82 -103.333 -123 -186 -123c-87.333 0 -153 41 -197 123zM421.001 1192l139 -140l-139 -139l-140 139zM823.001 1192l140 -140l-140 -139l-139 139zM622.001 1463l139 -139l-139 -140l-140 140
z" />
    <glyph glyph-name="sadisoarabic" unicode="&#x635;" arabic-form="isolated" 
d="M646 201c18 212 57.333 381.665 118 508.998s132.667 191 216 191c73.333 0 131.833 -48 175.5 -144s65.5 -224.667 65.5 -386c0 -137.333 -27.667 -237.666 -83 -300.999s-143 -95 -263 -95s-216.667 27.667 -290 83c4 -55.333 6 -100 6 -134
c0 -186 -27 -330.833 -81 -434.5s-129.667 -155.5 -227 -155.5c-90.667 0 -158.5 43.667 -203.5 131s-67.5 218 -67.5 392c0 160 18.333 306.333 55 439h121c-27.333 -129.333 -41 -265.666 -41 -408.999c0 -118.667 12.5 -207.667 37.5 -267s62.833 -89 113.5 -89
c41.333 0 76.166 18.333 104.499 55s50.166 91.667 65.499 165l2 122c0 156 -8.16699 279.167 -24.5 369.5s-48.166 189.5 -95.499 297.5h161c36.667 -95.333 63.334 -198.666 80.001 -309.999c16.667 -12.667 35 -22.334 55 -29.001zM755 179.998
c59.333 -13.333 103.332 -19.999 131.999 -19.999c65.333 0 127.666 14.333 186.999 43l-2 49c0 134.667 -11 243.5 -33 326.5s-50.667 124.5 -86 124.5c-37.333 0 -71.666 -39 -102.999 -117s-59.666 -194.667 -84.999 -350c-2 -12.667 -5.33301 -31.334 -10 -56.001z" />
    <glyph glyph-name="sadfinalarabic" unicode="&#x635;" arabic-form="final" 
d="M562 46c2.66699 -56 4.00195 -95.998 4.00195 -119.998c0 -184 -25.333 -328.667 -76 -434s-120 -158 -208 -158s-155 44.5 -201 133.5s-69 218.833 -69 389.5c0 160 18.333 306.333 55 439h121c-27.333 -129.333 -41 -265.333 -41 -408
c0 -118.667 12.167 -207.834 36.5 -267.501s60.833 -89.5 109.5 -89.5c35.333 0 65.666 18.333 90.999 55s45.333 91.667 60 165l1 124c0 154.667 -8.16699 277.167 -24.5 367.5s-47.833 189.5 -94.5 297.5h160c28.667 -82.667 52.667 -186 72 -310
c16 -11.333 33.333 -21 52 -29c18 212 57.5 381.667 118.5 509s132.833 191 215.5 191c70.667 0 128.667 -46.667 174 -140s68 -212.333 68 -357c0 -38.667 -4 -97.334 -12 -176.001c22 -20 39.333 -30 52 -30l32 -1v-197h-39c-40.667 0 -85.334 18 -134.001 54
c-65.333 -52.667 -148.333 -79 -249 -79c-94.667 0 -186 23.667 -274 71zM720.002 180.002c58.667 -13.333 102.332 -20 130.999 -20c65.333 0 127.666 14.333 186.999 43l-2 49c0 134.667 -10.833 243.5 -32.5 326.5s-50.5 124.5 -86.5 124.5
c-37.333 0 -71.666 -39 -102.999 -117s-59.666 -194.667 -84.999 -350z" />
    <glyph glyph-name="sadinitialarabic" unicode="&#x635;" arabic-form="initial" 
d="M249 203c-41.333 -135.333 -124.331 -203.001 -248.998 -203.001h-25v197h28c66 0 122.333 32.333 169 97l7 57c3.33301 32 5 56.667 5 74v291h160v-297c0 -62.667 34 -129.334 102 -200.001c46 218.667 109.167 387 189.5 505s171.5 177 273.5 177
c87.333 0 159.166 -50.167 215.499 -150.5s84.5 -228.166 84.5 -383.499c0 -134.667 -42 -233.667 -126 -297s-215 -95 -393 -95c-120 0 -211.333 16.333 -274 49s-118.334 92.334 -167.001 179.001zM608.002 178.999c55.333 -4.66699 96 -7 122 -7c100 0 198 15 294 45
c2.66699 46.667 4 81 4 103c0 112 -13.833 201.833 -41.5 269.5s-64.167 101.5 -109.5 101.5c-56 0 -109.833 -49.333 -161.5 -148s-87.5 -220 -107.5 -364z" />
    <glyph glyph-name="sadmedialarabic" unicode="&#x635;" arabic-form="medial" 
d="M558 179c54.667 -4.66699 94.0029 -7 118.003 -7c113.333 0 213 15 299 45c7.33301 37.333 11 69 11 95c0 106.667 -15.333 196.5 -46 269.5s-68.334 109.5 -113.001 109.5c-48.667 0 -93.834 -36.5 -135.501 -109.5s-79.834 -182.167 -114.501 -327.5zM225.003 203
c-41.333 -135.333 -115.996 -203 -223.996 -203h-26v197h28c51.333 0 99.666 32.333 144.999 97l6 57c3.33301 32 5 56.667 5 74v291h161v-297c0 -56.667 27 -116.667 81 -180l22 81c52.667 193.333 115.5 338.5 188.5 435.5s156.167 145.5 249.5 145.5
c86.667 0 158.167 -50.5 214.5 -151.5s84.5 -229.5 84.5 -385.5c0 -36.667 -4.33301 -81.334 -13 -134.001c28 -22 51.667 -33 71 -33h41v-197h-37c-52.667 0 -109 29.667 -169 89c-94.667 -76 -235.334 -114 -422.001 -114c-104.667 0 -186.834 16.833 -246.501 50.5
s-112.834 92.834 -159.501 177.501z" />
    <glyph glyph-name="dadisoarabic" unicode="&#x636;" arabic-form="isolated" 
d="M646 201c18 212 57.333 381.665 118 508.998s132.667 191 216 191c73.333 0 131.833 -48 175.5 -144s65.5 -224.667 65.5 -386c0 -137.333 -27.667 -237.666 -83 -300.999s-143 -95 -263 -95s-216.667 27.667 -290 83c4 -55.333 6 -100 6 -134
c0 -186 -27 -330.833 -81 -434.5s-129.667 -155.5 -227 -155.5c-90.667 0 -158.5 43.667 -203.5 131s-67.5 218 -67.5 392c0 160 18.333 306.333 55 439h121c-27.333 -129.333 -41 -265.666 -41 -408.999c0 -118.667 12.5 -207.667 37.5 -267s62.833 -89 113.5 -89
c41.333 0 76.166 18.333 104.499 55s50.166 91.667 65.499 165l2 122c0 156 -8.16699 279.167 -24.5 369.5s-48.166 189.5 -95.499 297.5h161c36.667 -95.333 63.334 -198.666 80.001 -309.999c16.667 -12.667 35 -22.334 55 -29.001zM755 179.998
c59.333 -13.333 103.332 -19.999 131.999 -19.999c65.333 0 127.666 14.333 186.999 43l-2 49c0 134.667 -11 243.5 -33 326.5s-50.667 124.5 -86 124.5c-37.333 0 -71.666 -39 -102.999 -117s-59.666 -194.667 -84.999 -350c-2 -12.667 -5.33301 -31.334 -10 -56.001z
M991.999 1377l139 -139l-139 -140l-140 140z" />
    <glyph glyph-name="dadfinalarabic" unicode="&#x636;" arabic-form="final" 
d="M562 46c2.66699 -56 4.00195 -95.998 4.00195 -119.998c0 -184 -25.333 -328.667 -76 -434s-120 -158 -208 -158s-155 44.5 -201 133.5s-69 218.833 -69 389.5c0 160 18.333 306.333 55 439h121c-27.333 -129.333 -41 -265.333 -41 -408
c0 -118.667 12.167 -207.834 36.5 -267.501s60.833 -89.5 109.5 -89.5c35.333 0 65.666 18.333 90.999 55s45.333 91.667 60 165l1 124c0 154.667 -8.16699 277.167 -24.5 367.5s-47.833 189.5 -94.5 297.5h160c28.667 -82.667 52.667 -186 72 -310
c16 -11.333 33.333 -21 52 -29c18 212 57.5 381.667 118.5 509s132.833 191 215.5 191c70.667 0 128.667 -46.667 174 -140s68 -212.333 68 -357c0 -38.667 -4 -97.334 -12 -176.001c22 -20 39.333 -30 52 -30l32 -1v-197h-39c-40.667 0 -85.334 18 -134.001 54
c-65.333 -52.667 -148.333 -79 -249 -79c-94.667 0 -186 23.667 -274 71zM720.002 180.002c58.667 -13.333 102.332 -20 130.999 -20c65.333 0 127.666 14.333 186.999 43l-2 49c0 134.667 -10.833 243.5 -32.5 326.5s-50.5 124.5 -86.5 124.5
c-37.333 0 -71.666 -39 -102.999 -117s-59.666 -194.667 -84.999 -350zM955 1377l139 -139l-139 -140l-140 140z" />
    <glyph glyph-name="dadinitialarabic" unicode="&#x636;" arabic-form="initial" 
d="M249 203c-41.333 -135.333 -124.331 -203.001 -248.998 -203.001h-25v197h28c66 0 122.333 32.333 169 97l7 57c3.33301 32 5 56.667 5 74v291h160v-297c0 -62.667 34 -129.334 102 -200.001c46 218.667 109.167 387 189.5 505s171.5 177 273.5 177
c87.333 0 159.166 -50.167 215.499 -150.5s84.5 -228.166 84.5 -383.499c0 -134.667 -42 -233.667 -126 -297s-215 -95 -393 -95c-120 0 -211.333 16.333 -274 49s-118.334 92.334 -167.001 179.001zM608.002 178.999c55.333 -4.66699 96 -7 122 -7c100 0 198 15 294 45
c2.66699 46.667 4 81 4 103c0 112 -13.833 201.833 -41.5 269.5s-64.167 101.5 -109.5 101.5c-56 0 -109.833 -49.333 -161.5 -148s-87.5 -220 -107.5 -364zM918.002 1377l139 -139l-139 -140l-140 140z" />
    <glyph glyph-name="dadmedialarabic" unicode="&#x636;" arabic-form="medial" 
d="M558 179c54.667 -4.66699 94.0029 -7 118.003 -7c113.333 0 213 15 299 45c7.33301 37.333 11 69 11 95c0 106.667 -15.333 196.5 -46 269.5s-68.334 109.5 -113.001 109.5c-48.667 0 -93.834 -36.5 -135.501 -109.5s-79.834 -182.167 -114.501 -327.5zM225.003 203
c-41.333 -135.333 -115.996 -203 -223.996 -203h-26v197h28c51.333 0 99.666 32.333 144.999 97l6 57c3.33301 32 5 56.667 5 74v291h161v-297c0 -56.667 27 -116.667 81 -180l22 81c52.667 193.333 115.5 338.5 188.5 435.5s156.167 145.5 249.5 145.5
c86.667 0 158.167 -50.5 214.5 -151.5s84.5 -229.5 84.5 -385.5c0 -36.667 -4.33301 -81.334 -13 -134.001c28 -22 51.667 -33 71 -33h41v-197h-37c-52.667 0 -109 29.667 -169 89c-94.667 -76 -235.334 -114 -422.001 -114c-104.667 0 -186.834 16.833 -246.501 50.5
s-112.834 92.834 -159.501 177.501zM894.007 1377l139 -139l-139 -140l-140 140z" />
    <glyph glyph-name="tahisoarabic" unicode="&#x637;" arabic-form="isolated" 
d="M336 1678h173.001v-615c0 -233.333 -17.667 -419 -53 -557c121.333 152.667 212.666 254.5 273.999 305.5s123 76.5 185 76.5c80.667 0 149.834 -43 207.501 -129s86.5 -189 86.5 -309c0 -151.333 -74.667 -268.333 -224 -351s-361 -124 -635 -124
c-118.667 0 -233.334 11.333 -344.001 34v198c51.333 -13.333 103.333 -24 156 -32c58 77.333 101.5 182 130.5 314s43.5 291 43.5 477v712zM323.001 173c171.333 0 306.333 9.83301 405 29.5s201.334 57.5 308.001 113.5v29c0 92 -17.333 170.667 -52 236
s-76.334 98 -125.001 98c-52.667 0 -123.667 -42.167 -213 -126.5s-197 -210.833 -323 -379.5z" />
    <glyph glyph-name="tahfinalarabic" unicode="&#x637;" arabic-form="final" 
d="M6 9v198.001c42.667 -13.333 86.667 -24 132 -32c58 77.333 101.5 182 130.5 314s43.5 291 43.5 477v712h172v-615c0 -232.667 -17.667 -418.334 -53 -557.001c121.333 152.667 212.666 254.5 273.999 305.5s123.333 76.5 186 76.5
c81.333 0 150.666 -43.333 207.999 -130s86 -192 86 -316c0 -83.333 -22.333 -153.333 -67 -210c22 -23.333 52.667 -35 92 -35h49v-197h-55c-106 0 -180.667 37.667 -224 113c-77.333 -46 -169.666 -80.5 -276.999 -103.5s-229.666 -34.5 -366.999 -34.5
c-116 0 -226 11.333 -330 34zM299 173.001c171.333 0 306.167 9.83301 404.5 29.5s200.833 57.5 307.5 113.5v29c0 92 -17.333 170.667 -52 236s-76.334 98 -125.001 98c-52.667 0 -123.667 -42.167 -213 -126.5s-196.666 -210.833 -321.999 -379.5z" />
    <glyph glyph-name="tahinitialarabic" unicode="&#x637;" arabic-form="initial" 
d="M-25 0l-0.00195312 197h162c60.667 70.667 104.834 167.167 132.501 289.5s41.5 282.166 41.5 479.499v712h173v-615c0 -234 -17.667 -419.667 -53 -557c122 153.333 213.5 255.333 274.5 306s122.5 76 184.5 76c80.667 0 149.834 -43 207.501 -129s86.5 -189 86.5 -309
c0 -141.333 -62.333 -251.666 -187 -330.999s-298 -119 -520 -119h-502zM1011 316l0.000976562 29c0 92 -17.333 170.667 -52 236s-76.334 98 -125.001 98c-44.667 0 -107.167 -36 -187.5 -108s-196.5 -196.667 -348.5 -374h203c95.333 0 185.5 9.83301 270.5 29.5
s164.833 49.5 239.5 89.5z" />
    <glyph glyph-name="tahmedialarabic" unicode="&#x637;" arabic-form="medial" 
d="M-25 0l-0.000976562 197.001h139c60.667 70.667 104.834 167 132.501 289s41.5 282 41.5 480v712h173v-615c0 -234 -17.667 -419.667 -53 -557c120.667 152 211.667 253.667 273 305s123 77 185 77c79.333 0 148.333 -42.5 207 -127.5s88 -184.833 88 -299.5
c0 -82.667 -20.667 -154.334 -62 -215.001c31.333 -32.667 64.333 -49 99 -49h60v-197h-66c-98 0 -170.333 40 -217 120c-135.333 -80 -309 -120 -521 -120h-479zM987.999 316.001l0.000976562 29c0 92 -17.333 170.667 -52 236s-76.334 98 -125.001 98
c-45.333 0 -108 -36 -188 -108s-196 -196.667 -348 -374h203c191.333 0 361.333 39.667 510 119z" />
    <glyph glyph-name="zahaisorabic" unicode="&#x638;" arabic-form="isolated" 
d="M336 1678h173.001v-615c0 -233.333 -17.667 -419 -53 -557c121.333 152.667 212.666 254.5 273.999 305.5s123 76.5 185 76.5c80.667 0 149.834 -43 207.501 -129s86.5 -189 86.5 -309c0 -151.333 -74.667 -268.333 -224 -351s-361 -124 -635 -124
c-118.667 0 -233.334 11.333 -344.001 34v198c51.333 -13.333 103.333 -24 156 -32c58 77.333 101.5 182 130.5 314s43.5 291 43.5 477v712zM323.001 173c171.333 0 306.333 9.83301 405 29.5s201.334 57.5 308.001 113.5v29c0 92 -17.333 170.667 -52 236
s-76.334 98 -125.001 98c-52.667 0 -123.667 -42.167 -213 -126.5s-197 -210.833 -323 -379.5zM914.001 1365l139 -139l-139 -140l-140 140z" />
    <glyph glyph-name="zahfinalarabic" unicode="&#x638;" arabic-form="final" 
d="M6 9v198.001c42.667 -13.333 86.667 -24 132 -32c58 77.333 101.5 182 130.5 314s43.5 291 43.5 477v712h172v-615c0 -232.667 -17.667 -418.334 -53 -557.001c121.333 152.667 212.666 254.5 273.999 305.5s123.333 76.5 186 76.5
c81.333 0 150.666 -43.333 207.999 -130s86 -192 86 -316c0 -83.333 -22.333 -153.333 -67 -210c22 -23.333 52.667 -35 92 -35h49v-197h-55c-106 0 -180.667 37.667 -224 113c-77.333 -46 -169.666 -80.5 -276.999 -103.5s-229.666 -34.5 -366.999 -34.5
c-116 0 -226 11.333 -330 34zM299 173.001c171.333 0 306.167 9.83301 404.5 29.5s200.833 57.5 307.5 113.5v29c0 92 -17.333 170.667 -52 236s-76.334 98 -125.001 98c-52.667 0 -123.667 -42.167 -213 -126.5s-196.666 -210.833 -321.999 -379.5zM889.001 1365l139 -139
l-139 -140l-140 140z" />
    <glyph glyph-name="zahinitialarabic" unicode="&#x638;" arabic-form="initial" 
d="M-25 0l-0.00195312 197h162c60.667 70.667 104.834 167.167 132.501 289.5s41.5 282.166 41.5 479.499v712h173v-615c0 -234 -17.667 -419.667 -53 -557c122 153.333 213.5 255.333 274.5 306s122.5 76 184.5 76c80.667 0 149.834 -43 207.501 -129s86.5 -189 86.5 -309
c0 -141.333 -62.333 -251.666 -187 -330.999s-298 -119 -520 -119h-502zM1011 316l0.000976562 29c0 92 -17.333 170.667 -52 236s-76.334 98 -125.001 98c-44.667 0 -107.167 -36 -187.5 -108s-196.5 -196.667 -348.5 -374h203c95.333 0 185.5 9.83301 270.5 29.5
s164.833 49.5 239.5 89.5zM888.999 1365l139 -139l-139 -140l-140 140z" />
    <glyph glyph-name="zahmedialarabic" unicode="&#x638;" arabic-form="medial" 
d="M-25 0l-0.000976562 197.001h139c60.667 70.667 104.834 167 132.501 289s41.5 282 41.5 480v712h173v-615c0 -234 -17.667 -419.667 -53 -557c120.667 152 211.667 253.667 273 305s123 77 185 77c79.333 0 148.333 -42.5 207 -127.5s88 -184.833 88 -299.5
c0 -82.667 -20.667 -154.334 -62 -215.001c31.333 -32.667 64.333 -49 99 -49h60v-197h-66c-98 0 -170.333 40 -217 120c-135.333 -80 -309 -120 -521 -120h-479zM987.999 316.001l0.000976562 29c0 92 -17.333 170.667 -52 236s-76.334 98 -125.001 98
c-45.333 0 -108 -36 -188 -108s-196 -196.667 -348 -374h203c191.333 0 361.333 39.667 510 119zM889 1365l139 -139l-139 -140l-140 140z" />
    <glyph glyph-name="ainisoarabic" unicode="&#x639;" arabic-form="isolated" 
d="M587 372c-96.667 43.333 -169.167 96.499 -217.5 159.499s-72.5 135.5 -72.5 217.5c0 108 46.167 191.167 138.5 249.5s224.166 87.5 395.499 87.5c53.333 0 110.666 -3 171.999 -9v-175c-56 7.33301 -110.333 11 -163 11c-157.333 0 -284 -28.667 -380 -86
c20.667 -124 71.334 -216.833 152.001 -278.5s191.334 -92.5 332.001 -92.5h37v-197h-78c-180.667 0 -324.167 -38.833 -430.5 -116.5s-159.5 -182.5 -159.5 -314.5c0 -122.667 46.5 -223.334 139.5 -302.001s211.833 -118 356.5 -118c126 0 256 17 390 51v-127
c-164 -82 -306 -123 -426 -123c-185.333 0 -340 55.833 -464 167.5s-186 250.834 -186 417.501c0 134.667 35.167 245.834 105.5 333.501s189.833 169.167 358.5 244.5z" />
    <glyph glyph-name="ainfinalarabic" unicode="&#x639;" arabic-form="final" 
d="M514 299c-112.667 119.333 -220.668 199.665 -324.001 240.998v200c209.333 99.333 393.666 149 552.999 149c103.333 0 186 -25.167 248 -75.5s93 -117.166 93 -200.499c0 -107.333 -67.667 -203 -203 -287l-65 -40c82.667 -59.333 198.667 -89 348 -89h95v-197h-134
c-135.333 0 -228.666 9.66699 -279.999 29s-124 72.333 -218 159c-129.333 -67.333 -216.833 -129 -262.5 -185s-68.5 -129 -68.5 -219c0 -111.333 44.833 -201.833 134.5 -271.5s205.834 -104.5 348.501 -104.5c134 0 267.667 17 401 51v-127
c-163.333 -82 -309 -123 -437 -123c-185.333 0 -339 52.667 -461 158s-183 238.333 -183 399c0 109.333 34.5 208.333 103.5 297s172.833 167.334 311.5 236.001zM684.999 374.999c133.333 66.667 200.002 134.667 200.002 204c0 43.333 -17.833 75.833 -53.5 97.5
s-88.834 32.5 -159.501 32.5c-100.667 0 -197.667 -19.333 -291 -58c127.333 -89.333 228.666 -181.333 303.999 -276z" />
    <glyph glyph-name="aininitialarabic" unicode="&#x639;" arabic-form="initial" 
d="M-25 0l-0.00292969 197h63c81.333 0 170.666 15.333 267.999 46l136 42c18.667 6 45.334 14 80.001 24c-98 58 -171.333 122.833 -220 194.5s-73 150.167 -73 235.5c0 106.667 54.667 191.167 164 253.5s258 93.5 446 93.5c62.667 0 132.334 -4.66699 209.001 -14v-183
c-100 16 -188 24 -264 24c-150 0 -270.667 -31.333 -362 -94v-24c0 -61.333 21.333 -124 64 -188c52.667 -78.667 115.834 -133.667 189.501 -165s175.834 -47 306.501 -47h165v-198h-202c-215.333 0 -374 -21 -476 -63l-43 -18l-106 -45
c-115.333 -47.333 -217 -71 -305 -71h-40z" />
    <glyph glyph-name="ainmedialarabic" unicode="&#x639;" arabic-form="medial" 
d="M-25 0l-0.000976562 197h147c146 0 276.333 19 391 57c-131.333 144.667 -254.333 240 -369 286v200c210 99.333 394.667 149 554 149c104.667 0 187.5 -25.333 248.5 -76s91.5 -119 91.5 -205c0 -64.667 -15.167 -120.5 -45.5 -167.5s-90.166 -107.833 -179.499 -182.5
c82.667 -40.667 190.667 -61 324 -61h121v-197h-131c-204.667 -0 -368 47.333 -490 142c-123.333 -60.667 -216 -99.5 -278 -116.5s-142 -25.5 -240 -25.5h-144zM677.999 350c107.333 90 161.001 167.668 161.001 233.001c0 42 -17.833 73.5 -53.5 94.5
s-88.834 31.5 -159.501 31.5c-98.667 0 -196 -19.333 -292 -58c94 -62.667 162.667 -116.334 206 -161.001l100 -103z" />
    <glyph glyph-name="ghainisoarabic" unicode="&#x63a;" arabic-form="isolated" 
d="M587 372c-96.667 43.333 -169.167 96.499 -217.5 159.499s-72.5 135.5 -72.5 217.5c0 108 46.167 191.167 138.5 249.5s224.166 87.5 395.499 87.5c53.333 0 110.666 -3 171.999 -9v-175c-56 7.33301 -110.333 11 -163 11c-157.333 0 -284 -28.667 -380 -86
c20.667 -124 71.334 -216.833 152.001 -278.5s191.334 -92.5 332.001 -92.5h37v-197h-78c-180.667 0 -324.167 -38.833 -430.5 -116.5s-159.5 -182.5 -159.5 -314.5c0 -122.667 46.5 -223.334 139.5 -302.001s211.833 -118 356.5 -118c126 0 256 17 390 51v-127
c-164 -82 -306 -123 -426 -123c-185.333 0 -340 55.833 -464 167.5s-186 250.834 -186 417.501c0 134.667 35.167 245.834 105.5 333.501s189.833 169.167 358.5 244.5zM822 1562l139 -139l-139 -140l-140 140z" />
    <glyph glyph-name="ghainfinalarabic" unicode="&#x63a;" arabic-form="final" 
d="M514 299c-112.667 119.333 -220.668 199.665 -324.001 240.998v200c209.333 99.333 393.666 149 552.999 149c103.333 0 186 -25.167 248 -75.5s93 -117.166 93 -200.499c0 -107.333 -67.667 -203 -203 -287l-65 -40c82.667 -59.333 198.667 -89 348 -89h95v-197h-134
c-135.333 0 -228.666 9.66699 -279.999 29s-124 72.333 -218 159c-129.333 -67.333 -216.833 -129 -262.5 -185s-68.5 -129 -68.5 -219c0 -111.333 44.833 -201.833 134.5 -271.5s205.834 -104.5 348.501 -104.5c134 0 267.667 17 401 51v-127
c-163.333 -82 -309 -123 -437 -123c-185.333 0 -339 52.667 -461 158s-183 238.333 -183 399c0 109.333 34.5 208.333 103.5 297s172.833 167.334 311.5 236.001zM684.999 374.999c133.333 66.667 200.002 134.667 200.002 204c0 43.333 -17.833 75.833 -53.5 97.5
s-88.834 32.5 -159.501 32.5c-100.667 0 -197.667 -19.333 -291 -58c127.333 -89.333 228.666 -181.333 303.999 -276zM715.001 1365l139 -139l-139 -140l-140 140z" />
    <glyph glyph-name="ghaininitialarabic" unicode="&#x63a;" arabic-form="initial" 
d="M-25 0l-0.00292969 197h63c81.333 0 170.666 15.333 267.999 46l136 42c18.667 6 45.334 14 80.001 24c-98 58 -171.333 122.833 -220 194.5s-73 150.167 -73 235.5c0 106.667 54.667 191.167 164 253.5s258 93.5 446 93.5c62.667 0 132.334 -4.66699 209.001 -14v-183
c-100 16 -188 24 -264 24c-150 0 -270.667 -31.333 -362 -94v-24c0 -61.333 21.333 -124 64 -188c52.667 -78.667 115.834 -133.667 189.501 -165s175.834 -47 306.501 -47h165v-198h-202c-215.333 0 -374 -21 -476 -63l-43 -18l-106 -45
c-115.333 -47.333 -217 -71 -305 -71h-40zM825.997 1562l139 -139l-139 -140l-140 140z" />
    <glyph glyph-name="ghainmedialarabic" unicode="&#x63a;" arabic-form="medial" 
d="M-25 0l-0.000976562 197h147c146 0 276.333 19 391 57c-131.333 144.667 -254.333 240 -369 286v200c210 99.333 394.667 149 554 149c104.667 0 187.5 -25.333 248.5 -76s91.5 -119 91.5 -205c0 -64.667 -15.167 -120.5 -45.5 -167.5s-90.166 -107.833 -179.499 -182.5
c82.667 -40.667 190.667 -61 324 -61h121v-197h-131c-204.667 -0 -368 47.333 -490 142c-123.333 -60.667 -216 -99.5 -278 -116.5s-142 -25.5 -240 -25.5h-144zM677.999 350c107.333 90 161.001 167.668 161.001 233.001c0 42 -17.833 73.5 -53.5 94.5
s-88.834 31.5 -159.501 31.5c-98.667 0 -196 -19.333 -292 -58c94 -62.667 162.667 -116.334 206 -161.001l100 -103zM669 1365l139 -139l-139 -140l-140 140z" />
    <glyph glyph-name="fehisoarabic" unicode="&#x641;" arabic-form="isolated" 
d="M1015 403c-36.667 -5.33301 -68.333 -7.99805 -95 -7.99805c-92.667 0 -166 20.833 -220 62.5s-81 98.834 -81 171.501c0 136.667 33 255.167 99 355.5s144.333 150.5 235 150.5c85.333 0 149.333 -39.333 192 -118s64 -196.334 64 -353.001
c0 -228.667 -65.5 -408.834 -196.5 -540.501s-309.833 -197.5 -536.5 -197.5c-150.667 0 -263.5 40.167 -338.5 120.5s-112.5 201.166 -112.5 362.499c0 57.333 7 143 21 257h124c-8 -65.333 -12 -116 -12 -152c0 -135.333 28.667 -234.333 86 -297s148 -94 272 -94
c192 0 348.667 61.333 470 184c13.333 32 23 64 29 96zM1032 598.002c2.66699 26.667 4 45 4 55c0 98 -7.83301 171.5 -23.5 220.5s-39.167 73.5 -70.5 73.5c-40 0 -72.333 -24.5 -97 -73.5s-41.667 -122.5 -51 -220.5c50 -40.667 106.333 -61 169 -61
c17.333 0 40.333 2 69 6zM954.001 1611l139 -139l-139 -140l-140 140z" />
    <glyph glyph-name="fehfinalarabic" unicode="&#x641;" arabic-form="final" 
d="M890 143c-133.333 -112 -294.668 -168.003 -484.001 -168.003c-131.333 0 -229.833 38.167 -295.5 114.5s-98.5 190.833 -98.5 343.5c0 64.667 6.66699 142.334 20 233.001h124c-8 -76 -12 -133.333 -12 -172c0 -115.333 23.167 -197.666 69.5 -246.999
s123.833 -74 232.5 -74c108 0 213.333 23.667 316 71c-82.667 78 -124 162.667 -124 254c0 98.667 35.833 188.5 107.5 269.5s150.834 121.5 237.501 121.5c74 0 132.667 -26 176 -78s65 -123 65 -213c0 -81.333 -13.333 -147.166 -40 -197.499s-75 -101.5 -145 -153.5
c61.333 -33.333 123 -50 185 -50h34v-197h-64c-120.667 0 -222 47.667 -304 143zM925.998 327.997c56 50 97.333 102.999 124 158.999c4 29.333 6 51.333 6 66c0 112.667 -35.333 169 -106 169c-62.667 0 -116.334 -59 -161.001 -177
c36.667 -101.333 82.334 -173.666 137.001 -216.999zM1005 1365l140 -140l-140 -139l-139 139z" />
    <glyph glyph-name="fehinitialarabic" unicode="&#x641;" arabic-form="initial" 
d="M-25 0l-0.000976562 197.001h42c152.667 0 297.334 7.33301 434.001 22s265.667 36.667 387 66c14 42 23.667 81.333 29 118c-38 -5.33301 -76.333 -8 -115 -8c-126.667 0 -221.667 19 -285 57s-95 95.333 -95 172c0 122.667 41.833 238.5 125.5 347.5
s172.5 163.5 266.5 163.5s167 -43.333 219 -130s78 -208.334 78 -365.001c0 -269.333 -86.667 -445 -260 -527c-159.333 -75.333 -416 -113 -770 -113h-56zM883.999 585.001c0 120.667 -12.167 211.168 -36.5 271.501s-60.5 90.5 -108.5 90.5
c-42.667 0 -81.834 -28.333 -117.501 -85s-60.5 -130.334 -74.5 -221.001c84 -40.667 171.667 -61 263 -61c16.667 0 41.334 1.66699 74.001 5zM768.999 1611l139 -139l-139 -140l-140 140z" />
    <glyph glyph-name="fehmedialarabic" unicode="&#x641;" arabic-form="medial" 
d="M-25 0l0.000976562 197h128c143.333 0 254 11.333 332 34c-54 47.333 -94.333 94.333 -121 141s-40 93 -40 139c0 99.333 42.333 187 127 263s182.334 114 293.001 114c81.333 0 145.666 -25 192.999 -75s71 -118.333 71 -205c0 -68 -13.5 -125.167 -40.5 -171.5
s-83.167 -109.5 -168.5 -189.5c151.333 -33.333 309.666 -50 474.999 -50h34v-197h-114c-221.333 0 -408 40 -560 120c-169.333 -80 -335 -120 -497 -120h-112zM611.001 328c53.333 45.333 107.668 105.331 163.001 179.998c0 71.333 -10.833 124.833 -32.5 160.5
s-53.834 53.5 -96.501 53.5c-39.333 0 -77.5 -13.167 -114.5 -39.5s-72.5 -65.833 -106.5 -118.5c20 -47.333 45.667 -90.666 77 -129.999s68 -74.666 110 -105.999zM691.003 1365l139 -139l-139 -140l-140 140z" />
    <glyph glyph-name="qafisoarabic" unicode="&#x642;" arabic-form="isolated" 
d="M1015 12c-37.333 -6 -69 -9 -95 -9c-92.667 0 -166.167 21 -220.5 63s-81.5 99 -81.5 171c0 138 32.833 256.333 98.5 355s144.167 148 235.5 148c85.333 0 149.5 -39 192.5 -117s64.5 -195 64.5 -351c0 -227.333 -65.333 -407.166 -196 -539.499
s-308.334 -198.5 -533.001 -198.5c-151.333 0 -264.666 39.167 -339.999 117.5s-113 195.833 -113 352.5c0 25.333 3 64.666 9 117.999l10 75h123c-8 -64 -12 -117.333 -12 -160c0 -102 30.167 -178.5 90.5 -229.5s151.166 -76.5 272.499 -76.5
c100.667 0 189.834 15.333 267.501 46s143.5 76.667 197.5 138c13.333 32 23.333 64.333 30 97zM1032 206c2 26.667 2.99902 45 2.99902 55c0 98 -7.83301 171.5 -23.5 220.5s-39.167 73.5 -70.5 73.5c-40 0 -72.167 -24.5 -96.5 -73.5s-41.166 -122.5 -50.499 -220.5
c50 -40.667 106.333 -61 169 -61c16.667 0 39.667 2 69 6zM751.999 1217l139 -139l-139 -140l-140 140zM1154 1217l139 -139l-139 -140l-140 140z" />
    <glyph glyph-name="qaffinalarabic" unicode="&#x642;" arabic-form="final" 
d="M44 197h124c-8.66699 -64 -13 -117.333 -13 -160c0 -101.333 29 -177.5 87 -228.5s145 -76.5 261 -76.5c94.667 0 179.167 15.333 253.5 46s138.5 76.334 192.5 137.001c14 32 24 64.333 30 97c-37.333 -6 -68.666 -9 -93.999 -9c-93.333 0 -167 21 -221 63
s-81 99 -81 171c0 138 32.667 256.333 98 355s143.666 148 234.999 148c85.333 0 149.5 -38.5 192.5 -115.5s64.5 -192.167 64.5 -345.5l-2 -82h88v-197h-118c-49.333 -142 -135 -255.167 -257 -339.5s-261.667 -126.5 -419 -126.5c-146.667 0 -256.667 39.167 -330 117.5
s-110 195.833 -110 352.5c0 25.333 3.33301 64.666 10 117.999zM996 194c2 28.667 3 47.999 3 57.999c0 100.667 -7.83301 176.334 -23.5 227.001s-39.167 76 -70.5 76c-42 0 -75.167 -25.5 -99.5 -76.5s-40.166 -127.5 -47.499 -229.5c50 -40.667 106 -61 168 -61
c17.333 0 40.666 2 69.999 6zM716 1217l139 -140l-139 -139l-140 139zM1118 1217l140 -140l-140 -139l-139 139z" />
    <glyph glyph-name="qafinitialarabic" unicode="&#x642;" arabic-form="initial" 
d="M-25 0l-0.000976562 197.001h42c152.667 0 297.334 7.33301 434.001 22s265.667 36.667 387 66c14 42 23.667 81.333 29 118c-38 -5.33301 -76.333 -8 -115 -8c-126.667 0 -221.667 19 -285 57s-95 95.333 -95 172c0 122.667 41.833 238.5 125.5 347.5
s172.5 163.5 266.5 163.5s167 -43.333 219 -130s78 -208.334 78 -365.001c0 -269.333 -86.667 -445 -260 -527c-159.333 -75.333 -416 -113 -770 -113h-56zM883.999 585.001c0 120.667 -12.167 211.168 -36.5 271.501s-60.5 90.5 -108.5 90.5
c-42.667 0 -81.834 -28.333 -117.501 -85s-60.5 -130.334 -74.5 -221.001c84 -40.667 171.667 -61 263 -61c16.667 0 41.334 1.66699 74.001 5zM567.999 1611l139 -139l-139 -140l-140 140zM969.999 1611l139 -139l-139 -140l-140 140z" />
    <glyph glyph-name="qafmedialarabic" unicode="&#x642;" arabic-form="medial" 
d="M-25 0l0.000976562 197h128c143.333 0 254 11.333 332 34c-54 47.333 -94.333 94.333 -121 141s-40 93 -40 139c0 99.333 42.333 187 127 263s182.334 114 293.001 114c81.333 0 145.666 -25 192.999 -75s71 -118.333 71 -205c0 -68 -13.5 -125.167 -40.5 -171.5
s-83.167 -109.5 -168.5 -189.5c151.333 -33.333 309.666 -50 474.999 -50h34v-197h-114c-221.333 0 -408 40 -560 120c-169.333 -80 -335 -120 -497 -120h-112zM611.001 328c53.333 45.333 107.668 105.331 163.001 179.998c0 71.333 -10.833 124.833 -32.5 160.5
s-53.834 53.5 -96.501 53.5c-39.333 0 -77.5 -13.167 -114.5 -39.5s-72.5 -65.833 -106.5 -118.5c20 -47.333 45.667 -90.666 77 -129.999s68 -74.666 110 -105.999zM515.003 1365l139 -139l-139 -140l-140 140zM917.003 1365l139 -139l-139 -140l-140 140z" />
    <glyph glyph-name="kafisoarabic" unicode="&#x643;" arabic-form="isolated" 
d="M68 666l122.999 0.000976562c-2.66699 -45.333 -4 -79 -4 -101c0 -138.667 26.833 -238.667 80.5 -300s140.834 -92 261.501 -92c148.667 0 288 53.667 418 161c18 140 27 285.333 27 436v908h173v-922c0 -164 -8.66699 -287.333 -26 -370s-48.333 -148.334 -93 -197.001
c-129.333 -142.667 -304 -214 -524 -214c-147.333 0 -260 40.5 -338 121.5s-117 197.833 -117 350.5c0 58 6.33301 131 19 219zM521.999 642.001l-223.999 0.000976562l279 228l-66 40l-40 28l-39 26c-27.333 19.333 -41 42.666 -41 69.999c0 66.667 38.167 129 114.5 187
s158.166 87 245.499 87v-111c-92 0 -167 -41.333 -225 -124l69 -42l49 -29c59.333 -35.333 89 -66.333 89 -93c0 -39.333 -70.333 -128.333 -211 -267z" />
    <glyph glyph-name="kaffinalarabic" unicode="&#x643;" arabic-form="final" 
d="M979 166c-172 -127.333 -341.667 -190.999 -509 -190.999c-140.667 0 -250 41.667 -328 125s-117 200.666 -117 351.999c0 54.667 6.66699 126 20 214l123 1c-3.33301 -32 -5 -58 -5 -78c0 -124.667 13.333 -210.667 40 -258c58.667 -105.333 158.667 -158 300 -158
c146 0 286.667 53.667 422 161c18 140 27 285.333 27 436v908h178v-1219v-116c0 -97.333 31.333 -146 94 -146h35v-197h-68c-66 0 -112.333 10.5 -139 31.5s-51 65.833 -73 134.5zM499 642.001l-225 0.000976562l279 228l-66 40l-39 28l-39 26
c-27.333 19.333 -41 42.666 -41 69.999c0 66.667 38 129 114 187s158 87 246 87v-111c-46.667 0 -88.667 -10.333 -126 -31s-70.333 -51.667 -99 -93l69 -42l49 -29c59.333 -35.333 89 -66.333 89 -93c0 -39.333 -70.333 -128.333 -211 -267z" />
    <glyph glyph-name="kafinitialarabic" unicode="&#x643;" arabic-form="initial" 
d="M-25 0v196.999h187l235 5l216 8c98.667 0 195.667 14.667 291 44c-9.33301 168 -62.333 309.833 -159 425.5s-262.667 235.5 -498 359.5l-65 34v198l1030 407v-192l-847 -330c217.333 -97.333 387.833 -220.166 511.5 -368.499s185.5 -303.833 185.5 -466.5
c0 -128 -64.167 -213.5 -192.5 -256.5s-382.5 -64.5 -762.5 -64.5h-132z" />
    <glyph glyph-name="kafmedialarabic" unicode="&#x643;" arabic-form="medial" 
d="M-25 0l0.00195312 197h65c178.667 0 319.667 22.667 423 68c2 42.667 3 73.667 3 93c0 93.333 -14.5 181 -43.5 263s-72.5 158.333 -130.5 229l-185 223v198l1031 407v-192l-868 -338l609 -699l78 -90c96.667 -108 187.667 -162 273 -162h28v-197h-38
c-77.333 0 -148.333 23.5 -213 70.5s-153.334 139.167 -266.001 276.5l-128 157c2.66699 -45.333 4 -85 4 -119c0 -122 -49.333 -216.667 -148 -284s-237.334 -101 -416.001 -101h-78z" />
    <glyph glyph-name="lamisoarabic" unicode="&#x644;" arabic-form="isolated" 
d="M68 25l124.001 -0.00292969c-3.33301 -46 -5 -79.667 -5 -101c0 -139.333 26.833 -239.666 80.5 -300.999s141.167 -92 262.5 -92c147.333 0 286.666 53.667 417.999 161c18 140.667 27 286.334 27 437.001v1549h172v-1563c0 -164.667 -8.66699 -288.167 -26 -370.5
s-48 -148.166 -92 -197.499c-130 -142 -305 -213 -525 -213c-146.667 0 -259.167 40.5 -337.5 121.5s-117.5 197.5 -117.5 349.5c0 58 6.33301 131.333 19 220z" />
    <glyph glyph-name="lamfinalarabic" unicode="&#x644;" arabic-form="final" 
d="M39 25l123.001 -0.000976562c-3.33301 -36 -5 -60.667 -5 -74c0 -157.333 23.5 -266.666 70.5 -327.999s130.5 -92 250.5 -92c154 0 284.333 53.667 391 161c18 142.667 27 288.334 27 437.001v1549h173v-1120c0 -167.333 7.83301 -269.333 23.5 -306s59.5 -55 131.5 -55
h36v-197h-24c-76.667 0 -132.334 22.333 -167.001 67l-6 -143c0 -106.667 -13 -191.834 -39 -255.501s-72.333 -122.834 -139 -177.501c-127.333 -104.667 -277.333 -157 -450 -157c-133.333 0 -236 40.833 -308 122.5s-108 198.5 -108 350.5
c0 56.667 6.66699 129.334 20 218.001z" />
    <glyph glyph-name="laminitialarabic" unicode="&#x644;" arabic-form="initial" 
d="M653 1678h173v-967c0 -256 -17.667 -425 -53 -507c-29.333 -68 -105.5 -119 -228.5 -153s-292.833 -51 -509.5 -51h-60v197h67c228 0 422.667 16 584 48c18 136.667 27 302.667 27 498v935z" />
    <glyph glyph-name="lammedialarabic" unicode="&#x644;" arabic-form="medial" 
d="M530 1678h172.999v-1196c0 -95.333 6.16699 -158.166 18.5 -188.499s41.833 -53.5 88.5 -69.5c50 -18 167.333 -27 352 -27h96v-197h-112c-236.667 0 -387.834 9.83301 -453.501 29.5s-111.834 69.167 -138.501 148.5c-40 -59.333 -106.167 -103.833 -198.5 -133.5
s-210.833 -44.5 -355.5 -44.5h-25v197h27l144 6c114.667 0 196.334 8.16699 245.001 24.5s90.334 49.833 125.001 100.5c2.66699 23.333 4.33398 37.666 5.00098 42.999l4 70c3.33301 52 5 81.667 5 89v1148z" />
    <glyph glyph-name="meemisoarabic" unicode="&#x645;" arabic-form="isolated" 
d="M370 -790l-172.999 0.000976562v244c0 69.333 -4 153 -12 251c-8 99.333 -12 178 -12 236c0 102.667 19.167 188.5 57.5 257.5s95.833 121.167 172.5 156.5c-28.667 76.667 -43 154.667 -43 234c0 98 22.5 175.5 67.5 232.5s106.833 85.5 185.5 85.5
c92 0 184.667 -41.833 278 -125.5s187 -209.167 281 -376.5v-230c-134 28 -275.333 42 -424 42c-158.667 0 -265.334 -16 -320.001 -48s-82 -95 -82 -189c0 -32.667 2 -79.334 6 -140.001c8 -100.667 12 -155 12 -163l3 -127l3 -119v-221zM943.001 409.001
c-57.333 102.667 -112.832 179.833 -166.499 231.5s-105.5 77.5 -155.5 77.5c-66.667 0 -100 -49 -100 -147c0 -66.667 10.333 -125 31 -175c68 13.333 145 20 231 20c27.333 0 62.666 -1.33301 105.999 -4z" />
    <glyph glyph-name="meemfinalarabic" unicode="&#x645;" arabic-form="final" 
d="M1259 197l0.00195312 -197.001h-34c-90 0 -173 41.667 -249 125c-27.333 -50 -58.833 -87.5 -94.5 -112.5s-75.167 -37.5 -118.5 -37.5c-63.333 0 -129.333 19 -198 57s-140.334 95.333 -215.001 172c-86.667 -118.667 -130 -210.667 -130 -276
c0 -32.667 3 -76.334 9 -131.001c5.33301 -54 9 -96.667 11 -128l8 -123l6 -115v-221h-172v244c0 54 -1 94 -3 120l-9 131l-8 124c-3.33301 49.333 -5 82.333 -5 99c0 62.667 40 156.334 120 281.001c46.667 73.333 87.667 143 123 209l24 46l61 117
c42 80.667 80.167 135.834 114.5 165.501s76.833 44.5 127.5 44.5c55.333 0 108.166 -20.333 158.499 -61s98.166 -101.667 143.499 -183l18 -31l38 -76c46 -92 86.833 -155.5 122.5 -190.5s77.834 -52.5 126.501 -52.5h25zM452.002 379.999l32.001 -23.999l79 -69
c105.333 -91.333 197 -144.333 275 -159c1.33301 26 2 47 2 63c0 81.333 -27 168.333 -81 261s-104.667 139 -152 139c-38.667 0 -73.334 -33 -104.001 -99l-37 -80c-1.33301 -2.66699 -6 -13.334 -14 -32.001z" />
    <glyph glyph-name="meeminitialarabic" unicode="&#x645;" arabic-form="initial" 
d="M-25 0l-0.000976562 197h45c73.333 0 127.5 13.167 162.5 39.5s78.833 86.833 131.5 181.5l49 89l30 52c52 92 97 153.5 135 184.5s87.667 46.5 149 46.5c115.333 0 219.5 -54.167 312.5 -162.5s139.5 -230.166 139.5 -365.499c0 -88.667 -21.833 -158.667 -65.5 -210
s-103.5 -77 -179.5 -77c-86 0 -170.5 20.167 -253.5 60.5s-164.5 101.166 -244.5 182.499c-7.33301 -12 -12.666 -21.333 -15.999 -28c-44.667 -81.333 -86.5 -133.333 -125.5 -156s-107.5 -34 -205.5 -34h-64zM478.999 396
c81.333 -80.667 161.165 -143.332 239.498 -187.999s155.5 -71.334 231.5 -80.001c2 25.333 3 45.333 3 60c0 102 -31.167 194.833 -93.5 278.5s-131.166 125.5 -206.499 125.5c-36 0 -63.167 -9 -81.5 -27s-41.166 -57 -68.499 -117z" />
    <glyph glyph-name="meemmedialarabic" unicode="&#x645;" arabic-form="medial" 
d="M349 218c-7.33301 -12 -12.668 -21.333 -16.001 -28c-44 -80 -85.333 -131.667 -124 -155s-103.334 -35 -194.001 -35h-40v197h21c66 0 116.5 13.833 151.5 41.5s78.167 87.5 129.5 179.5l49 89l30 52c52 92.667 95.5 154.334 130.5 185.001s78.833 46 131.5 46
c120.667 0 226 -81 316 -243l18 -31c5.33301 -10 18 -35.333 38 -76c80 -162 161 -243 243 -243h25v-197h-34c-86 0 -167 41.667 -243 125c-27.333 -50 -59.166 -87.5 -95.499 -112.5s-77.166 -37.5 -122.499 -37.5c-58 0 -121.5 20.167 -190.5 60.5
s-143.5 101.166 -223.5 182.499zM441.998 408c84 -84 159.5 -149.334 226.5 -196.001s125.167 -74.667 174.5 -84c1.33301 26 2 47.333 2 64c0 86.667 -28.167 174.834 -84.5 264.501s-111.833 134.5 -166.5 134.5c-42 0 -92.667 -61 -152 -183z" />
    <glyph glyph-name="noonisoarabic" unicode="&#x646;" arabic-form="isolated" 
d="M104 302l124 0.00195312c-24 -109.333 -36 -216.333 -36 -321c0 -150 29 -262.5 87 -337.5s145.333 -112.5 262 -112.5c172.667 0 315 58 427 174c20 115.333 30 225.666 30 330.999c0 172 -19.333 316.333 -58 433h208c24 -90 36 -188.667 36 -296
c0 -134 -20 -263.833 -60 -389.5s-90.667 -217.834 -152 -276.501c-122 -116 -272.333 -174 -451 -174c-153.333 0 -270.333 47.833 -351 143.5s-121 234.167 -121 415.5c0 132 18.333 268.667 55 410zM695 1019l139 -139l-139 -140l-140 140z" />
    <glyph glyph-name="noonfinalarabic" unicode="&#x646;" arabic-form="final" 
d="M1105 251c40.667 -36 82.3359 -53.999 125.003 -53.999h28v-197h-24c-48 0 -90 13 -126 39c-12.667 -227.333 -69.334 -401.833 -170.001 -523.5s-238.334 -182.5 -413.001 -182.5c-153.333 0 -271 50.5 -353 151.5s-123 245.5 -123 433.5
c0 124.667 18.333 250.667 55 378h155c-22 -102.667 -33 -195.334 -33 -278.001c0 -162 27.167 -283.667 81.5 -365s136.166 -122 245.499 -122c82.667 0 154.5 17.167 215.5 51.5s110.833 85.833 149.5 154.5c10.667 137.333 16 234.333 16 291
c0 198.667 -43.333 395 -130 589h208c42 -114.667 73 -236.667 93 -366zM559.002 1093l139 -139l-139 -140l-140 140z" />
    <glyph glyph-name="nooninitialarabic" unicode="&#x646;" arabic-form="initial" 
d="M822 302c41.333 80.667 62 180.334 62 299.001c0 92 -14.667 187.667 -44 287h190c20.667 -91.333 31 -183.666 31 -276.999c0 -214 -68.667 -368.667 -206 -464c-84.667 -58.667 -182.667 -97.834 -294 -117.501s-290 -29.5 -536 -29.5h-50v197h57
c222 0 386.5 7.16699 493.5 21.5s205.833 42.166 296.5 83.499zM864 1365l139 -139l-139 -140l-140 140z" />
    <glyph glyph-name="noonmedialarabic" unicode="&#x646;" arabic-form="medial" 
d="M530 716l173 0.00195312v-234c0 -77.333 4.16699 -129.333 12.5 -156s27.833 -50.334 58.5 -71.001c56.667 -38.667 171.667 -58 345 -58h139v-197h-155c-180 0 -303 10.667 -369 32s-126 70 -180 146c-67.333 -59.333 -143.5 -103.833 -228.5 -133.5
s-178.833 -44.5 -281.5 -44.5h-69v197h71c117.333 0 210.5 9.66699 279.5 29s132.5 53.333 190.5 102c3.33301 23.333 5 37.666 5 42.999l4 70c3.33301 53.333 5 83 5 89v186zM617 1192l139 -139l-139 -140l-140 140z" />
    <glyph glyph-name="hehisoarabic" unicode="&#x647;" arabic-form="isolated" 
d="M625 913c153.333 -83.333 268.5 -166.5 345.5 -249.5s115.5 -165.833 115.5 -248.5c0 -126 -55 -230.833 -165 -314.5s-248 -125.5 -414 -125.5c-112.667 0 -200.667 27 -264 81s-95 129 -95 225c0 120 41 234.333 123 343s200 205 354 289zM585 691
c-75.333 -46 -135.164 -102.332 -179.497 -168.999s-66.5 -133.334 -66.5 -200.001c0 -50 19.833 -87.5 59.5 -112.5s99.5 -37.5 179.5 -37.5c61.333 0 118.166 9 170.499 27s100.166 45.333 143.499 82c5.33301 30 8 53.333 8 70c0 60 -26.333 118.333 -79 175
s-131.334 111.667 -236.001 165z" />
    <glyph glyph-name="hehfinalarabic" unicode="&#x647;" arabic-form="final" 
d="M780 1135l173 -0.000976562v-627l3 -101c0 -81.333 16.333 -136.666 49 -165.999s94.334 -44 185.001 -44h69v-197h-81c-152.667 0 -257.167 26.167 -313.5 78.5s-84.5 149.833 -84.5 292.5v35c-42 -68.667 -97 -120 -165 -154s-148.667 -51 -242 -51
c-84.667 0 -151.5 17.667 -200.5 53s-73.5 83.333 -73.5 144c0 92.667 56.667 184 170 274s283.666 179 510.999 267v196zM780 775.999c-115.333 -46.667 -215.5 -97.333 -300.5 -152s-154.5 -113 -208.5 -175c40.667 -42 98.667 -63 174 -63c68.667 0 130 13.833 184 41.5
s101 69.167 141 124.5c2.66699 19.333 4 31.333 4 36l3 57l3 66v65z" />
    <glyph glyph-name="hehinitialarabic" unicode="&#x647;" arabic-form="initial" 
d="M225 915l0.00195312 171.001c265.333 0 488.833 -70.333 670.5 -211s272.5 -313.667 272.5 -519c0 -118.667 -29.833 -207.667 -89.5 -267s-148.834 -89 -267.501 -89c-104.667 0 -216.667 34.333 -336 103c-126.667 -68.667 -257.667 -103 -393 -103h-107v197h60
c112 0 211.667 15 299 45c-58 46.667 -101.333 95.5 -130 146.5s-43 104.5 -43 160.5c0 97.333 37.667 172.666 113 225.999s181.666 80 318.999 80c-100 40.667 -198 61 -294 61zM497.002 314.001c82.667 52.667 155.333 110 218 172c2 23.333 3 43.333 3 60
c0 58 -14.333 101.5 -43 130.5s-71.667 43.5 -129 43.5c-81.333 0 -160.666 -37.667 -237.999 -113c19.333 -58 44.666 -111.5 75.999 -160.5s69 -93.167 113 -132.5zM631.001 221.001c88 -39.333 163.333 -59 226 -59c52 0 98.333 8.33301 139 25c9.33301 58 14 102 14 132
c0 122.667 -46 236 -138 340c4.66699 -40.667 7 -72.667 7 -96c0 -73.333 -17.667 -134.333 -53 -183s-100.333 -101.667 -195 -159z" />
    <glyph glyph-name="hehmedialarabic" unicode="&#x647;" arabic-form="medial" 
d="M1259 197l0.000976562 -196.999h-338c74 -47.333 129.667 -103.333 167 -168s56 -138 56 -220c0 -83.333 -28.667 -149.333 -86 -198s-135.333 -73 -234 -73c-164.667 0 -302.334 58.667 -413.001 176s-180 278.333 -208 483h-228v197h227
c15.333 170.667 64.333 330.167 147 478.5s198.667 285.833 348 412.5c141.333 -228.667 212 -422 212 -580c0 -68.667 -15 -128.834 -45 -180.501s-75 -95.167 -135 -130.5h530zM359.001 197.001h23.998c86.667 0 165.167 25 235.5 75s105.5 106 105.5 168
c0 100 -40 217.333 -120 352c-81.333 -102.667 -138.166 -193 -170.499 -271s-57.166 -186 -74.499 -324zM363.999 0.000976562c41.333 -154.667 107.333 -275.833 198 -363.5s195.334 -131.5 314.001 -131.5c26.667 0 68.667 4.66699 126 14
c-28 153.333 -94.333 271.833 -199 355.5s-238.334 125.5 -401.001 125.5h-38z" />
    <glyph glyph-name="wawisoarabic" unicode="&#x648;" arabic-form="isolated" 
d="M62 -790l106 78c257.333 186.667 436.5 326.167 537.5 418.5s185.833 193.5 254.5 303.5c-42.667 -6.66699 -91.667 -10 -147 -10c-135.333 0 -236.833 19 -304.5 57s-101.5 95 -101.5 171c0 130.667 43.333 248.667 130 354s184 158 292 158
c106 0 185.667 -41.333 239 -124s80 -206.334 80 -371.001c0 -178 -51.333 -338.167 -154 -480.5s-300 -327.166 -592 -554.499h-340zM980 191c0 120 -14.499 210.167 -43.499 270.5s-72.167 90.5 -129.5 90.5c-59.333 0 -108.5 -26.167 -147.5 -78.5
s-67.5 -130.833 -85.5 -235.5c85.333 -35.333 177.666 -53 276.999 -53c28 0 71 2 129 6z" />
    <glyph glyph-name="wawfinalarabic" unicode="&#x648;" arabic-form="final" 
d="M933 191c0 120 -14.167 210.167 -42.5 270.5s-70.5 90.5 -126.5 90.5c-58 0 -105.667 -25.5 -143 -76.5s-64 -127.5 -80 -229.5c84 -40.667 181.333 -61 292 -61c20.667 0 54 2 100 6zM361 -790h-340.999l107 78c257.333 186.667 436.5 326.167 537.5 418.5
s185.833 193.5 254.5 303.5c-42.667 -6.66699 -91.667 -10 -147 -10c-136 0 -237.833 19 -305.5 57s-101.5 95 -101.5 171c0 130.667 43.5 248.667 130.5 354s184.5 158 292.5 158c106 0 185.667 -41 239 -123s80 -204.667 80 -368l-2 -52h154v-197h-182
c-57.333 -138 -133.333 -259.167 -228 -363.5s-257.334 -246.5 -488.001 -426.5z" />
    <glyph glyph-name="alefmaksuraisoarabic" unicode="&#x649;" arabic-form="isolated" 
d="M104 691l122.999 0.000976562c-39.333 -202 -59 -355.333 -59 -460c0 -142 34.167 -253 102.5 -333s162.833 -120 283.5 -120c118 0 221.167 41.667 309.5 125s151.166 198 188.499 344h-92c-155.333 0 -264.166 19.167 -326.499 57.5s-93.5 105.5 -93.5 201.5
c0 160 60.167 304.833 180.5 434.5s254.833 194.5 403.5 194.5c23.333 0 54 -2.66699 92 -8v-184c-44 6.66699 -80 10 -108 10c-100 0 -186.167 -37.667 -258.5 -113s-108.5 -165.333 -108.5 -270c0 -45.333 9.66699 -76.333 29 -93s57.333 -26.667 114 -30l50 -3h45
c96 0 160.333 -8 193 -24s49 -48 49 -96c0 -146.667 -55.333 -297.667 -166 -453c-137.333 -194 -316 -291 -536 -291c-149.333 0 -271.166 50.167 -365.499 150.5s-141.5 230.166 -141.5 389.499c0 136.667 30.667 327 92 571z" />
    <glyph glyph-name="alefmaksurafinalarabic" unicode="&#x649;" arabic-form="final" 
d="M126 -62l123.004 0.00292969c-37.333 -178 -56 -331.667 -56 -461c0 -142.667 34.333 -251.834 103 -327.501s168.334 -113.5 299.001 -113.5c121.333 0 221.666 33.167 300.999 99.5s130 159.166 152 278.499h-94c-150.667 0 -256.834 18 -318.501 54
s-92.5 98 -92.5 186c0 140.667 52.667 268.5 158 383.5s222 172.5 350 172.5c20 0 41.667 -1.33301 65 -4l66 -7c13.333 -1.33301 23.666 -2 30.999 -2h45v-197h-36c-28.667 0 -50.667 1 -66 3l-85 10c-27.333 4 -51.333 6 -72 6c-68 0 -127.5 -31.167 -178.5 -93.5
s-76.5 -134.833 -76.5 -217.5c0 -34 10.167 -57.333 30.5 -70s60.833 -20.334 121.5 -23.001l65 -4h43c78.667 0 133.5 -9.33301 164.5 -28s46.5 -51.667 46.5 -99c0 -110.667 -43 -230 -129 -358c-64.667 -95.333 -139.834 -166.833 -225.501 -214.5
s-181.834 -71.5 -288.501 -71.5c-158.667 0 -287.5 48.333 -386.5 145s-148.5 222.667 -148.5 378c0 145.333 29.667 337 89 575z" />
    <glyph glyph-name="yehisoarabic" unicode="&#x64a;" arabic-form="isolated" 
d="M104 691l122.999 0.000976562c-39.333 -202 -59 -355.333 -59 -460c0 -142 34.167 -253 102.5 -333s162.833 -120 283.5 -120c118 0 221.167 41.667 309.5 125s151.166 198 188.499 344h-92c-155.333 0 -264.166 19.167 -326.499 57.5s-93.5 105.5 -93.5 201.5
c0 160 60.167 304.833 180.5 434.5s254.833 194.5 403.5 194.5c23.333 0 54 -2.66699 92 -8v-184c-44 6.66699 -80 10 -108 10c-100 0 -186.167 -37.667 -258.5 -113s-108.5 -165.333 -108.5 -270c0 -45.333 9.66699 -76.333 29 -93s57.333 -26.667 114 -30l50 -3h45
c96 0 160.333 -8 193 -24s49 -48 49 -96c0 -146.667 -55.333 -297.667 -166 -453c-137.333 -194 -316 -291 -536 -291c-149.333 0 -271.166 50.167 -365.499 150.5s-141.5 230.166 -141.5 389.499c0 136.667 30.667 327 92 571zM333.999 -567.999l139 -139l-139 -140
l-140 140zM735.999 -567.999l139 -139l-139 -140l-140 140z" />
    <glyph glyph-name="yehfinalarabic" unicode="&#x64a;" arabic-form="final" 
d="M126 -62l123.004 0.00292969c-37.333 -178 -56 -331.667 -56 -461c0 -142.667 34.333 -251.834 103 -327.501s168.334 -113.5 299.001 -113.5c121.333 0 221.666 33.167 300.999 99.5s130 159.166 152 278.499h-94c-150.667 0 -256.834 18 -318.501 54
s-92.5 98 -92.5 186c0 140.667 52.667 268.5 158 383.5s222 172.5 350 172.5c20 0 41.667 -1.33301 65 -4l66 -7c13.333 -1.33301 23.666 -2 30.999 -2h45v-197h-36c-28.667 0 -50.667 1 -66 3l-85 10c-27.333 4 -51.333 6 -72 6c-68 0 -127.5 -31.167 -178.5 -93.5
s-76.5 -134.833 -76.5 -217.5c0 -34 10.167 -57.333 30.5 -70s60.833 -20.334 121.5 -23.001l65 -4h43c78.667 0 133.5 -9.33301 164.5 -28s46.5 -51.667 46.5 -99c0 -110.667 -43 -230 -129 -358c-64.667 -95.333 -139.834 -166.833 -225.501 -214.5
s-181.834 -71.5 -288.501 -71.5c-158.667 0 -287.5 48.333 -386.5 145s-148.5 222.667 -148.5 378c0 145.333 29.667 337 89 575zM717.004 -1234l139 -139l-139 -140l-140 140zM1119 -1234l139 -139l-139 -140l-140 140z" />
    <glyph glyph-name="yehinitialarabic" unicode="&#x64a;" arabic-form="initial" 
d="M822 302c41.333 80.667 62 180.334 62 299.001c0 92 -14.667 187.667 -44 287h190c20.667 -91.333 31 -183.666 31 -276.999c0 -214 -68.667 -368.667 -206 -464c-84.667 -58.667 -182.667 -97.834 -294 -117.501s-290 -29.5 -536 -29.5h-50v197h57
c222 0 386.5 7.16699 493.5 21.5s205.833 42.166 296.5 83.499zM223 -198l139 -139l-139 -140l-140 140zM625 -198l139 -139l-139 -140l-140 140z" />
    <glyph glyph-name="yehmedialarabic" unicode="&#x64a;" arabic-form="medial" 
d="M530 716l173 0.00195312v-234c0 -77.333 4.16699 -129.333 12.5 -156s27.833 -50.334 58.5 -71.001c56.667 -38.667 171.667 -58 345 -58h139v-197h-155c-180 0 -303 10.667 -369 32s-126 70 -180 146c-67.333 -59.333 -143.5 -103.833 -228.5 -133.5
s-178.833 -44.5 -281.5 -44.5h-69v197h71c117.333 0 210.5 9.66699 279.5 29s132.5 53.333 190.5 102c3.33301 23.333 5 37.666 5 42.999l4 70c3.33301 53.333 5 83 5 89v186zM416 -197.998l139 -139l-139 -140l-140 140zM818 -197.998l139 -139l-139 -140l-140 140z" />
    <glyph glyph-name="lamalefmaddaabvarabic" unicode="&#xfef5;" arabic-form="isolated" 
d="M186 0l0.000976562 196.999c99.333 54 189.166 116.667 269.499 188s150.833 151.333 211.5 240c-24 42.667 -70 118.667 -138 228l-129 209l-164 258c-86 136.667 -148.333 231.334 -187 284.001h196c16.667 -27.333 26.334 -43 29.001 -47l85 -128
c57.333 -86 135.666 -212 234.999 -378l98 -165l63 -105c23.333 99.333 35 217.333 35 354v543h173v-520c0 -96.667 -9.16699 -188.334 -27.5 -275.001s-45.833 -168.667 -82.5 -246c90.667 -170 136 -291.333 136 -364c0 -91.333 -44.833 -159.666 -134.5 -204.999
s-224.167 -68 -403.5 -68h-265zM839.001 244.999c-13.333 61.333 -44.666 141.001 -93.999 239.001c-43.333 -56 -82 -100 -116 -132l-109 -102c-9.33301 -8.66699 -30.333 -30.334 -63 -65.001h45c135.333 0 247.666 20 336.999 60zM-94.999 1724l0.000976562 89
c66 92.667 122 139 168 139c21.333 0 51.666 -6.33301 90.999 -19l48 -15l42 -13c53.333 -16.667 90.333 -25 111 -25c30.667 0 82.667 29 156 87v-88c-66 -93.333 -122 -140 -168 -140c-20 0 -50.333 6.33301 -91 19l-48 16l-42 13l-39 10
c-33.333 9.33301 -57.333 14 -72 14c-30 0 -82 -29 -156 -87z" />
    <glyph glyph-name="lamalefmaddabvfinlarabic" unicode="&#xfef6;" arabic-form="final" 
d="M1018 1678l0.00195312 -1196c0 -116.667 11.833 -193.334 35.5 -230.001s72.5 -55 146.5 -55h59v-197h-41c-138.667 0 -235 30.833 -289 92.5s-81 172.167 -81 331.5c-42.667 -58.667 -103 -123.334 -181 -194.001s-173.667 -147.334 -287 -230.001h-380l65 38
c217.333 128 388.333 238.667 513 332c-28 238 -90 459.833 -186 665.5s-226 395.167 -390 568.5h276c113.333 -156.667 206.666 -328 279.999 -514s126.666 -386.667 159.999 -602c52.667 64 87.167 125.5 103.5 184.5s24.5 150.833 24.5 275.5v730h172zM-140.998 1724
l0.000976562 89c66 92.667 122 139 168 139c21.333 0 51.666 -6.33301 90.999 -19l48 -15l42 -13c53.333 -16.667 90.333 -25 111 -25c30.667 0 82.667 29 156 87v-88c-66 -93.333 -122 -140 -168 -140c-20 0 -50.333 6.33301 -91 19l-48 16l-42 13l-39 10
c-33.333 9.33301 -57.333 14 -72 14c-30 0 -82 -29 -156 -87z" />
    <glyph glyph-name="lamalefhamzaabvarabic" unicode="&#xfef7;" arabic-form="isolated" 
d="M186 0l0.000976562 196.999c99.333 54 189.166 116.667 269.499 188s150.833 151.333 211.5 240c-24 42.667 -70 118.667 -138 228l-129 209l-164 258c-86 136.667 -148.333 231.334 -187 284.001h196c16.667 -27.333 26.334 -43 29.001 -47l85 -128
c57.333 -86 135.666 -212 234.999 -378l98 -165l63 -105c23.333 99.333 35 217.333 35 354v543h173v-520c0 -96.667 -9.16699 -188.334 -27.5 -275.001s-45.833 -168.667 -82.5 -246c90.667 -170 136 -291.333 136 -364c0 -91.333 -44.833 -159.666 -134.5 -204.999
s-224.167 -68 -403.5 -68h-265zM839.001 244.999c-13.333 61.333 -44.666 141.001 -93.999 239.001c-43.333 -56 -82 -100 -116 -132l-109 -102c-9.33301 -8.66699 -30.333 -30.334 -63 -65.001h45c135.333 0 247.666 20 336.999 60zM-94.999 1690v103.998l312 89
c-75.333 30.667 -131.833 63.334 -169.5 98.001s-56.5 71.667 -56.5 111.001c0 65.333 40.167 122.5 120.5 171.5s184.5 79.833 312.5 92.5v-123c-61.333 -4.66699 -119.333 -17.334 -174 -38.001s-105.667 -49 -153 -85c43.333 -41.333 90.5 -76.666 141.5 -105.999
s105.833 -52.333 164.5 -69v-104z" />
    <glyph glyph-name="lamalefhamzabvfinlarabic" unicode="&#xfef8;" arabic-form="final" 
d="M1018 1678l0.00195312 -1196c0 -116.667 11.833 -193.334 35.5 -230.001s72.5 -55 146.5 -55h59v-197h-41c-138.667 0 -235 30.833 -289 92.5s-81 172.167 -81 331.5c-42.667 -58.667 -103 -123.334 -181 -194.001s-173.667 -147.334 -287 -230.001h-380l65 38
c217.333 128 388.333 238.667 513 332c-28 238 -90 459.833 -186 665.5s-226 395.167 -390 568.5h276c113.333 -156.667 206.666 -328 279.999 -514s126.666 -386.667 159.999 -602c52.667 64 87.167 125.5 103.5 184.5s24.5 150.833 24.5 275.5v730h172zM-93.998 1690
v103.997l312 89c-75.333 30.667 -131.833 63.334 -169.5 98.001s-56.5 71.667 -56.5 111.001c0 65.333 40.167 122.5 120.5 171.5s184.5 79.833 312.5 92.5v-123c-61.333 -4.66699 -119.333 -17.334 -174 -38c-54.667 -20.667 -105.667 -49 -153 -85
c43.333 -41.333 90.5 -76.666 141.5 -105.999s105.833 -52.333 164.5 -69v-104z" />
    <glyph glyph-name="lamalefhamzablwisoarabic" unicode="&#xfef9;" arabic-form="isolated" 
d="M186 0l0.000976562 196.999c99.333 54 189.166 116.667 269.499 188s150.833 151.333 211.5 240c-24 42.667 -70 118.667 -138 228l-129 209l-164 258c-86 136.667 -148.333 231.334 -187 284.001h196c16.667 -27.333 26.334 -43 29.001 -47l85 -128
c57.333 -86 135.666 -212 234.999 -378l98 -165l63 -105c23.333 99.333 35 217.333 35 354v543h173v-520c0 -96.667 -9.16699 -188.334 -27.5 -275.001s-45.833 -168.667 -82.5 -246c90.667 -170 136 -291.333 136 -364c0 -91.333 -44.833 -159.666 -134.5 -204.999
s-224.167 -68 -403.5 -68h-265zM839.001 244.999c-13.333 61.333 -44.666 141.001 -93.999 239.001c-43.333 -56 -82 -100 -116 -132l-109 -102c-9.33301 -8.66699 -30.333 -30.334 -63 -65.001h45c135.333 0 247.666 20 336.999 60zM186.001 -790v103.999l312 89
c-75.333 30.667 -131.833 63.334 -169.5 98.001s-56.5 71.667 -56.5 111c0 65.333 40.167 122.5 120.5 171.5s184.5 79.833 312.5 92.5v-123c-61.333 -4.66699 -119.333 -17.334 -174 -38.001s-105.667 -49 -153 -85c43.333 -41.333 90.5 -76.666 141.5 -105.999
s105.833 -52.333 164.5 -69v-104z" />
    <glyph glyph-name="lamalefhamzablofinarabic" unicode="&#xfefa;" arabic-form="final" 
d="M1018 1678l0.00195312 -1196c0 -116.667 11.833 -193.334 35.5 -230.001s72.5 -55 146.5 -55h59v-197h-41c-138.667 0 -235 30.833 -289 92.5s-81 172.167 -81 331.5c-42.667 -58.667 -103 -123.334 -181 -194.001s-173.667 -147.334 -287 -230.001h-380l65 38
c217.333 128 388.333 238.667 513 332c-28 238 -90 459.833 -186 665.5s-226 395.167 -390 568.5h276c113.333 -156.667 206.666 -328 279.999 -514s126.666 -386.667 159.999 -602c52.667 64 87.167 125.5 103.5 184.5s24.5 150.833 24.5 275.5v730h172zM200.002 -785.997
v103.999l312 89c-75.333 30.667 -131.833 63.334 -169.5 98.001s-56.5 71.667 -56.5 111c0 65.333 40.167 122.5 120.5 171.5s184.5 79.833 312.5 92.5v-123c-61.333 -4.66699 -119.333 -17.334 -174 -38.001s-105.667 -49 -153 -85
c43.333 -41.333 90.5 -76.666 141.5 -105.999s105.833 -52.333 164.5 -69v-104z" />
    <glyph glyph-name="lamalefisoarabic" unicode="&#xfefb;" arabic-form="isolated" 
d="M186 0l0.000976562 196.999c99.333 54 189.166 116.667 269.499 188s150.833 151.333 211.5 240c-24 42.667 -70 118.667 -138 228l-129 209l-164 258c-86 136.667 -148.333 231.334 -187 284.001h196c16.667 -27.333 26.334 -43 29.001 -47l85 -128
c57.333 -86 135.666 -212 234.999 -378l98 -165l63 -105c23.333 99.333 35 217.333 35 354v543h173v-520c0 -96.667 -9.16699 -188.334 -27.5 -275.001s-45.833 -168.667 -82.5 -246c90.667 -170 136 -291.333 136 -364c0 -91.333 -44.833 -159.666 -134.5 -204.999
s-224.167 -68 -403.5 -68h-265zM839.001 244.999c-13.333 61.333 -44.666 141.001 -93.999 239.001c-43.333 -56 -82 -100 -116 -132l-109 -102c-9.33301 -8.66699 -30.333 -30.334 -63 -65.001h45c135.333 0 247.666 20 336.999 60z" />
    <glyph glyph-name="lamaleffinalarabic" unicode="&#xfefc;" arabic-form="final" 
d="M1018 1678l0.00195312 -1196c0 -116.667 11.833 -193.334 35.5 -230.001s72.5 -55 146.5 -55h59v-197h-41c-138.667 0 -235 30.833 -289 92.5s-81 172.167 -81 331.5c-42.667 -58.667 -103 -123.334 -181 -194.001s-173.667 -147.334 -287 -230.001h-380l65 38
c217.333 128 388.333 238.667 513 332c-28 238 -90 459.833 -186 665.5s-226 395.167 -390 568.5h276c113.333 -156.667 206.666 -328 279.999 -514s126.666 -386.667 159.999 -602c52.667 64 87.167 125.5 103.5 184.5s24.5 150.833 24.5 275.5v730h172z" />
    <glyph glyph-name=".notdef" 
d="M256 0v1280h722v-1280h-722zM320 64h594v1152h-594v-1152z" />
    <glyph glyph-name="space" unicode=" " 
 />
    <glyph glyph-name="exclam" unicode="!" 
d="M542 419l-24 765v296h197v-296l-25 -765h-148zM493 0v222h247v-222h-247z" />
    <glyph glyph-name="quotedbl" unicode="&#x22;" 
d="M296 1036l-49 543h247l-50 -543h-148zM790 1036l-50 543h247l-49 -543h-148z" />
    <glyph glyph-name="numbersign" unicode="#" 
d="M170 0l112 450h-230l29 148h238l72 293h-251l29 148h259l110 441h152l-109 -441h232l109 441h153l-110 -441h228l-29 -148h-238l-72 -293h251l-29 -148h-259l-109 -450h-153l109 450h-232l-109 -450h-153zM471 598h230l73 293h-230z" />
    <glyph glyph-name="dollar" unicode="$" 
d="M583 -123v122.998c-108 0 -230.333 26.333 -367 79v169c142 -68.667 264.333 -103 367 -103v537l-73 48c-88.667 59.333 -155 121 -199 185s-66 130.667 -66 200c0 99.333 32.333 182.833 97 250.5s149 105.834 253 114.501v124h123v-124
c98.667 -6 199.667 -27.667 303 -65v-162c-96.667 48 -197.667 77.667 -303 89v-529l67 -40c91.333 -54 159.833 -112.667 205.5 -176s68.5 -131.666 68.5 -204.999c0 -104.667 -32 -192.5 -96 -263.5s-149.667 -113.833 -257 -128.5v-123h-123zM706 147.998
c57.333 12.667 100.5 37.333 129.5 74s43.5 85.667 43.5 147c0 80 -42.667 149.333 -128 208l-45 32v-461zM595 890.997l-0.000976562 439.999c-49.333 -6 -89.666 -28.667 -120.999 -68s-47 -86.666 -47 -141.999c0 -72 42 -138.667 126 -200z" />
    <glyph glyph-name="percent" unicode="%" 
d="M0 -37l1083 1554h151l-1084 -1554h-150zM299 802c-86 0 -157.167 32.001 -213.5 96.001s-84.5 145 -84.5 243c0 99.333 28.333 180.666 85 243.999s129 95 217 95s160.5 -31.667 217.5 -95s85.5 -144.333 85.5 -243c0 -100.667 -28.5 -182.5 -85.5 -245.5
s-130.833 -94.5 -221.5 -94.5zM301 901.001c47.333 0 85.333 22.002 114 66.002s43 102.333 43 175c0 71.333 -14.333 129.166 -43 173.499s-66 66.5 -112 66.5s-83.167 -22.167 -111.5 -66.5s-42.5 -102.5 -42.5 -174.5c0 -70.667 14.167 -128.334 42.5 -173.001
s64.833 -67 109.5 -67zM928 0.00292969c-86.667 0 -158.167 32 -214.5 96s-84.5 145.333 -84.5 244s28.333 179.834 85 243.501s129 95.5 217 95.5s160.5 -31.833 217.5 -95.5s85.5 -144.834 85.5 -243.501c0 -100.667 -28.5 -182.5 -85.5 -245.5s-130.5 -94.5 -220.5 -94.5
zM929 99.0029c47.333 0 85.333 21.999 114 65.999s43 102.667 43 176c0 70.667 -14.333 128.167 -43 172.5s-66 66.5 -112 66.5s-83.167 -22.167 -111.5 -66.5s-42.5 -102.166 -42.5 -173.499s14.167 -129.333 42.5 -174s64.833 -67 109.5 -67z" />
    <glyph glyph-name="ampersand" unicode="&#x26;" 
d="M962 0l-74 88.9971c-108.667 -84 -236 -126 -382 -126c-139.333 0 -254.5 44.167 -345.5 132.5s-136.5 199.833 -136.5 334.5c0 99.333 29.167 186.333 87.5 261s146.166 137.334 263.499 188.001c-59.333 130 -89 234.667 -89 314c0 96 30.167 174 90.5 234
s138.833 90 235.5 90c92 0 167 -26.5 225 -79.5s87 -121.833 87 -206.5c0 -74.667 -26.167 -145.334 -78.5 -212.001s-130.5 -129.667 -234.5 -189c76.667 -149.333 188 -312.666 334 -489.999c30.667 46 53.834 100 69.501 162s23.5 132 23.5 210l-2 76h198
c-7.33301 -123.333 -27.5 -232.166 -60.5 -326.499s-78.833 -174.166 -137.5 -239.499c62.667 -74.667 128.667 -148.667 198 -222h-272zM801 202.997c-157.333 191.333 -279.668 375.667 -367.001 553c-136.667 -67.333 -205 -162.333 -205 -285
c0 -100 30.333 -185 91 -255s134.334 -105 221.001 -105c84 0 170.667 30.667 260 92zM551.998 960.998c63.333 30 110.833 66.332 142.5 108.999s47.5 91.667 47.5 147c0 50.667 -10.667 88.667 -32 114s-53 38 -95 38c-36.667 0 -68 -15.167 -94 -45.5
s-39 -67.166 -39 -110.499c0 -62 23.333 -146 70 -252z" />
    <glyph glyph-name="quotesingle" unicode="'" 
d="M543 962l-74 617h296l-74 -617h-148z" />
    <glyph glyph-name="parenleft" unicode="(" 
d="M1085 -296c-216.667 24 -394.168 123.498 -532.501 298.498s-207.5 388.167 -207.5 639.5c0 250.667 69.167 463.5 207.5 638.5s315.833 274.5 532.5 298.5v-136c-174 -35.333 -308 -122.166 -402 -260.499s-141 -318.5 -141 -540.5
c0 -222.667 46.833 -403.167 140.5 -541.5s227.834 -225.166 402.501 -260.499v-136z" />
    <glyph glyph-name="parenright" unicode=")" 
d="M148 -296c216.667 24 394.168 123.498 532.501 298.498s207.5 388.167 207.5 639.5c0 250.667 -69.167 463.5 -207.5 638.5s-315.833 274.5 -532.5 298.5v-136c174 -35.333 308 -122.166 402 -260.499s141 -318.5 141 -540.5c0 -222.667 -46.833 -403.167 -140.5 -541.5
s-227.834 -225.166 -402.501 -260.499v-136z" />
    <glyph glyph-name="asterisk" unicode="*" 
d="M703 1129l306 139.001l61 -188l-328 -68v14c0 35.333 -13 69.666 -39 102.999zM732 983.001l226 -248l-160 -116l-166 291c42 12 75.333 36.333 100 73zM601 910.001l-165 -291l-160 116l226 248c24.667 -36.667 57.667 -61 99 -73zM492 1012l-328 68l61 188l305 -139
c-25.333 -33.333 -38 -68 -38 -104v-13zM555 1147l-37 333h198l-37 -333c-23.333 8.66699 -44 13 -62 13s-38.667 -4.33301 -62 -13z" />
    <glyph glyph-name="plus" unicode="+" 
d="M542 0v456h-456v149h456v456h149v-456h456v-149h-456v-456h-149z" />
    <glyph glyph-name="comma" unicode="," 
d="M469 -321v98.999c34 4.66699 60.833 21.834 80.5 51.501s32.5 71.5 38.5 125.5l4 45h-123v296h296v-179c0 -140.667 -24.667 -247.5 -74 -320.5s-123.333 -112.167 -222 -117.5z" />
    <glyph glyph-name="hyphen" unicode="-" 
d="M210 543v148h814v-148h-814z" />
    <glyph glyph-name="period" unicode="." 
d="M469 0v296h296v-296h-296z" />
    <glyph glyph-name="slash" unicode="/" 
d="M1160 1579l-920 -1875h-165l920 1875h165z" />
    <glyph glyph-name="zero" unicode="0" 
d="M609 -37c-150 0 -270.5 71 -361.5 213s-136.5 330.333 -136.5 565c0 236.667 45.833 425.167 137.5 565.5s214.5 210.5 368.5 210.5c153.333 0 276 -70 368 -210s138 -327.667 138 -563c0 -241.333 -46 -431.833 -138 -571.5s-217.333 -209.5 -376 -209.5zM612 111
c100 0 175.168 53.001 225.501 159.001s75.5 265 75.5 477c0 207.333 -24.667 362.833 -74 466.5s-123.333 155.5 -222 155.5s-172.667 -52.333 -222 -157s-74 -261.334 -74 -470.001c0 -210.667 24.167 -368.5 72.5 -473.5s121.166 -157.5 218.499 -157.5z" />
    <glyph glyph-name="one" unicode="1" 
d="M185 0v148h395v1147l-395 -131v156l592 197v-1369h395v-148h-987z" />
    <glyph glyph-name="two" unicode="2" 
d="M168 0l0.000976562 173.001c81.333 157.333 202.666 316 363.999 476l89 89c122.667 122 184 245 184 369c0 79.333 -23.5 142.833 -70.5 190.5s-109.833 71.5 -188.5 71.5c-95.333 0 -209 -34.667 -341 -104v174c122.667 52 243 78 361 78
c134.667 0 243.167 -36.833 325.5 -110.5s123.5 -170.834 123.5 -291.501c0 -144 -83.333 -294 -250 -450l-84 -79c-154.667 -144 -247.667 -281.667 -279 -413h605v-173h-839z" />
    <glyph glyph-name="three" unicode="3" 
d="M234 7l0.00195312 174c134 -46.667 237.667 -70 311 -70c88 0 159.333 27.667 214 83s82 127.333 82 216c0 104 -31.333 182 -94 234s-156.334 78 -281.001 78h-96v142h57c132.667 0 229.334 22.5 290.001 67.5s91 116.833 91 215.5c0 68 -21 122 -63 162s-99 60 -171 60
c-100.667 0 -207 -27 -319 -81v173c108.667 38 218.667 57 330 57c131.333 0 234.333 -30 309 -90s112 -142.667 112 -248c0 -82.667 -22.333 -155 -67 -217s-111.334 -113.667 -200.001 -155c104 -36 182 -87.167 234 -153.5s78 -147.833 78 -244.5
c0 -138 -46.333 -247 -139 -327s-218.334 -120 -377.001 -120c-94.667 0 -195 14.667 -301 44z" />
    <glyph glyph-name="four" unicode="4" 
d="M728 0v395h-617v166l617 919h185v-937h197v-148h-197v-395h-185zM277 543h451v672z" />
    <glyph glyph-name="five" unicode="5" 
d="M270 8l0.000976562 169c112.667 -44 203 -66 271 -66c81.333 0 148.166 31.667 200.499 95s78.5 144 78.5 242c0 110 -36.167 192.5 -108.5 247.5s-180.833 82.5 -325.5 82.5c-24.667 0 -54 -1.33301 -88 -4v706h694v-172h-528v-384c174.667 0 312.667 -44 414 -132
s152 -207.667 152 -359c0 -135.333 -46 -247.5 -138 -336.5s-207.667 -133.5 -347 -133.5c-77.333 0 -169 15 -275 45z" />
    <glyph glyph-name="six" unicode="6" 
d="M1042 1462l0.00195312 -169.001c-118 51.333 -212 77 -282 77c-124.667 0 -221 -53.333 -289 -160s-102 -257.667 -102 -453c43.333 63.333 93.166 110.833 149.499 142.5s119.166 47.5 188.499 47.5c116 0 214.333 -44.833 295 -134.5s121 -199.167 121 -328.5
c0 -152 -43.833 -276.833 -131.5 -374.5s-199.5 -146.5 -335.5 -146.5c-159.333 0 -281.5 64.167 -366.5 192.5s-127.5 313.5 -127.5 555.5c0 244.667 52.667 440.334 158 587.001s246 220 422 220c80.667 0 180.667 -18.667 300 -56zM674.002 110.999
c78 0 140.333 30.501 187 91.501s70 142.167 70 243.5c0 106.667 -24.833 193.167 -74.5 259.5s-114.834 99.5 -195.501 99.5c-81.333 0 -146.166 -29 -194.499 -87s-72.5 -135.333 -72.5 -232c0 -112.667 25.667 -203.334 77 -272.001s119 -103 203 -103z" />
    <glyph glyph-name="seven" unicode="7" 
d="M281 0c12 106.667 35.667 202 71 286s117 239 245 465l309 544h-705v185h892v-166l-48 -80c-159.333 -268 -283 -504.833 -371 -710.5s-140.667 -380.167 -158 -523.5h-235z" />
    <glyph glyph-name="eight" unicode="8" 
d="M437 806c-67.333 49.333 -117.834 102.333 -151.501 159s-50.5 117 -50.5 181c0 113.333 38.5 203.5 115.5 270.5s180.5 100.5 310.5 100.5c120.667 0 214.334 -28 281.001 -84s100 -134.333 100 -235c0 -75.333 -21.667 -145 -65 -209s-108 -122 -194 -174
c119.333 -72 202.333 -139.167 249 -201.5s70 -136.833 70 -223.5c0 -124 -45.333 -226.167 -136 -306.5s-206 -120.5 -346 -120.5c-136.667 0 -247.5 37.833 -332.5 113.5s-127.5 174.167 -127.5 295.5c0 88.667 23 169.167 69 241.5s115.333 136.5 208 192.5zM541.999 726
c-62.667 -51.333 -109.667 -104.332 -141 -158.999s-47 -111 -47 -169c0 -85.333 26.333 -154.5 79 -207.5s121 -79.5 205 -79.5c75.333 0 138.5 22.667 189.5 68s76.5 101.666 76.5 168.999c0 108.667 -76.667 208.667 -230 300zM671.999 882.001
c64 40.667 112.167 84.666 144.5 131.999s48.5 98 48.5 152c0 60.667 -20.5 109.667 -61.5 147s-94.833 56 -161.5 56c-67.333 0 -121.333 -17.667 -162 -53s-61 -82.666 -61 -141.999c0 -93.333 66.333 -180 199 -260z" />
    <glyph glyph-name="nine" unicode="9" 
d="M230 15l-0.000976562 169c124 -48.667 219.333 -73 286 -73c122.667 0 217.834 53.667 285.501 161s101.5 258 101.5 452c-87.333 -126.667 -200.333 -190 -339 -190c-116 0 -214.167 44.833 -294.5 134.5s-120.5 198.834 -120.5 327.501c0 152 43.667 276.833 131 374.5
s199 146.5 335 146.5c160 0 282.333 -64 367 -192s127 -313 127 -555c0 -244.667 -52.5 -440.334 -157.5 -587.001s-244.833 -220 -419.5 -220c-77.333 0 -178 17.333 -302 52zM596.999 1369c-77.333 0 -139.501 -30.5 -186.501 -91.5s-70.5 -142.167 -70.5 -243.5
c0 -106.667 25 -193 75 -259s115.333 -99 196 -99s145.334 29 194.001 87s73 135.333 73 232c0 112 -25.833 202.333 -77.5 271s-119.5 103 -203.5 103z" />
    <glyph glyph-name="colon" unicode=":" 
d="M469 790v296h296v-296h-296zM469 0v296h296v-296h-296z" />
    <glyph glyph-name="semicolon" unicode=";" 
d="M469 -321l-0.000976562 99c36.667 4.66699 65.334 25.5 86.001 62.5s33 90.167 37 159.5h-123v296h296v-179c0 -140.667 -24.667 -247.5 -74 -320.5s-123.333 -112.167 -222 -117.5zM468.999 790v296h296v-296h-296z" />
    <glyph glyph-name="less" unicode="&#x3c;" 
d="M1147 0l-1061 530l1061 531v-166l-730 -365l730 -364v-166z" />
    <glyph glyph-name="equal" unicode="=" 
d="M86 284v148h1061v-148h-1061zM86 629v148h1061v-148h-1061z" />
    <glyph glyph-name="greater" unicode="&#x3e;" 
d="M86 0l1061 530l-1061 531v-166l730 -365l-730 -364v-166z" />
    <glyph glyph-name="question" unicode="?" 
d="M419 0v222h246v-222h-246zM443 419l0.00195312 27.999c0 80 18.5 155.333 55.5 226s92.5 136.667 166.5 198l70 58c96 79.333 144 157.333 144 234c0 68.667 -28.167 120.334 -84.5 155.001s-140.5 52 -252.5 52c-74.667 0 -151.334 -10 -230.001 -30v-170h-148v289
c135.333 38.667 272.666 58 411.999 58c170 0 297.5 -27.167 382.5 -81.5s127.5 -135.833 127.5 -244.5c0 -113.333 -64 -222 -192 -326l-99 -80c-51.333 -42 -89.833 -87.5 -115.5 -136.5s-38.5 -101.833 -38.5 -158.5v-71h-198z" />
    <glyph glyph-name="at" unicode="@" 
d="M963 33c-122 -46.667 -228.334 -69.998 -319.001 -69.998c-168 0 -305 68 -411 204s-159 311.667 -159 527c0 240.667 59.833 438.167 179.5 592.5s273.167 231.5 460.5 231.5c132 0 231.167 -37 297.5 -111s99.5 -184.667 99.5 -332v-656h123v-123h-271v332
c-38.667 -114.667 -82 -200.667 -130 -258s-101 -86 -159 -86c-63.333 0 -115.333 34.667 -156 104s-61 158.666 -61 267.999c0 151.333 36.667 279.166 110 383.499s163 156.5 269 156.5c36 0 78.333 -10.667 127 -32c-12.667 76.667 -40.667 134.167 -84 172.5
s-101.666 57.5 -174.999 57.5c-135.333 0 -249.5 -67.833 -342.5 -203.5s-139.5 -302.167 -139.5 -499.5c0 -176.667 41.333 -321.667 124 -435s188.667 -170 318 -170c86 0 185.667 27.667 299 83v-136zM962.999 876.002v173c-42 27.333 -81 41 -117 41
c-74 0 -132.667 -37 -176 -111s-65 -174.333 -65 -301c0 -82.667 7.5 -144.667 22.5 -186s37.5 -62 67.5 -62c37.333 0 81.5 42.5 132.5 127.5s96.167 191.167 135.5 318.5z" />
    <glyph glyph-name="A" unicode="A" 
d="M12 0l506 1480h197l506 -1480h-209l-143 419h-544l-143 -419h-170zM375 568h444l-222 648z" />
    <glyph glyph-name="B" unicode="B" 
d="M185 0l-0.00195312 1480h414c154.667 0 268.334 -26.667 341.001 -80s109 -137 109 -251c0 -82.667 -24.5 -155.667 -73.5 -219s-122.5 -116.666 -220.5 -159.999c118.667 -32.667 207.834 -82.334 267.501 -149.001s89.5 -150 89.5 -250
c0 -119.333 -45.667 -214.666 -137 -285.999c-43.333 -33.333 -92.5 -55.833 -147.5 -67.5s-140.167 -17.5 -255.5 -17.5h-387zM381.998 826.999l69 0.000976562c132.667 0 232.167 23 298.5 69s99.5 115.333 99.5 208c0 81.333 -29 139.666 -87 174.999s-154 53 -288 53
h-92v-505zM381.998 148h177.999c124.667 0 212.834 18 264.501 54s77.5 97.333 77.5 184c0 96 -40.833 172.833 -122.5 230.5s-190.167 86.5 -325.5 86.5h-72v-555z" />
    <glyph glyph-name="C" unicode="C" 
d="M1155 34c-130.667 -47.333 -254.667 -71 -372 -71c-208 0 -373.5 69 -496.5 207s-184.5 324.333 -184.5 559c0 240 60.667 431.5 182 574.5s284 214.5 488 214.5c114 0 236 -19.333 366 -58v-182c-132 60.667 -254 91 -366 91c-138.667 0 -250 -58.333 -334 -175
s-126 -271 -126 -463c0 -184 47.5 -331.167 142.5 -441.5s221.167 -165.5 378.5 -165.5c90 0 197.333 24 322 72v-162z" />
    <glyph glyph-name="D" unicode="D" 
d="M130 0l0.000976562 1480h387c213.333 0 373.333 -59.667 480 -179s160 -298.333 160 -537c0 -254.667 -57.833 -445.667 -173.5 -573s-288.834 -191 -519.501 -191h-334zM327.001 148h99c186.667 0 320.167 46.5 400.5 139.5s120.5 247.167 120.5 462.5
c0 235.333 -53 400 -159 494c-67.333 59.333 -190.333 89 -369 89l-92 -1v-1184z" />
    <glyph glyph-name="E" unicode="E" 
d="M216 0v1480h867v-148h-670v-475h568v-148h-568v-561h716v-148h-913z" />
    <glyph glyph-name="F" unicode="F" 
d="M247 0v1480h913v-148h-716v-534h611v-148h-611v-650h-197z" />
    <glyph glyph-name="G" unicode="G" 
d="M1129 33c-140 -46.667 -261.001 -70 -363.001 -70c-213.333 0 -381.5 69.167 -504.5 207.5s-184.5 327.166 -184.5 566.499c0 238.667 61.333 428.334 184 569.001s288 211 496 211c106 0 225 -18.333 357 -55v-182c-122.667 59.333 -243.667 89 -363 89
c-141.333 0 -254 -58.167 -338 -174.5s-126 -272.833 -126 -469.5c0 -180 47.333 -325.333 142 -436s219.334 -166 374.001 -166c33.333 0 76.333 4.66699 129 14v500h197v-604z" />
    <glyph glyph-name="H" unicode="H" 
d="M148 0v1480h197v-629h543v629h198v-1480h-198v703h-543v-703h-197z" />
    <glyph glyph-name="I" unicode="I" 
d="M173 0v148h345v1184h-345v148h888v-148h-345v-1184h345v-148h-888z" />
    <glyph glyph-name="J" unicode="J" 
d="M197 11v167l66 -22c91.333 -30 164.333 -45 219 -45c93.333 0 158.666 24.5 195.999 73.5s56 134.833 56 257.5v890h-444v148h641v-933c0 -130.667 -7.66699 -227.5 -23 -290.5s-44.666 -118.5 -87.999 -166.5c-76 -84.667 -184.333 -127 -325 -127
c-76.667 0 -176 16 -298 48z" />
    <glyph glyph-name="K" unicode="K" 
d="M170 0v1480h197v-727l537 727h199l-518 -703l617 -777h-236l-599 753v-753h-197z" />
    <glyph glyph-name="L" unicode="L" 
d="M222 0v1480h197v-1332h691v-148h-888z" />
    <glyph glyph-name="M" unicode="M" 
d="M94 0v1480h237l283 -845l278 845h247v-1480h-161v1305l-291 -910h-166l-290 886v-1281h-137z" />
    <glyph glyph-name="N" unicode="N" 
d="M148 0v1480h186l589 -1126h2v1126h161v-1480h-182l-593 1133h-3v-1133h-160z" />
    <glyph glyph-name="O" unicode="O" 
d="M609 -37c-167.333 0 -300.333 70.168 -399 210.501s-148 329.166 -148 566.499c0 240 49.667 429.5 149 568.5s234.666 208.5 405.999 208.5c170.667 0 305.834 -69.5 405.501 -208.5s149.5 -327.167 149.5 -564.5c0 -244 -49.833 -435.167 -149.5 -573.5
s-237.5 -207.5 -413.5 -207.5zM612 111.001c116.667 0 204.332 52.833 262.999 158.5s88 264.167 88 475.5c0 208 -28.833 364 -86.5 468s-144.167 156 -259.5 156s-201.666 -52.333 -258.999 -157s-86 -261.667 -86 -471c0 -210 28.333 -367.5 85 -472.5
s141.667 -157.5 255 -157.5z" />
    <glyph glyph-name="P" unicode="P" 
d="M228 0v1480h417c182 0 312.833 -30.833 392.5 -92.5s119.5 -163.167 119.5 -304.5c0 -154 -52 -274.333 -156 -361s-248 -130 -432 -130h-144v-592h-197zM425 740h122.999c132.667 0 232.334 28.667 299.001 86s100 143.333 100 258c0 82.667 -27.167 144.667 -81.5 186
s-135.833 62 -244.5 62h-196v-592z" />
    <glyph glyph-name="Q" unicode="Q" 
d="M1104 -321c-72.667 30.667 -143.831 69.835 -213.498 117.502s-138.167 103.5 -205.5 167.5l-66 -1c-172 0 -307.833 69.5 -407.5 208.5s-149.5 328.5 -149.5 568.5s49.667 429.5 149 568.5s234.666 208.5 405.999 208.5s306.666 -69.667 405.999 -209s149 -329 149 -569
c0 -169.333 -26.167 -314.5 -78.5 -435.5s-130.5 -217.833 -234.5 -290.5c59.333 -40.667 120.333 -75.334 183 -104.001s126.667 -51.334 192 -68.001zM272.003 749.001c0 -212.667 28.8311 -372.167 86.498 -478.5s144.167 -159.5 259.5 -159.5
c114.667 0 200.834 52.5 258.501 157.5s86.5 262.5 86.5 472.5c0 209.333 -28.833 366.333 -86.5 471s-144.167 157 -259.5 157s-201.666 -51.667 -258.999 -155s-86 -258.333 -86 -465z" />
    <glyph glyph-name="R" unicode="R" 
d="M184 0v1480h359c140.667 0 242.334 -13.667 305.001 -41c57.333 -24.667 103.666 -66.334 138.999 -125.001s53 -123.334 53 -194.001c0 -92.667 -24.833 -174.834 -74.5 -246.501s-124.167 -132.5 -223.5 -182.5l461 -691h-239l-405 633h-178v-633h-197zM381 781.003
h104.001c103.333 0 186.666 29.667 249.999 89s95 137.333 95 234c0 82 -25.167 140.5 -75.5 175.5s-134.5 52.5 -252.5 52.5h-121v-551z" />
    <glyph glyph-name="S" unicode="S" 
d="M164 34l0.00195312 194.999c173.333 -78.667 322 -118 446 -118c91.333 0 165.666 23.833 222.999 71.5s86 109.5 86 185.5c0 94.667 -58.667 172.667 -176 234l-287 150c-188 98.667 -282 225.334 -282 380.001c0 119.333 40.167 213.333 120.5 282
s190.166 103 329.499 103c113.333 0 242 -20 386 -60v-171c-144 55.333 -271.333 83 -382 83c-90 0 -157.5 -17.167 -202.5 -51.5s-67.5 -85.5 -67.5 -153.5c0 -91.333 66 -171 198 -239l268 -139c195.333 -101.333 293 -230 293 -386
c0 -133.333 -47.5 -239.5 -142.5 -318.5s-223.167 -118.5 -384.5 -118.5c-108.667 0 -250.667 23.667 -426 71z" />
    <glyph glyph-name="T" unicode="T" 
d="M518 0v1332h-493v148h1184v-148h-493v-1332h-198z" />
    <glyph glyph-name="U" unicode="U" 
d="M153 1480h197v-982c0 -136.667 21.5 -235.334 64.5 -296.001s112.833 -91 209.5 -91c100.667 0 173.334 30.5 218.001 91.5s67 161.167 67 300.5v977h172v-948c0 -161.333 -19 -276.666 -57 -345.999c-80.667 -148.667 -214.334 -223 -401.001 -223
c-156.667 0 -274.167 44.833 -352.5 134.5s-117.5 224.167 -117.5 403.5v979z" />
    <glyph glyph-name="V" unicode="V" 
d="M512 0l-498 1480h208l410 -1217l419 1217h168l-509 -1480h-198z" />
    <glyph glyph-name="W" unicode="W" 
d="M207 0l-191 1480h168l157 -1272l187 878h190l183 -863l166 1257h150l-211 -1480h-214l-178 832l-179 -832h-228z" />
    <glyph glyph-name="X" unicode="X" 
d="M11 0l499 756l-456 724h233l349 -553l365 553h192l-464 -702l490 -778h-234l-381 606l-401 -606h-192z" />
    <glyph glyph-name="Y" unicode="Y" 
d="M519 0v624l-487 856h227l381 -670l400 670h187l-511 -856v-624h-197z" />
    <glyph glyph-name="Z" unicode="Z" 
d="M99 0v148l805 1184h-756v148h979v-148l-804 -1184h812v-148h-1036z" />
    <glyph glyph-name="bracketleft" unicode="[" 
d="M444 -296v1875h617v-148h-444v-1579h444v-148h-617z" />
    <glyph glyph-name="backslash" unicode="\" 
d="M74 1579l920 -1875h165l-920 1875h-165z" />
    <glyph glyph-name="bracketright" unicode="]" 
d="M790 -296v1875h-617v-148h444v-1579h-444v-148h617z" />
    <glyph glyph-name="asciicircum" unicode="^" 
d="M86 296l530 1184l531 -1184h-166l-365 815l-364 -815h-166z" />
    <glyph glyph-name="underscore" unicode="_" 
d="M0 -148v148h1234v-148h-1234z" />
    <glyph glyph-name="grave" unicode="`" 
d="M690 1283l-271 296h222l222 -296h-173z" />
    <glyph glyph-name="a" unicode="a" 
d="M835 131c-119.333 -100 -238.332 -150.003 -356.999 -150.003c-99.333 0 -181.166 28.333 -245.499 85s-96.5 128.334 -96.5 215.001c0 112.667 50 203.334 150 272.001s232 103 396 103h122v93c0 70.667 -18.333 123.834 -55 159.501s-91.334 53.5 -164.001 53.5
c-114.667 0 -233 -32 -355 -96v169c140 50 272.333 75 397 75c136.667 0 233.334 -27.5 290.001 -82.5s85 -149.167 85 -282.5v-455c0 -65.333 7 -109.833 21 -133.5s40 -35.5 78 -35.5c13.333 0 34.333 3.33301 63 10l18 -118c-66 -21.333 -116.333 -32 -151 -32
c-48.667 0 -89.334 12.5 -122.001 37.5s-57.334 62.5 -74.001 112.5zM804.001 258.997l-0.000976562 274.001h-59c-135.333 0 -236.666 -18.333 -303.999 -55s-101 -91.334 -101 -164.001c0 -58.667 15.833 -102.5 47.5 -131.5s79.167 -43.5 142.5 -43.5
c86 0 177.333 40 274 120z" />
    <glyph glyph-name="b" unicode="b" 
d="M173 -12l0.000976562 1591h197v-493l-12 -204h12c47.333 76 100.666 133 159.999 171s124.333 57 195 57c122.667 0 219.667 -47.5 291 -142.5s107 -224.5 107 -388.5c0 -180 -42 -325.667 -126 -437s-194 -167 -330 -167c-58.667 0 -112.667 12.333 -162 37
s-94.333 61.667 -135 111h-12l-37 -135h-148zM370.001 271c45.333 -49.333 90.501 -86.332 135.501 -110.999s89.833 -37 134.5 -37c86.667 0 153.834 38.167 201.501 114.5s71.5 183.166 71.5 320.499c0 128 -19 224 -57 288s-94.667 96 -170 96
c-56.667 0 -111.334 -17.333 -164.001 -52s-103.334 -86.667 -152.001 -156v-463z" />
    <glyph glyph-name="c" unicode="c" 
d="M1103 35c-116.667 -40 -233.666 -59.999 -350.999 -59.999c-188 0 -333.167 49.333 -435.5 148s-153.5 238.667 -153.5 420c0 178 50.5 317 151.5 417s241.167 150 420.5 150c115.333 0 231.333 -17.333 348 -52v-165c-128.667 46 -237.667 69 -327 69
c-119.333 0 -213 -37.167 -281 -111.5s-102 -176.833 -102 -307.5s36 -233.334 108 -308.001s171 -112 297 -112c97.333 0 205.666 22.333 324.999 67v-155z" />
    <glyph glyph-name="d" unicode="d" 
d="M880 0l11.999 204h-12c-48 -76.667 -101.667 -134 -161 -172s-124.333 -57 -195 -57c-122.667 0 -219.5 47.667 -290.5 143s-106.5 225 -106.5 389c0 180 42 325.5 126 436.5s194 166.5 330 166.5c58 0 111.833 -12.333 161.5 -37s94.834 -61.667 135.501 -111h12
l-12 148v469h197v-1579h-197zM879.999 814c-46 49.333 -91.499 86.333 -136.499 111s-89.5 37 -133.5 37c-86.667 0 -153.834 -38 -201.501 -114s-71.5 -183 -71.5 -321c0 -128 18.833 -223.833 56.5 -287.5s94.5 -95.5 170.5 -95.5c56 0 110.333 17.333 163 52
s103.667 86.667 153 156v462z" />
    <glyph glyph-name="e" unicode="e" 
d="M1098 43c-136.667 -45.333 -262.331 -68.002 -376.998 -68.002c-186 0 -329.167 48.167 -429.5 144.5s-150.5 233.5 -150.5 411.5c0 168.667 48.167 307.334 144.5 416.001s218.833 163 367.5 163c150 0 260.5 -45 331.5 -135s106.5 -230 106.5 -420v-63h-740
c7.33301 -123.333 44.166 -215.666 110.499 -276.999s162.166 -92 287.499 -92c106 0 222.333 25.333 349 76v-156zM357.003 639.998h524v28c0 98 -20.5 171.5 -61.5 220.5s-102.167 73.5 -183.5 73.5c-78.667 0 -142.5 -28.333 -191.5 -85s-78.167 -135.667 -87.5 -237z
" />
    <glyph glyph-name="f" unicode="f" 
d="M444 0l-0.000976562 913h-296v148h296v115c0 152 35.333 261.333 106 328s186.667 100 348 100c106.667 0 207.667 -14.333 303 -43v-156c-97.333 34 -193 51 -287 51c-101.333 0 -172.166 -19.167 -212.499 -57.5s-60.5 -105.5 -60.5 -201.5v-136h519v-148h-519v-913
h-197z" />
    <glyph glyph-name="g" unicode="g" 
d="M212 -363l21 165.999c118 -50 228 -75 330 -75c106 0 182 22 228 66s75 122.333 87 235l21 196h-12c-41.333 -75.333 -92 -131.666 -152 -168.999s-129 -56 -207 -56c-124 0 -222.5 47.167 -295.5 141.5s-109.5 221.5 -109.5 381.5c0 174 42.333 315.5 127 424.5
s194.667 163.5 330 163.5c106 0 210.333 -49.667 313 -149h12v124h173v-869c0 -140.667 -9.33301 -246.5 -28 -317.5s-53.667 -133.833 -105 -188.5c-82 -87.333 -210.333 -131 -385 -131c-102.667 0 -218.667 19 -348 57zM881 384.999l-0.00195312 427.001
c-88.667 100 -180.334 150 -275.001 150c-91.333 0 -159.666 -35.5 -204.999 -106.5s-68 -177.5 -68 -319.5c0 -121.333 19.833 -212.333 59.5 -273s99.167 -91 178.5 -91c58.667 0 113.834 17.667 165.501 53s99.834 88.666 144.501 159.999z" />
    <glyph glyph-name="h" unicode="h" 
d="M182 0l-0.000976562 1579h197v-493l-12 -204h12c45.333 76 98.833 133 160.5 171s131.5 57 209.5 57c102.667 0 179.834 -30.667 231.501 -92s77.5 -153 77.5 -275v-743h-197v689c0 85.333 -13.167 145.666 -39.5 180.999s-70.5 53 -132.5 53
c-49.333 0 -99.833 -17.833 -151.5 -53.5s-104.5 -88.834 -158.5 -159.501v-710h-197z" />
    <glyph glyph-name="i" unicode="i" 
d="M568 0v938h-395v148h592v-1086h-197zM543 1332v247h247v-247h-247z" />
    <glyph glyph-name="j" unicode="j" 
d="M148 -367l-0.00195312 165.001c102.667 -46.667 204.334 -70 305.001 -70c84 0 141.5 21.167 172.5 63.5s46.5 120.833 46.5 235.5v911h-444v148h641v-1019c0 -168.667 -33.167 -291.834 -99.5 -369.501s-171.166 -116.5 -314.499 -116.5c-96 0 -198.333 17.333 -307 52z
M646.998 1332v247h247v-247h-247z" />
    <glyph glyph-name="k" unicode="k" 
d="M213 0v1579h197v-1011l456 518h213l-429 -489l538 -597h-266l-512 568v-568h-197z" />
    <glyph glyph-name="l" unicode="l" 
d="M592 0v1431h-419v148h617v-1579h-198z" />
    <glyph glyph-name="m" unicode="m" 
d="M93 0l-0.00195312 1086h173l-13 -204h13c42 76 83.333 133 124 171s80.334 57 119.001 57c50 0 91.667 -20.667 125 -62s52.333 -96.666 57 -165.999h13c34.667 76 72.334 133 113.001 171s84.667 57 132 57c64 0 112.167 -26.333 144.5 -79s48.5 -131.334 48.5 -236.001
v-795h-173v787c0 50.667 -5.16699 88.834 -15.5 114.501s-25.833 38.5 -46.5 38.5c-31.333 0 -64 -20 -98 -60s-69 -99.667 -105 -179v-701h-173v751c0 62 -5.5 108.667 -16.5 140s-27.167 47 -48.5 47c-28.667 0 -62 -22.833 -100 -68.5s-71.333 -102.5 -100 -170.5v-699
h-173z" />
    <glyph glyph-name="n" unicode="n" 
d="M182 0l-0.000976562 1086h197l-12 -204h12c45.333 76 98.833 133 160.5 171s131.5 57 209.5 57c102.667 0 179.834 -30.667 231.501 -92s77.5 -153 77.5 -275v-743h-197v689c0 85.333 -13.167 145.666 -39.5 180.999s-70.5 53 -132.5 53
c-49.333 0 -99.833 -17.833 -151.5 -53.5s-104.5 -88.834 -158.5 -159.501v-710h-197z" />
    <glyph glyph-name="o" unicode="o" 
d="M609 -25c-154.667 0 -277.333 50.999 -368 152.999s-136 240.333 -136 415c0 176 45.667 314.5 137 415.5s216.333 151.5 375 151.5s283.667 -50.333 375 -151s137 -238.667 137 -414c0 -179.333 -45.833 -319.166 -137.5 -419.499s-219.167 -150.5 -382.5 -150.5z
M613.001 122.999c102 0 178.5 35.168 229.5 105.501s76.5 175.833 76.5 316.5c0 130 -26.667 232 -80 306s-127.333 111 -222 111s-168.667 -37 -222 -111s-80 -176.667 -80 -308c0 -130.667 26.5 -233.334 79.5 -308.001s125.833 -112 218.5 -112z" />
    <glyph glyph-name="p" unicode="p" 
d="M179 -395l0.000976562 1481h197l-12 -204h12c47.333 76 100.666 133 159.999 171s124.333 57 195 57c122.667 0 219.667 -47.5 291 -142.5s107 -224.5 107 -388.5c0 -180 -42 -325.667 -126 -437s-194 -167 -330 -167c-58.667 0 -112.667 12.333 -162 37
s-94.333 61.667 -135 111h-12l12 -148v-370h-197zM376.001 271c45.333 -49.333 90.501 -86.332 135.501 -110.999s89.833 -37 134.5 -37c86.667 0 153.834 38.167 201.501 114.5s71.5 183.166 71.5 320.499c0 128 -19 224 -57 288s-94.667 96 -170 96
c-56.667 0 -111.334 -17.333 -164.001 -52s-103.334 -86.667 -152.001 -156v-463z" />
    <glyph glyph-name="q" unicode="q" 
d="M1061 1086l-0.000976562 -1481h-197v395l12 204h-12c-48 -76.667 -101.667 -134 -161 -172s-124.333 -57 -195 -57c-122.667 0 -219.5 47.667 -290.5 143s-106.5 225 -106.5 389c0 180 42 325.5 126 436.5s194 166.5 330 166.5c58 0 111.833 -12.333 161.5 -37
s94.834 -61.667 135.501 -111h12l37 124h148zM863.999 814c-46 49.333 -91.499 86.333 -136.499 111s-89.5 37 -133.5 37c-86.667 0 -153.834 -38 -201.501 -114s-71.5 -183 -71.5 -321c0 -128 18.833 -223.833 56.5 -287.5s94.5 -95.5 170.5 -95.5
c56 0 110.333 17.333 163 52s103.667 86.667 153 156v462z" />
    <glyph glyph-name="r" unicode="r" 
d="M308 0l-0.000976562 1086h197l-12 -204h12c50 76 108.667 133 176 171s143.333 57 228 57c58.667 0 125.667 -8.33301 201 -25v-308h-148v155c-30.667 6.66699 -58.334 10 -83.001 10c-67.333 0 -132.166 -19.667 -194.499 -59s-122.166 -98 -179.499 -176v-707h-197z
" />
    <glyph glyph-name="s" unicode="s" 
d="M187 44l-0.00195312 178.001c152.667 -66 284.667 -99 396 -99c79.333 0 145.333 16.167 198 48.5s79 73.166 79 122.499c0 63.333 -62.333 115 -187 155l-211 69c-164.667 53.333 -247 147.333 -247 282c0 99.333 37.333 175.833 112 229.5s180.334 80.5 317.001 80.5
c100.667 0 218.334 -15.667 353.001 -47v-160c-130 39.333 -248 59 -354 59c-80 0 -139.833 -12 -179.5 -36s-59.5 -60 -59.5 -108c0 -54 49 -98 147 -132l249 -87c170 -59.333 255 -155 255 -287c0 -102.667 -42.5 -184.5 -127.5 -245.5s-199.167 -91.5 -342.5 -91.5
c-123.333 0 -256 23 -398 69z" />
    <glyph glyph-name="t" unicode="t" 
d="M1102 1c-98.667 -17.333 -193.667 -26.002 -285 -26.002c-161.333 0 -271 28.833 -329 86.5s-87 166.834 -87 327.501v524h-271v148h271v234h198v-234h481v-148h-481v-556c0 -62 3.83301 -104.667 11.5 -128s24.167 -43.666 49.5 -60.999c45.333 -30 110 -45 194 -45
s166.667 9.33301 248 28v-150z" />
    <glyph glyph-name="u" unicode="u" 
d="M1052 1086v-1086h-197l12 204h-12c-45.333 -76.667 -99 -134 -161 -172s-132 -57 -210 -57c-102.667 0 -179.667 30.667 -231 92s-77 153.333 -77 276v743h197v-689c0 -85.333 13.167 -145.833 39.5 -181.5s70.5 -53.5 132.5 -53.5c49.333 0 99.833 17.833 151.5 53.5
s104.5 89.167 158.5 160.5v710h197z" />
    <glyph glyph-name="v" unicode="v" 
d="M512 0l-450 1086h202l361 -870l372 870h175l-462 -1086h-198z" />
    <glyph glyph-name="w" unicode="w" 
d="M210 0l-198 1086h182l145 -855l194 756h191l184 -787l162 886h151l-217 -1086h-194l-192 816l-212 -816h-196z" />
    <glyph glyph-name="x" unicode="x" 
d="M93 0l404 549l-402 537h247l300 -401l275 401h195l-369 -536l411 -550h-246l-311 415l-305 -415h-199z" />
    <glyph glyph-name="y" unicode="y" 
d="M142 -395l-0.000976562 148h80c74.667 0 129 12 163 36s69.667 75.667 107 155l49 104l-456 1038h204l355 -813l358 813h177l-547 -1225c-42.667 -95.333 -93.667 -161.833 -153 -199.5s-143.666 -56.5 -252.999 -56.5h-84z" />
    <glyph glyph-name="z" unicode="z" 
d="M136 0v148l711 790h-686v148h919v-148l-712 -790h730v-148h-962z" />
    <glyph glyph-name="braceleft" unicode="{" 
d="M1024 1579v-147.999h-79c-99.333 0 -169.333 -12.167 -210 -36.5s-61 -66.5 -61 -126.5c0 -22 3.33301 -52.667 10 -92l23 -139c7.33301 -46.667 11 -85.334 11 -116.001c0 -72 -16.5 -131.167 -49.5 -177.5s-82.167 -80.166 -147.5 -101.499
c65.333 -22 114.5 -56.333 147.5 -103s49.5 -106 49.5 -178c0 -30.667 -3.66699 -69 -11 -115l-23 -138c-6.66699 -40 -10 -71 -10 -93c0 -60 20.333 -102.167 61 -126.5s110.667 -36.5 210 -36.5h79v-148h-109c-140.667 0 -246 24 -316 72s-105 120 -105 216
c0 40 4.66699 85 14 135l34 178c4.66699 26.667 7 53 7 79c0 61.333 -18.667 107.333 -56 138s-93.333 46 -168 46h-91v148h91c74.667 0 130.667 15.167 168 45.5s56 76.166 56 137.499c0 26 -2.33301 52.333 -7 79l-34 178c-9.33301 50 -14 95 -14 135c0 96 35 168 105 216
s175.333 72 316 72h109z" />
    <glyph glyph-name="bar" unicode="|" 
d="M543 -296v1875h148v-1875h-148z" />
    <glyph glyph-name="braceright" unicode="}" 
d="M210 1579v-147.999h79c99.333 0 169.333 -12.167 210 -36.5s61 -66.5 61 -126.5c0 -22 -3.33301 -52.667 -10 -92l-23 -139c-7.33301 -46.667 -11 -85.334 -11 -116.001c0 -72 16.5 -131.167 49.5 -177.5s82.167 -80.166 147.5 -101.499
c-65.333 -22 -114.5 -56.333 -147.5 -103s-49.5 -106 -49.5 -178c0 -30.667 3.66699 -69 11 -115l23 -138c6.66699 -40 10 -71 10 -93c0 -60 -20.333 -102.167 -61 -126.5s-110.667 -36.5 -210 -36.5h-79v-148h109c140.667 0 246 24 316 72s105 120 105 216
c0 40 -4.66699 85 -14 135l-34 178c-4.66699 26.667 -7 53 -7 79c0 61.333 18.667 107.333 56 138s93.333 46 168 46h91v148h-91c-74.667 0 -130.667 15.167 -168 45.5s-56 76.166 -56 137.499c0 26 2.33301 52.333 7 79l34 178c9.33301 50 14 95 14 135
c0 96 -35 168 -105 216s-175.333 72 -316 72h-109z" />
    <glyph glyph-name="asciitilde" unicode="~" 
d="M86 382c0 98 25.166 177.5 75.499 238.5s115.833 91.5 196.5 91.5c62.667 0 132.667 -21.667 210 -65l147 -82c74.667 -42.667 132.334 -64 173.001 -64c38 0 67.333 14.833 88 44.5s32.334 74.167 35.001 133.5h136c0 -98 -25.167 -177.5 -75.5 -238.5
s-115.833 -91.5 -196.5 -91.5c-62.667 0 -132.667 21.667 -210 65l-147 82c-74.667 42.667 -132.334 64 -173.001 64c-38.667 0 -68.167 -14.833 -88.5 -44.5s-31.833 -74.167 -34.5 -133.5h-136z" />
    <glyph glyph-name="nbspace" unicode="&#xa0;" 
 />
    <glyph glyph-name="exclamdown" unicode="&#xa1;" 
d="M690 666l25 -765v-296h-197v296l24 765h148zM493 864v222h247v-222h-247z" />
    <glyph glyph-name="cent" unicode="&#xa2;" 
d="M634 0v182c-139.333 18.667 -247 76.667 -323 174s-114 225.666 -114 384.999c0 157.333 37.5 284.5 112.5 381.5s183.167 158.5 324.5 184.5v173h123v-173c73.333 -6.66699 159 -22 257 -46v-168c-94 34.667 -179.667 57.334 -257 68.001v-837
c94 9.33301 180.333 32.666 259 69.999v-152c-74 -29.333 -160.333 -50.666 -259 -63.999v-178h-123zM634 341v811c-76 -17.333 -132.833 -60 -170.5 -128s-56.5 -161.667 -56.5 -281c0 -107.333 18.833 -194.5 56.5 -261.5s94.5 -113.833 170.5 -140.5z" />
    <glyph glyph-name="sterling" unicode="&#xa3;" 
d="M251 0l0.000976562 172.999c66 25.333 115.667 63.666 149 114.999s50 116 50 194v234h-167v148h167v215c0 146 32.333 255.5 97 328.5s161.667 109.5 291 109.5c63.333 0 134.666 -9.66699 213.999 -29v-168c-89.333 32.667 -162 49 -218 49
c-62.667 0 -109.5 -17.667 -140.5 -53s-46.5 -88.333 -46.5 -159v-293h198v-148h-198v-142c0 -91.333 -11 -163.166 -33 -215.499s-67.667 -114.166 -137 -185.499h590v-173h-816z" />
    <glyph glyph-name="currency" unicode="&#xa4;" 
d="M385 423l-185 -187l-89 90l187 185c-44 72.667 -66 149.667 -66 231s22 158.333 66 231l-187 186l89 89l185 -187c81.333 52 158.666 78 231.999 78c74 0 151.333 -26 232 -78l186 187l89 -89l-188 -186c44 -72.667 66 -149.667 66 -231s-22 -158.333 -66 -231l188 -185
l-89 -90l-186 187c-80.667 -52 -158 -78 -232 -78c-73.333 0 -150.666 26 -231.999 78zM614 493c66.667 0 123.502 24.333 170.502 73s70.5 107.667 70.5 177c0 68 -23.333 126.333 -70 175s-102.667 73 -168 73c-64.667 0 -120.334 -24.333 -167.001 -73
s-70 -107.334 -70 -176.001c0 -67.333 23.167 -125.666 69.5 -174.999s101.166 -74 164.499 -74z" />
    <glyph glyph-name="yen" unicode="&#xa5;" 
d="M516 0v265h-296v136h296v204h-296v135h293l-463 740h236l364 -580l389 580h170l-488 -740h288v-135h-296v-204h296v-136h-296v-265h-197z" />
    <glyph glyph-name="brokenbar" unicode="&#xa6;" 
d="M543 -296v740h148v-740h-148zM543 839v740h148v-740h-148z" />
    <glyph glyph-name="section" unicode="&#xa7;" 
d="M217 -255l-0.00195312 180.997c154.667 -74 286.334 -111 395.001 -111c66.667 0 122.5 17 167.5 51s67.5 76 67.5 126c0 41.333 -19.5 82.166 -58.5 122.499s-97.167 80.166 -174.5 119.499l-117 59c-88.667 44.667 -155 93.834 -199 147.501s-66 112.167 -66 175.5
c0 80 47.333 180.667 142 302c-94.667 72 -142 154.667 -142 248c0 102.667 41.833 186.834 125.5 252.501s191.167 98.5 322.5 98.5c95.333 0 193 -13.667 293 -41v-167c-106 40 -207 60 -303 60c-77.333 0 -140.166 -16 -188.499 -48s-72.5 -74 -72.5 -126
c0 -62 53.333 -119.667 160 -173l130 -65c102.667 -51.333 179.667 -106.166 231 -164.499s77 -120.5 77 -186.5c0 -97.333 -49 -199.666 -147 -306.999c55.333 -40.667 97 -84.667 125 -132s42 -97.666 42 -150.999c0 -98.667 -40.833 -180.5 -122.5 -245.5
s-184.167 -97.5 -307.5 -97.5c-108 0 -234.667 24 -380 72zM766.998 360.997c48 74.667 72.001 136 72.001 184c0 43.333 -17.333 84.833 -52 124.5s-86.334 77.167 -155.001 112.5l-75 38l-46 22l-33 17c-46 -66.667 -69 -127.667 -69 -183c0 -42.667 15.833 -83 47.5 -121
s79.167 -73.333 142.5 -106l78 -41l50 -25c8 -4 21.333 -11.333 40 -22z" />
    <glyph glyph-name="dieresis" unicode="&#xa8;" 
d="M333 1283v173h173v-173h-173zM728 1283v173h173v-173h-173z" />
    <glyph glyph-name="copyright" unicode="&#xa9;" 
d="M608 -37c-182 0 -318.5 65.5 -409.5 196.5s-136.5 327.5 -136.5 589.5c0 256 46.167 448 138.5 576s231.166 192 416.499 192c184.667 0 323.334 -64.5 416.001 -193.5s139 -322.167 139 -579.5c0 -260.667 -47 -456 -141 -586s-235 -195 -423 -195zM610 74
c146 0 255.667 55.667 329 167s110 278.666 110 501.999c0 220.667 -36 386.334 -108 497.001s-180 166 -324 166s-252 -55.667 -324 -167s-108 -278 -108 -500s35.333 -388.333 106 -499s177 -166 319 -166zM890 360c-82 -40 -160.334 -59.999 -235.001 -59.999
c-114 0 -205.333 40.333 -274 121s-103 187.667 -103 321c0 138.667 34.333 247 103 325s163.334 117 284.001 117c69.333 0 144 -13.333 224 -40v-144c-72 42.667 -147.667 64 -227 64c-78.667 0 -137.5 -26.167 -176.5 -78.5s-58.5 -130.833 -58.5 -235.5
c0 -98.667 23.333 -176.334 70 -233.001s110.667 -85 192 -85c55.333 0 122.333 19.333 201 58v-130z" />
    <glyph glyph-name="ordfeminine" unicode="&#xaa;" 
d="M756 825c-102.667 -72.667 -195.33 -109 -277.997 -109c-68.667 0 -126 21.5 -172 64.5s-69 96.833 -69 161.5c0 91.333 36.167 159.833 108.5 205.5s181.166 68.5 326.499 68.5h70v29c0 49.333 -14.167 86.5 -42.5 111.5s-70.5 37.5 -126.5 37.5
c-91.333 0 -190.333 -29.667 -297 -89v146c100 44 207.333 66 322 66s196.167 -19.833 244.5 -59.5s72.5 -106.5 72.5 -200.5v-288c0 -38.667 6 -67.5 18 -86.5s30.333 -28.5 55 -28.5c13.333 0 28.666 4 45.999 12v-115c-43.333 -23.333 -87 -35 -131 -35
c-36 0 -66.333 9 -91 27s-43.334 45.333 -56.001 82zM742.004 938v155.001h-51c-94.667 0 -165.667 -11.833 -213 -35.5s-71 -58.834 -71 -105.501c0 -69.333 38 -104 114 -104c77.333 0 151 30 221 90z" />
    <glyph glyph-name="guillemotleft" unicode="&#xab;" 
d="M560 993l96 -82l-315 -374l313 -371l-91 -80l-446 451zM998 993l96 -82l-315 -374l313 -371l-91 -80l-446 451z" />
    <glyph glyph-name="logicalnot" unicode="&#xac;" 
d="M86 642v148h1061v-494h-148v346h-913z" />
    <glyph glyph-name="sfthyphen" unicode="&#xad;" 
d="M210 543v148h814v-148h-814z" />
    <glyph glyph-name="registered" unicode="&#xae;" 
d="M612 629c-120 0 -223.169 43.6689 -309.502 131.002s-129.5 191.666 -129.5 312.999c0 123.333 43.333 228.166 130 314.499s191.334 129.5 314.001 129.5s227.334 -43.167 314.001 -129.5s130 -190.833 130 -313.5c0 -124 -43.5 -229.167 -130.5 -315.5
s-193.167 -129.5 -318.5 -129.5zM612.998 728.002c96.667 0 179.168 33.666 247.501 100.999s102.5 149 102.5 245c0 94 -34 175 -102 243s-149.333 102 -244 102s-175.834 -34 -243.501 -102s-101.5 -149.333 -101.5 -244c0 -93.333 33.667 -174.166 101 -242.499
s147.333 -102.5 240 -102.5zM443.999 814.001v531h147c66 0 115.667 -12 149 -36s50 -59.667 50 -107c0 -33.333 -8.5 -62.833 -25.5 -88.5s-42.167 -47.167 -75.5 -64.5l124 -235h-111l-114 215h-45v-215h-99zM542.999 1104h34.001c36.667 0 64.167 7.16699 82.5 21.5
s27.5 35.833 27.5 64.5c0 26 -8.33301 45.5 -25 58.5s-41.334 19.5 -74.001 19.5h-45v-164z" />
    <glyph glyph-name="overscore" unicode="&#xaf;" 
d="M0 1456v148h1234v-148h-1234z" />
    <glyph glyph-name="degree" unicode="&#xb0;" 
d="M614 1012c-80 0 -148.833 29.167 -206.5 87.5s-86.5 127.833 -86.5 208.5c0 81.333 29 151 87 209s127.667 87 209 87s151 -29 209 -87s87 -127.667 87 -209c0 -82.667 -29 -152.667 -87 -210s-128.667 -86 -212 -86zM615 1135c48.667 0 89.999 16.833 123.999 50.5
s51 74.5 51 122.5c0 47.333 -17 87.833 -51 121.5s-74.667 50.5 -122 50.5s-88 -16.833 -122 -50.5s-51 -74.167 -51 -121.5s16.833 -88 50.5 -122s73.834 -51 120.501 -51z" />
    <glyph glyph-name="plusminus" unicode="&#xb1;" 
d="M542 296v309h-456v148h456v308h149v-308h456v-148h-456v-309h-149zM86 0v148h1061v-148h-1061z" />
    <glyph glyph-name="twosuperior" unicode="&#xb2;" 
d="M302 740v140.999c44 64.667 117.333 128 220 190l74 44c76 46 123.667 78.667 143 98s29 44.333 29 75c0 35.333 -15.167 61.833 -45.5 79.5s-75.5 26.5 -135.5 26.5c-92 0 -187 -23.667 -285 -71v137c103.333 38 209.333 57 318 57c110 0 192.667 -18.5 248 -55.5
s83 -92.5 83 -166.5c0 -54.667 -15.833 -99.167 -47.5 -133.5s-97.167 -77.5 -196.5 -129.5l-78 -41c-70.667 -37.333 -119 -75.666 -145 -114.999h484v-136h-666z" />
    <glyph glyph-name="threesuperior" unicode="&#xb3;" 
d="M313 758l-0.000976562 139.002c127.333 -38.667 221.666 -58 282.999 -58c56.667 0 99.334 8.83301 128.001 26.5s43 44.167 43 79.5c0 41.333 -23.667 72.333 -71 93s-118.333 31 -213 31h-59v123h61c94 0 164.5 9.83301 211.5 29.5s70.5 49.167 70.5 88.5
c0 28 -11.667 49 -35 63s-58.333 21 -105 21c-83.333 0 -188 -24 -314 -72v137c108 38.667 220 58 336 58c98.667 0 172.834 -15.333 222.501 -46s74.5 -76.667 74.5 -138c0 -43.333 -16.333 -81.333 -49 -114s-81.334 -60.334 -146.001 -83.001
c67.333 -19.333 117.833 -45.333 151.5 -78s50.5 -72.334 50.5 -119.001c0 -70 -30.167 -124.667 -90.5 -164s-143.166 -59 -248.499 -59c-82.667 0 -183 14 -301 42z" />
    <glyph glyph-name="acute" unicode="&#xb4;" 
d="M370 1283l222 296h222l-271 -296h-173z" />
    <glyph glyph-name="micro" unicode="&#xb5;" 
d="M179 -296l-0.000976562 1382h197v-691c0 -84 12.333 -143.167 37 -177.5s67.334 -51.5 128.001 -51.5c56 0 110.5 18.167 163.5 54.5s104.167 91.166 153.5 164.499v701h197v-1086h-197l12 205h-12c-48.667 -76.667 -99.667 -134.167 -153 -172.5
s-109.333 -57.5 -168 -57.5c-57.333 0 -111 15.667 -161 47v-318h-197z" />
    <glyph glyph-name="paragraph" unicode="&#xb6;" 
d="M507 -296v1036c-127.333 28.667 -222.833 77.5 -286.5 146.5s-95.5 158.167 -95.5 267.5c0 118.667 30.833 202.667 92.5 252s166.5 74 314.5 74h469v-1776h-123v1653h-247v-1653h-124z" />
    <glyph glyph-name="middot" unicode="&#xb7;" 
d="M493 419v247h247v-247h-247z" />
    <glyph glyph-name="cedilla" unicode="&#xb8;" 
d="M611 0l97 0.000976562l-60 -109c52 0 97.167 -15.833 135.5 -47.5s57.5 -68.834 57.5 -111.501c0 -47.333 -19.167 -86.5 -57.5 -117.5s-86.833 -46.5 -145.5 -46.5c-46 0 -93.667 7 -143 21v81c30.667 -10 65.667 -15 105 -15c34 0 59.667 6.16699 77 18.5
s26 30.833 26 55.5c0 32 -15.667 56 -47 72s-78 24 -140 24z" />
    <glyph glyph-name="onesuperior" unicode="&#xb9;" 
d="M358 740v114h197v503l-185 -46v117l358 89v-663h197v-114h-567z" />
    <glyph glyph-name="ordmasculine" unicode="&#xba;" 
d="M611 716c-123.333 0 -219 34.999 -287 104.999s-102 168.667 -102 296c0 128 34.167 226.667 102.5 296s165.833 104 292.5 104c126 0 223.167 -34.667 291.5 -104s102.5 -167.666 102.5 -294.999c0 -134 -33.333 -234.5 -100 -301.5s-166.667 -100.5 -300 -100.5z
M613 838.999c70.667 0 123.833 22.668 159.5 68.001s53.5 113.666 53.5 204.999c0 94 -17.5 164.5 -52.5 211.5s-87.167 70.5 -156.5 70.5c-70 0 -122.5 -23.667 -157.5 -71s-52.5 -118 -52.5 -212c0 -90.667 17.167 -158.667 51.5 -204s85.833 -68 154.5 -68z" />
    <glyph glyph-name="guillemotright" unicode="&#xbb;" 
d="M674 993l-96 -82l315 -374l-313 -371l91 -80l446 451zM236 993l-96 -82l315 -374l-313 -371l91 -80l446 451z" />
    <glyph glyph-name="onequarter" unicode="&#xbc;" 
d="M148 740v617l-136 -34v117l309 77v-777h-173zM86 -37l778 1554h138l-778 -1554h-138zM913 0v197h-370v148l351 420h192v-444h123v-124h-123v-197h-173zM672 321h241v276z" />
    <glyph glyph-name="onehalf" unicode="&#xbd;" 
d="M158 740v617l-135 -34v117l308 77v-777h-173zM60 -37l777 1554h138l-777 -1554h-138zM664 0l-0.000976562 139c50 91.333 125 176 225 254l43 34c51.333 40.667 77 81.667 77 123c0 34.667 -11 60.667 -33 78s-55 26 -99 26c-66 0 -137 -18.667 -213 -56v135
c85.333 30 162.333 45 231 45c88 0 159.167 -20 213.5 -60s81.5 -92.667 81.5 -158c0 -42 -13.667 -82.333 -41 -121s-68 -76 -122 -112l-55 -37l-39 -26c-49.333 -34 -84.666 -76.667 -105.999 -128h381v-136h-544z" />
    <glyph glyph-name="threequarters" unicode="&#xbe;" 
d="M930 0v197h-370v156l350 412h193v-444h123v-124h-123v-197h-173zM689 321h241v275zM172 -37l777 1554h138l-777 -1554h-138zM59 875c80 -25.333 140.998 -38 182.998 -38c42.667 0 74.834 8.5 96.501 25.5s32.5 42.833 32.5 77.5c0 44 -19.333 77.167 -58 99.5
s-96.667 33.5 -174 33.5v122h28c68.667 0 120.167 9.83301 154.5 29.5s51.5 49.167 51.5 88.5c0 29.333 -10.833 51.333 -32.5 66s-54.167 22 -97.5 22c-37.333 0 -98.666 -14 -183.999 -42v128c85.333 20.667 154 31 206 31c95.333 0 167 -15.333 215 -46
s72 -76.667 72 -138c0 -46.667 -16.167 -86.667 -48.5 -120s-80.833 -60.333 -145.5 -81c65.333 -12.667 114.5 -35.167 147.5 -67.5s49.5 -74.5 49.5 -126.5c0 -69.333 -28 -124 -84 -164s-132.667 -60 -230 -60c-57.333 0 -118 9.66699 -182 29v131z" />
    <glyph glyph-name="questiondown" unicode="&#xbf;" 
d="M568 864v222h247v-222h-247zM790 666l-0.00195312 -14.998c0 -80 -18.5 -155.333 -55.5 -226s-92.167 -136.667 -165.5 -198l-70 -58c-96 -80 -144 -158 -144 -234c0 -68.667 28 -120.334 84 -155.001s140.333 -52 253 -52c74.667 0 151.334 10 230.001 30v170h148v-289
c-135.333 -38.667 -272.666 -58 -411.999 -58c-170 0 -297.5 27.167 -382.5 81.5s-127.5 135.833 -127.5 244.5c0 113.333 63.667 222 191 326l100 80c51.333 41.333 89.833 86.666 115.5 135.999s38.5 102.333 38.5 159v58h197z" />
    <glyph glyph-name="Agrave" unicode="&#xc0;" 
d="M12 0l506 1480h197l506 -1480h-209l-143 419h-544l-143 -419h-170zM375 568h444l-222 648zM641 1604l-271 296h222l222 -296h-173z" />
    <glyph glyph-name="Aacute" unicode="&#xc1;" 
d="M12 0l506 1480h197l506 -1480h-209l-143 419h-544l-143 -419h-170zM375 568h444l-222 648zM419 1604l222 296h222l-271 -296h-173z" />
    <glyph glyph-name="Acircumflex" unicode="&#xc2;" 
d="M12 0l506 1480h197l506 -1480h-209l-143 419h-544l-143 -419h-170zM375 568h444l-222 648zM727 1900l222 -296h-173l-160 185l-161 -185h-172l222 296h222z" />
    <glyph glyph-name="Atilde" unicode="&#xc3;" 
d="M12 0l506 1480h197l506 -1480h-209l-143 419h-544l-143 -419h-170zM375 568h444l-222 648zM949 1838c-8 -78 -27.3359 -136.499 -58.0029 -175.499s-72.667 -58.5 -126 -58.5c-41.333 0 -78.666 6.66699 -111.999 20l-111 46c-26 10.667 -46.667 16 -62 16
c-17.333 0 -32.166 -6.83301 -44.499 -20.5s-22.166 -34.167 -29.499 -61.5h-123c8 78 27.333 136.5 58 175.5s73 58.5 127 58.5c40.667 0 77.667 -6.66699 111 -20l111 -45c26 -10.667 46.667 -16 62 -16c16.667 0 31.167 6.66699 43.5 20s22.5 33.666 30.5 60.999h123z
" />
    <glyph glyph-name="Adieresis" unicode="&#xc4;" 
d="M12 0l506 1480h197l506 -1480h-209l-143 419h-544l-143 -419h-170zM375 568h444l-222 648zM333 1604v173h173v-173h-173zM728 1604v173h173v-173h-173z" />
    <glyph glyph-name="Aring" unicode="&#xc5;" 
d="M12 0l506 1480h197l506 -1480h-209l-143 419h-544l-143 -419h-170zM375 568h444l-222 648zM614 1482c-61.333 0 -114 22.167 -158 66.5s-66 97.833 -66 160.5s22.167 116.167 66.5 160.5s97.833 66.5 160.5 66.5c63.333 0 117 -22 161 -66s66 -97.667 66 -161
c0 -64 -22.167 -117.833 -66.5 -161.5s-98.833 -65.5 -163.5 -65.5zM615 1568c40.667 0 74.666 13.667 101.999 41s41 61 41 101c0 38.667 -13.667 71.667 -41 99s-60.666 41 -99.999 41c-38.667 0 -71.667 -13.667 -99 -41s-41 -60.666 -41 -99.999
c0 -38.667 13.5 -71.834 40.5 -99.501s59.5 -41.5 97.5 -41.5z" />
    <glyph glyph-name="AE" unicode="&#xc6;" 
d="M0 0l565 1480h582v-148h-333v-475h266v-148h-266v-561h383v-148h-580v364h-307l-138 -364h-172zM367 512h250v655z" />
    <glyph glyph-name="Ccedilla" unicode="&#xc7;" 
d="M1155 34c-130.667 -47.333 -254.667 -71 -372 -71c-208 0 -373.5 69 -496.5 207s-184.5 324.333 -184.5 559c0 240 60.667 431.5 182 574.5s284 214.5 488 214.5c114 0 236 -19.333 366 -58v-182c-132 60.667 -254 91 -366 91c-138.667 0 -250 -58.333 -334 -175
s-126 -271 -126 -463c0 -184 47.5 -331.167 142.5 -441.5s221.167 -165.5 378.5 -165.5c90 0 197.333 24 322 72v-162zM728 0l97 0.000976562l-60 -109c52 0 97.167 -15.833 135.5 -47.5s57.5 -68.834 57.5 -111.501c0 -47.333 -19.167 -86.5 -57.5 -117.5
s-86.833 -46.5 -145.5 -46.5c-46 0 -93.667 7 -143 21v81c30.667 -10 65.667 -15 105 -15c34 0 59.667 6.16699 77 18.5s26 30.833 26 55.5c0 32 -15.667 56 -47 72s-78 24 -140 24z" />
    <glyph glyph-name="Egrave" unicode="&#xc8;" 
d="M216 0v1480h867v-148h-670v-475h568v-148h-568v-561h716v-148h-913zM684 1604l-271 296h222l222 -296h-173z" />
    <glyph glyph-name="Eacute" unicode="&#xc9;" 
d="M216 0v1480h867v-148h-670v-475h568v-148h-568v-561h716v-148h-913zM487 1604l222 296h222l-271 -296h-173z" />
    <glyph glyph-name="Ecircumflex" unicode="&#xca;" 
d="M216 0v1480h867v-148h-670v-475h568v-148h-568v-561h716v-148h-913zM783 1900l222 -296h-173l-160 185l-161 -185h-172l222 296h222z" />
    <glyph glyph-name="Edieresis" unicode="&#xcb;" 
d="M216 0v1480h867v-148h-670v-475h568v-148h-568v-561h716v-148h-913zM389 1604v173h173v-173h-173zM784 1604v173h173v-173h-173z" />
    <glyph glyph-name="Igrave" unicode="&#xcc;" 
d="M173 0v148h345v1184h-345v148h888v-148h-345v-1184h345v-148h-888zM629 1604l-271 296h222l222 -296h-173z" />
    <glyph glyph-name="Iacute" unicode="&#xcd;" 
d="M173 0v148h345v1184h-345v148h888v-148h-345v-1184h345v-148h-888zM432 1604l222 296h222l-271 -296h-173z" />
    <glyph glyph-name="Icircumflex" unicode="&#xce;" 
d="M173 0v148h345v1184h-345v148h888v-148h-345v-1184h345v-148h-888zM728 1900l222 -296h-173l-160 185l-161 -185h-172l222 296h222z" />
    <glyph glyph-name="Idieresis" unicode="&#xcf;" 
d="M173 0v148h345v1184h-345v148h888v-148h-345v-1184h345v-148h-888zM333 1604v173h173v-173h-173zM728 1604v173h173v-173h-173z" />
    <glyph glyph-name="Eth" unicode="&#xd0;" 
d="M130 0l0.000976562 703h-99v148h99v629h387c213.333 0 373.333 -59.667 480 -179s160 -298.333 160 -537c0 -254.667 -57.833 -445.667 -173.5 -573s-288.834 -191 -519.501 -191h-334zM327.001 148h98.999c186 0 319.333 46.5 400 139.5s121 247.167 121 462.5
c0 235.333 -53 400 -159 494c-67.333 59.333 -190.666 89 -369.999 89l-91 -1v-481h247v-148h-247v-555z" />
    <glyph glyph-name="Ntilde" unicode="&#xd1;" 
d="M148 0v1480h186l589 -1126h2v1126h161v-1480h-182l-593 1133h-3v-1133h-160zM950 1838c-8 -78 -27.3359 -136.499 -58.0029 -175.499s-72.667 -58.5 -126 -58.5c-41.333 0 -78.666 6.66699 -111.999 20l-111 46c-26 10.667 -46.667 16 -62 16
c-17.333 0 -32.166 -6.83301 -44.499 -20.5s-22.166 -34.167 -29.499 -61.5h-123c8 78 27.333 136.5 58 175.5s73 58.5 127 58.5c40.667 0 77.667 -6.66699 111 -20l111 -45c26 -10.667 46.667 -16 62 -16c16.667 0 31.167 6.66699 43.5 20s22.5 33.666 30.5 60.999h123z
" />
    <glyph glyph-name="Ograve" unicode="&#xd2;" 
d="M609 -37c-167.333 0 -300.333 70.168 -399 210.501s-148 329.166 -148 566.499c0 240 49.667 429.5 149 568.5s234.666 208.5 405.999 208.5c170.667 0 305.834 -69.5 405.501 -208.5s149.5 -327.167 149.5 -564.5c0 -244 -49.833 -435.167 -149.5 -573.5
s-237.5 -207.5 -413.5 -207.5zM612 111.001c116.667 0 204.332 52.833 262.999 158.5s88 264.167 88 475.5c0 208 -28.833 364 -86.5 468s-144.167 156 -259.5 156s-201.666 -52.333 -258.999 -157s-86 -261.667 -86 -471c0 -210 28.333 -367.5 85 -472.5
s141.667 -157.5 255 -157.5zM628.998 1604l-271 296h222l222 -296h-173z" />
    <glyph glyph-name="Oacute" unicode="&#xd3;" 
d="M609 -37c-167.333 0 -300.333 70.168 -399 210.501s-148 329.166 -148 566.499c0 240 49.667 429.5 149 568.5s234.666 208.5 405.999 208.5c170.667 0 305.834 -69.5 405.501 -208.5s149.5 -327.167 149.5 -564.5c0 -244 -49.833 -435.167 -149.5 -573.5
s-237.5 -207.5 -413.5 -207.5zM612 111.001c116.667 0 204.332 52.833 262.999 158.5s88 264.167 88 475.5c0 208 -28.833 364 -86.5 468s-144.167 156 -259.5 156s-201.666 -52.333 -258.999 -157s-86 -261.667 -86 -471c0 -210 28.333 -367.5 85 -472.5
s141.667 -157.5 255 -157.5zM431.998 1604l222 296h222l-271 -296h-173z" />
    <glyph glyph-name="Ocircumflex" unicode="&#xd4;" 
d="M609 -37c-167.333 0 -300.333 70.168 -399 210.501s-148 329.166 -148 566.499c0 240 49.667 429.5 149 568.5s234.666 208.5 405.999 208.5c170.667 0 305.834 -69.5 405.501 -208.5s149.5 -327.167 149.5 -564.5c0 -244 -49.833 -435.167 -149.5 -573.5
s-237.5 -207.5 -413.5 -207.5zM612 111.001c116.667 0 204.332 52.833 262.999 158.5s88 264.167 88 475.5c0 208 -28.833 364 -86.5 468s-144.167 156 -259.5 156s-201.666 -52.333 -258.999 -157s-86 -261.667 -86 -471c0 -210 28.333 -367.5 85 -472.5
s141.667 -157.5 255 -157.5zM727.998 1900l222 -296h-173l-160 185l-161 -185h-172l222 296h222z" />
    <glyph glyph-name="Otilde" unicode="&#xd5;" 
d="M609 -37c-167.333 0 -300.333 70.168 -399 210.501s-148 329.166 -148 566.499c0 240 49.667 429.5 149 568.5s234.666 208.5 405.999 208.5c170.667 0 305.834 -69.5 405.501 -208.5s149.5 -327.167 149.5 -564.5c0 -244 -49.833 -435.167 -149.5 -573.5
s-237.5 -207.5 -413.5 -207.5zM612 111.001c116.667 0 204.332 52.833 262.999 158.5s88 264.167 88 475.5c0 208 -28.833 364 -86.5 468s-144.167 156 -259.5 156s-201.666 -52.333 -258.999 -157s-86 -261.667 -86 -471c0 -210 28.333 -367.5 85 -472.5
s141.667 -157.5 255 -157.5zM949.998 1838c-8 -78 -27.3359 -136.499 -58.0029 -175.499s-72.667 -58.5 -126 -58.5c-41.333 0 -78.666 6.66699 -111.999 20l-111 46c-26 10.667 -46.667 16 -62 16c-17.333 0 -32.166 -6.83301 -44.499 -20.5s-22.166 -34.167 -29.499 -61.5
h-123c8 78 27.333 136.5 58 175.5s73 58.5 127 58.5c40.667 0 77.667 -6.66699 111 -20l111 -45c26 -10.667 46.667 -16 62 -16c16.667 0 31.167 6.66699 43.5 20s22.5 33.666 30.5 60.999h123z" />
    <glyph glyph-name="Odieresis" unicode="&#xd6;" 
d="M609 -37c-167.333 0 -300.333 70.168 -399 210.501s-148 329.166 -148 566.499c0 240 49.667 429.5 149 568.5s234.666 208.5 405.999 208.5c170.667 0 305.834 -69.5 405.501 -208.5s149.5 -327.167 149.5 -564.5c0 -244 -49.833 -435.167 -149.5 -573.5
s-237.5 -207.5 -413.5 -207.5zM612 111.001c116.667 0 204.332 52.833 262.999 158.5s88 264.167 88 475.5c0 208 -28.833 364 -86.5 468s-144.167 156 -259.5 156s-201.666 -52.333 -258.999 -157s-86 -261.667 -86 -471c0 -210 28.333 -367.5 85 -472.5
s141.667 -157.5 255 -157.5zM332.998 1604v173h173v-173h-173zM727.998 1604v173h173v-173h-173z" />
    <glyph glyph-name="multiply" unicode="&#xd7;" 
d="M76 105l436 436l-436 436l104 105l436 -436l437 436l104 -105l-436 -436l436 -436l-104 -105l-436 436l-437 -436z" />
    <glyph glyph-name="Oslash" unicode="&#xd8;" 
d="M200 187c-92.667 156 -139 341.332 -139 555.999c0 238.667 49.833 427.334 149.5 566.001s235.5 208 407.5 208c121.333 0 231.666 -41 330.999 -123l76 123h148l-140 -226c92 -150.667 138 -334.667 138 -552c0 -238.667 -49.667 -427.667 -149 -567
s-233.666 -209 -402.999 -209c-124.667 0 -236 41 -334 123l-76 -123h-148zM315 371.999l540 872.001c-68 83.333 -147.333 125 -238 125c-116 0 -202.833 -50.167 -260.5 -150.5s-86.5 -250.833 -86.5 -451.5c0 -148.667 15 -280.334 45 -395.001zM378 236
c68.667 -83.333 147 -125 235 -125c116 0 203.167 50 261.5 150s87.5 250.333 87.5 451c0 146 -14.667 277.333 -44 394z" />
    <glyph glyph-name="Ugrave" unicode="&#xd9;" 
d="M153 1480h197v-982c0 -136.667 21.5 -235.334 64.5 -296.001s112.833 -91 209.5 -91c100.667 0 173.334 30.5 218.001 91.5s67 161.167 67 300.5v977h172v-948c0 -161.333 -19 -276.666 -57 -345.999c-80.667 -148.667 -214.334 -223 -401.001 -223
c-156.667 0 -274.167 44.833 -352.5 134.5s-117.5 224.167 -117.5 403.5v979zM629 1604l-271 296h222l222 -296h-173z" />
    <glyph glyph-name="Uacute" unicode="&#xda;" 
d="M153 1480h197v-982c0 -136.667 21.5 -235.334 64.5 -296.001s112.833 -91 209.5 -91c100.667 0 173.334 30.5 218.001 91.5s67 161.167 67 300.5v977h172v-948c0 -161.333 -19 -276.666 -57 -345.999c-80.667 -148.667 -214.334 -223 -401.001 -223
c-156.667 0 -274.167 44.833 -352.5 134.5s-117.5 224.167 -117.5 403.5v979zM432 1604l222 296h222l-271 -296h-173z" />
    <glyph glyph-name="Ucircumflex" unicode="&#xdb;" 
d="M153 1480h197v-982c0 -136.667 21.5 -235.334 64.5 -296.001s112.833 -91 209.5 -91c100.667 0 173.334 30.5 218.001 91.5s67 161.167 67 300.5v977h172v-948c0 -161.333 -19 -276.666 -57 -345.999c-80.667 -148.667 -214.334 -223 -401.001 -223
c-156.667 0 -274.167 44.833 -352.5 134.5s-117.5 224.167 -117.5 403.5v979zM728 1900l222 -296h-173l-160 185l-161 -185h-172l222 296h222z" />
    <glyph glyph-name="Udieresis" unicode="&#xdc;" 
d="M153 1480h197v-982c0 -136.667 21.5 -235.334 64.5 -296.001s112.833 -91 209.5 -91c100.667 0 173.334 30.5 218.001 91.5s67 161.167 67 300.5v977h172v-948c0 -161.333 -19 -276.666 -57 -345.999c-80.667 -148.667 -214.334 -223 -401.001 -223
c-156.667 0 -274.167 44.833 -352.5 134.5s-117.5 224.167 -117.5 403.5v979zM333 1604v173h173v-173h-173zM728 1604v173h173v-173h-173z" />
    <glyph glyph-name="Yacute" unicode="&#xdd;" 
d="M519 0v624l-487 856h227l381 -670l400 670h187l-511 -856v-624h-197zM455 1604l222 296h222l-271 -296h-173z" />
    <glyph glyph-name="Thorn" unicode="&#xde;" 
d="M228 0v1480h197v-271h220c182 0 312.833 -31 392.5 -93s119.5 -163.667 119.5 -305c0 -153.333 -52 -273.333 -156 -360s-248 -130 -432 -130h-144v-321h-197zM425 469l122.999 -0.000976562c132.667 0 232.334 28.5 299.001 85.5s100 142.833 100 257.5
c0 82.667 -27.167 144.834 -81.5 186.501s-135.833 62.5 -244.5 62.5h-196v-592z" />
    <glyph glyph-name="germandbls" unicode="&#xdf;" 
d="M191 0l-0.00195312 1160c0 165.333 28.667 280.666 86 345.999s158.666 98 303.999 98c110.667 0 198.667 -24 264 -72s98 -113 98 -195c0 -40.667 -9.66699 -83.667 -29 -129s-48 -93 -86 -143l-45 -58c-16 -20.667 -27.833 -39.667 -35.5 -57s-11.5 -33.333 -11.5 -48
c0 -19.333 5 -38 15 -56s25.333 -35.667 46 -53l208 -178c56.667 -49.333 99.334 -100 128.001 -152s43 -105.667 43 -161c0 -98 -31 -177 -93 -237s-143.667 -90 -245 -90c-96.667 0 -198.667 19 -306 57v171c122 -53.333 216 -80 282 -80c58.667 0 102.834 13 132.501 39
s44.5 65.333 44.5 118c0 29.333 -10 59.833 -30 91.5s-50 64.834 -90 99.501l-193 167c-39.333 33.333 -68.833 67.333 -88.5 102s-29.5 69.667 -29.5 105c0 32 8.16699 67.667 24.5 107s40.833 82.333 73.5 129l34 50c18 25.333 31.5 52.333 40.5 81s13.5 59 13.5 91
c0 50.667 -15.167 88.834 -45.5 114.501s-75.5 38.5 -135.5 38.5c-59.333 0 -103.666 -18.5 -132.999 -55.5s-44 -92.5 -44 -166.5v-1234h-197z" />
    <glyph glyph-name="agrave" unicode="&#xe0;" 
d="M835 131c-119.333 -100 -238.332 -150.003 -356.999 -150.003c-99.333 0 -181.166 28.333 -245.499 85s-96.5 128.334 -96.5 215.001c0 112.667 50 203.334 150 272.001s232 103 396 103h122v93c0 70.667 -18.333 123.834 -55 159.501s-91.334 53.5 -164.001 53.5
c-114.667 0 -233 -32 -355 -96v169c140 50 272.333 75 397 75c136.667 0 233.334 -27.5 290.001 -82.5s85 -149.167 85 -282.5v-455c0 -65.333 7 -109.833 21 -133.5s40 -35.5 78 -35.5c13.333 0 34.333 3.33301 63 10l18 -118c-66 -21.333 -116.333 -32 -151 -32
c-48.667 0 -89.334 12.5 -122.001 37.5s-57.334 62.5 -74.001 112.5zM804.001 258.997l-0.000976562 274.001h-59c-135.333 0 -236.666 -18.333 -303.999 -55s-101 -91.334 -101 -164.001c0 -58.667 15.833 -102.5 47.5 -131.5s79.167 -43.5 142.5 -43.5
c86 0 177.333 40 274 120zM632 1283l-271 296h222l222 -296h-173z" />
    <glyph glyph-name="aacute" unicode="&#xe1;" 
d="M835 131c-119.333 -100 -238.332 -150.003 -356.999 -150.003c-99.333 0 -181.166 28.333 -245.499 85s-96.5 128.334 -96.5 215.001c0 112.667 50 203.334 150 272.001s232 103 396 103h122v93c0 70.667 -18.333 123.834 -55 159.501s-91.334 53.5 -164.001 53.5
c-114.667 0 -233 -32 -355 -96v169c140 50 272.333 75 397 75c136.667 0 233.334 -27.5 290.001 -82.5s85 -149.167 85 -282.5v-455c0 -65.333 7 -109.833 21 -133.5s40 -35.5 78 -35.5c13.333 0 34.333 3.33301 63 10l18 -118c-66 -21.333 -116.333 -32 -151 -32
c-48.667 0 -89.334 12.5 -122.001 37.5s-57.334 62.5 -74.001 112.5zM804.001 258.997l-0.000976562 274.001h-59c-135.333 0 -236.666 -18.333 -303.999 -55s-101 -91.334 -101 -164.001c0 -58.667 15.833 -102.5 47.5 -131.5s79.167 -43.5 142.5 -43.5
c86 0 177.333 40 274 120zM459 1283l222 296h222l-271 -296h-173z" />
    <glyph glyph-name="acircumflex" unicode="&#xe2;" 
d="M835 131c-119.333 -100 -238.332 -150.003 -356.999 -150.003c-99.333 0 -181.166 28.333 -245.499 85s-96.5 128.334 -96.5 215.001c0 112.667 50 203.334 150 272.001s232 103 396 103h122v93c0 70.667 -18.333 123.834 -55 159.501s-91.334 53.5 -164.001 53.5
c-114.667 0 -233 -32 -355 -96v169c140 50 272.333 75 397 75c136.667 0 233.334 -27.5 290.001 -82.5s85 -149.167 85 -282.5v-455c0 -65.333 7 -109.833 21 -133.5s40 -35.5 78 -35.5c13.333 0 34.333 3.33301 63 10l18 -118c-66 -21.333 -116.333 -32 -151 -32
c-48.667 0 -89.334 12.5 -122.001 37.5s-57.334 62.5 -74.001 112.5zM804.001 258.997l-0.000976562 274.001h-59c-135.333 0 -236.666 -18.333 -303.999 -55s-101 -91.334 -101 -164.001c0 -58.667 15.833 -102.5 47.5 -131.5s79.167 -43.5 142.5 -43.5
c86 0 177.333 40 274 120zM743 1579l222 -296h-173l-160 185l-161 -185h-172l222 296h222z" />
    <glyph glyph-name="atilde" unicode="&#xe3;" 
d="M835 131c-119.333 -100 -238.332 -150.003 -356.999 -150.003c-99.333 0 -181.166 28.333 -245.499 85s-96.5 128.334 -96.5 215.001c0 112.667 50 203.334 150 272.001s232 103 396 103h122v93c0 70.667 -18.333 123.834 -55 159.501s-91.334 53.5 -164.001 53.5
c-114.667 0 -233 -32 -355 -96v169c140 50 272.333 75 397 75c136.667 0 233.334 -27.5 290.001 -82.5s85 -149.167 85 -282.5v-455c0 -65.333 7 -109.833 21 -133.5s40 -35.5 78 -35.5c13.333 0 34.333 3.33301 63 10l18 -118c-66 -21.333 -116.333 -32 -151 -32
c-48.667 0 -89.334 12.5 -122.001 37.5s-57.334 62.5 -74.001 112.5zM804.001 258.997l-0.000976562 274.001h-59c-135.333 0 -236.666 -18.333 -303.999 -55s-101 -91.334 -101 -164.001c0 -58.667 15.833 -102.5 47.5 -131.5s79.167 -43.5 142.5 -43.5
c86 0 177.333 40 274 120zM945 1517c-8 -78 -27.3359 -136.499 -58.0029 -175.499s-72.667 -58.5 -126 -58.5c-41.333 0 -78.666 6.66699 -111.999 20l-111 46c-26 10.667 -46.667 16 -62 16c-17.333 0 -32.166 -6.83301 -44.499 -20.5s-22.166 -34.167 -29.499 -61.5h-123
c8 78 27.333 136.5 58 175.5s73 58.5 127 58.5c40.667 0 77.667 -6.66699 111 -20l111 -45c26 -10.667 46.667 -16 62 -16c16.667 0 31.167 6.66699 43.5 20s22.5 33.666 30.5 60.999h123z" />
    <glyph glyph-name="adieresis" unicode="&#xe4;" 
d="M835 131c-119.333 -100 -238.332 -150.003 -356.999 -150.003c-99.333 0 -181.166 28.333 -245.499 85s-96.5 128.334 -96.5 215.001c0 112.667 50 203.334 150 272.001s232 103 396 103h122v93c0 70.667 -18.333 123.834 -55 159.501s-91.334 53.5 -164.001 53.5
c-114.667 0 -233 -32 -355 -96v169c140 50 272.333 75 397 75c136.667 0 233.334 -27.5 290.001 -82.5s85 -149.167 85 -282.5v-455c0 -65.333 7 -109.833 21 -133.5s40 -35.5 78 -35.5c13.333 0 34.333 3.33301 63 10l18 -118c-66 -21.333 -116.333 -32 -151 -32
c-48.667 0 -89.334 12.5 -122.001 37.5s-57.334 62.5 -74.001 112.5zM804.001 258.997l-0.000976562 274.001h-59c-135.333 0 -236.666 -18.333 -303.999 -55s-101 -91.334 -101 -164.001c0 -58.667 15.833 -102.5 47.5 -131.5s79.167 -43.5 142.5 -43.5
c86 0 177.333 40 274 120zM348 1283v173h173v-173h-173zM743 1283v173h173v-173h-173z" />
    <glyph glyph-name="aring" unicode="&#xe5;" 
d="M835 131c-119.333 -100 -238.332 -150.003 -356.999 -150.003c-99.333 0 -181.166 28.333 -245.499 85s-96.5 128.334 -96.5 215.001c0 112.667 50 203.334 150 272.001s232 103 396 103h122v93c0 70.667 -18.333 123.834 -55 159.501s-91.334 53.5 -164.001 53.5
c-114.667 0 -233 -32 -355 -96v169c140 50 272.333 75 397 75c136.667 0 233.334 -27.5 290.001 -82.5s85 -149.167 85 -282.5v-455c0 -65.333 7 -109.833 21 -133.5s40 -35.5 78 -35.5c13.333 0 34.333 3.33301 63 10l18 -118c-66 -21.333 -116.333 -32 -151 -32
c-48.667 0 -89.334 12.5 -122.001 37.5s-57.334 62.5 -74.001 112.5zM804.001 258.997l-0.000976562 274.001h-59c-135.333 0 -236.666 -18.333 -303.999 -55s-101 -91.334 -101 -164.001c0 -58.667 15.833 -102.5 47.5 -131.5s79.167 -43.5 142.5 -43.5
c86 0 177.333 40 274 120zM629 1283c-61.333 0 -114 22.167 -158 66.5s-66 97.833 -66 160.5s22.167 116.167 66.5 160.5s97.833 66.5 160.5 66.5c63.333 0 117 -22 161 -66s66 -97.667 66 -161c0 -64 -22.167 -117.833 -66.5 -161.5s-98.833 -65.5 -163.5 -65.5zM630 1369
c40.667 0 74.666 13.667 101.999 41s41 61 41 101c0 38.667 -13.667 71.667 -41 99s-60.666 41 -99.999 41c-38.667 0 -71.667 -13.667 -99 -41s-41 -60.666 -41 -99.999c0 -38.667 13.5 -71.834 40.5 -99.501s59.5 -41.5 97.5 -41.5z" />
    <glyph glyph-name="ae" unicode="&#xe6;" 
d="M593 126c-39.333 -50.667 -80.332 -88.5 -122.999 -113.5s-86.667 -37.5 -132 -37.5c-84 0 -153.167 29.5 -207.5 88.5s-81.5 133.833 -81.5 224.5c0 102.667 39 189 117 259s174.667 105 290 105h60v116c0 64.667 -13.167 113.167 -39.5 145.5s-65.5 48.5 -117.5 48.5
c-62.667 0 -135 -17.667 -217 -53v150c90.667 34 181 51 271 51c56.667 0 105.5 -10 146.5 -30s73.833 -49.667 98.5 -89c62.667 79.333 136 119 220 119c108.667 0 190.167 -43.833 244.5 -131.5s81.5 -219.167 81.5 -394.5v-68h-490l1 -51
c0 -110.667 18.667 -193.667 56 -249s93.666 -83 168.999 -83c74 0 160 21.333 258 64v-156c-138 -44 -241.333 -66 -310 -66c-64 0 -120.667 12.5 -170 37.5s-91 62.833 -125 113.5zM516.001 225l-0.00292969 304h-42c-65.333 0 -119.666 -20.667 -162.999 -62
s-65 -93.333 -65 -156c0 -56 11.667 -98 35 -126s58.333 -42 105 -42c24.667 0 47.834 6.83301 69.501 20.5s41.834 34.167 60.501 61.5zM713.998 652h280v47c0 87.333 -10.333 153 -31 197s-51.667 66 -93 66c-42.667 0 -76.667 -22.167 -102 -66.5s-42 -110.5 -50 -198.5z
" />
    <glyph glyph-name="ccedilla" unicode="&#xe7;" 
d="M1103 35c-116.667 -40 -233.666 -59.999 -350.999 -59.999c-188 0 -333.167 49.333 -435.5 148s-153.5 238.667 -153.5 420c0 178 50.5 317 151.5 417s241.167 150 420.5 150c115.333 0 231.333 -17.333 348 -52v-165c-128.667 46 -237.667 69 -327 69
c-119.333 0 -213 -37.167 -281 -111.5s-102 -176.833 -102 -307.5s36 -233.334 108 -308.001s171 -112 297 -112c97.333 0 205.666 22.333 324.999 67v-155zM665.001 0.000976562l97 0.000976562l-60 -109c52 0 97.167 -15.833 135.5 -47.5s57.5 -68.834 57.5 -111.501
c0 -47.333 -19.167 -86.5 -57.5 -117.5s-86.833 -46.5 -145.5 -46.5c-46 0 -93.667 7 -143 21v81c30.667 -10 65.667 -15 105 -15c34 0 59.667 6.16699 77 18.5s26 30.833 26 55.5c0 32 -15.667 56 -47 72s-78 24 -140 24z" />
    <glyph glyph-name="egrave" unicode="&#xe8;" 
d="M1098 43c-136.667 -45.333 -262.331 -68.002 -376.998 -68.002c-186 0 -329.167 48.167 -429.5 144.5s-150.5 233.5 -150.5 411.5c0 168.667 48.167 307.334 144.5 416.001s218.833 163 367.5 163c150 0 260.5 -45 331.5 -135s106.5 -230 106.5 -420v-63h-740
c7.33301 -123.333 44.166 -215.666 110.499 -276.999s162.166 -92 287.499 -92c106 0 222.333 25.333 349 76v-156zM357.003 639.998h524v28c0 98 -20.5 171.5 -61.5 220.5s-102.167 73.5 -183.5 73.5c-78.667 0 -142.5 -28.333 -191.5 -85s-78.167 -135.667 -87.5 -237z
M666.003 1283l-271 296h222l222 -296h-173z" />
    <glyph glyph-name="eacute" unicode="&#xe9;" 
d="M1098 43c-136.667 -45.333 -262.331 -68.002 -376.998 -68.002c-186 0 -329.167 48.167 -429.5 144.5s-150.5 233.5 -150.5 411.5c0 168.667 48.167 307.334 144.5 416.001s218.833 163 367.5 163c150 0 260.5 -45 331.5 -135s106.5 -230 106.5 -420v-63h-740
c7.33301 -123.333 44.166 -215.666 110.499 -276.999s162.166 -92 287.499 -92c106 0 222.333 25.333 349 76v-156zM357.003 639.998h524v28c0 98 -20.5 171.5 -61.5 220.5s-102.167 73.5 -183.5 73.5c-78.667 0 -142.5 -28.333 -191.5 -85s-78.167 -135.667 -87.5 -237z
M469.003 1283l222 296h222l-271 -296h-173z" />
    <glyph glyph-name="ecircumflex" unicode="&#xea;" 
d="M1098 43c-136.667 -45.333 -262.331 -68.002 -376.998 -68.002c-186 0 -329.167 48.167 -429.5 144.5s-150.5 233.5 -150.5 411.5c0 168.667 48.167 307.334 144.5 416.001s218.833 163 367.5 163c150 0 260.5 -45 331.5 -135s106.5 -230 106.5 -420v-63h-740
c7.33301 -123.333 44.166 -215.666 110.499 -276.999s162.166 -92 287.499 -92c106 0 222.333 25.333 349 76v-156zM357.003 639.998h524v28c0 98 -20.5 171.5 -61.5 220.5s-102.167 73.5 -183.5 73.5c-78.667 0 -142.5 -28.333 -191.5 -85s-78.167 -135.667 -87.5 -237z
M765.003 1579l222 -296h-173l-160 185l-161 -185h-172l222 296h222z" />
    <glyph glyph-name="edieresis" unicode="&#xeb;" 
d="M1098 43c-136.667 -45.333 -262.331 -68.002 -376.998 -68.002c-186 0 -329.167 48.167 -429.5 144.5s-150.5 233.5 -150.5 411.5c0 168.667 48.167 307.334 144.5 416.001s218.833 163 367.5 163c150 0 260.5 -45 331.5 -135s106.5 -230 106.5 -420v-63h-740
c7.33301 -123.333 44.166 -215.666 110.499 -276.999s162.166 -92 287.499 -92c106 0 222.333 25.333 349 76v-156zM357.003 639.998h524v28c0 98 -20.5 171.5 -61.5 220.5s-102.167 73.5 -183.5 73.5c-78.667 0 -142.5 -28.333 -191.5 -85s-78.167 -135.667 -87.5 -237z
M371.003 1283v173h173v-173h-173zM766.003 1283v173h173v-173h-173z" />
    <glyph glyph-name="igrave" unicode="&#xec;" 
d="M568 0v938h-395v148h592v-1086h-197zM629 1283l-271 296h222l222 -296h-173z" />
    <glyph glyph-name="iacute" unicode="&#xed;" 
d="M568 0v938h-395v148h592v-1086h-197zM457 1283l222 296h222l-271 -296h-173z" />
    <glyph glyph-name="icircumflex" unicode="&#xee;" 
d="M568 0v938h-395v148h592v-1086h-197zM765 1579l222 -296h-173l-160 185l-161 -185h-172l222 296h222z" />
    <glyph glyph-name="idieresis" unicode="&#xef;" 
d="M568 0v938h-395v148h592v-1086h-197zM370 1283v173h173v-173h-173zM765 1283v173h173v-173h-173z" />
    <glyph glyph-name="eth" unicode="&#xf0;" 
d="M745 1067c-37.333 66 -99.998 134.999 -187.998 206.999l-242 -162l-81 121l188 129c-87.333 39.333 -190.333 62.333 -309 69v148h23c166.667 0 314.667 -37.333 444 -112l169 112l85 -121l-124 -81c138 -104 241.667 -222.667 311 -356s104 -281.666 104 -444.999
c0 -180.667 -46.333 -326 -139 -436s-215.334 -165 -368.001 -165c-151.333 0 -273.5 51.667 -366.5 155s-139.5 239.333 -139.5 408c0 162.667 46 295 138 397s211.667 153 359 153c41.333 0 86.666 -7 135.999 -21zM619.002 122.999c96 0 171.166 37.667 225.499 113
s81.5 179.333 81.5 312c0 263.333 -99.667 395 -299 395c-95.333 0 -170 -36 -224 -108s-81 -171.333 -81 -298c0 -126 26.833 -226.5 80.5 -301.5s125.834 -112.5 216.501 -112.5z" />
    <glyph glyph-name="ntilde" unicode="&#xf1;" 
d="M182 0l-0.000976562 1086h197l-12 -204h12c45.333 76 98.833 133 160.5 171s131.5 57 209.5 57c102.667 0 179.834 -30.667 231.501 -92s77.5 -153 77.5 -275v-743h-197v689c0 85.333 -13.167 145.666 -39.5 180.999s-70.5 53 -132.5 53
c-49.333 0 -99.833 -17.833 -151.5 -53.5s-104.5 -88.834 -158.5 -159.501v-710h-197zM946.999 1517c-8 -78 -27.3359 -136.499 -58.0029 -175.499s-72.667 -58.5 -126 -58.5c-41.333 0 -78.666 6.66699 -111.999 20l-111 46c-26 10.667 -46.667 16 -62 16
c-17.333 0 -32.166 -6.83301 -44.499 -20.5s-22.166 -34.167 -29.499 -61.5h-123c8 78 27.333 136.5 58 175.5s73 58.5 127 58.5c40.667 0 77.667 -6.66699 111 -20l111 -45c26 -10.667 46.667 -16 62 -16c16.667 0 31.167 6.66699 43.5 20s22.5 33.666 30.5 60.999h123z
" />
    <glyph glyph-name="ograve" unicode="&#xf2;" 
d="M609 -25c-154.667 0 -277.333 50.999 -368 152.999s-136 240.333 -136 415c0 176 45.667 314.5 137 415.5s216.333 151.5 375 151.5s283.667 -50.333 375 -151s137 -238.667 137 -414c0 -179.333 -45.833 -319.166 -137.5 -419.499s-219.167 -150.5 -382.5 -150.5z
M613.001 122.999c102 0 178.5 35.168 229.5 105.501s76.5 175.833 76.5 316.5c0 130 -26.667 232 -80 306s-127.333 111 -222 111s-168.667 -37 -222 -111s-80 -176.667 -80 -308c0 -130.667 26.5 -233.334 79.5 -308.001s125.833 -112 218.5 -112zM629.001 1283l-271 296
h222l222 -296h-173z" />
    <glyph glyph-name="oacute" unicode="&#xf3;" 
d="M609 -25c-154.667 0 -277.333 50.999 -368 152.999s-136 240.333 -136 415c0 176 45.667 314.5 137 415.5s216.333 151.5 375 151.5s283.667 -50.333 375 -151s137 -238.667 137 -414c0 -179.333 -45.833 -319.166 -137.5 -419.499s-219.167 -150.5 -382.5 -150.5z
M613.001 122.999c102 0 178.5 35.168 229.5 105.501s76.5 175.833 76.5 316.5c0 130 -26.667 232 -80 306s-127.333 111 -222 111s-168.667 -37 -222 -111s-80 -176.667 -80 -308c0 -130.667 26.5 -233.334 79.5 -308.001s125.833 -112 218.5 -112zM432.001 1283l222 296
h222l-271 -296h-173z" />
    <glyph glyph-name="ocircumflex" unicode="&#xf4;" 
d="M609 -25c-154.667 0 -277.333 50.999 -368 152.999s-136 240.333 -136 415c0 176 45.667 314.5 137 415.5s216.333 151.5 375 151.5s283.667 -50.333 375 -151s137 -238.667 137 -414c0 -179.333 -45.833 -319.166 -137.5 -419.499s-219.167 -150.5 -382.5 -150.5z
M613.001 122.999c102 0 178.5 35.168 229.5 105.501s76.5 175.833 76.5 316.5c0 130 -26.667 232 -80 306s-127.333 111 -222 111s-168.667 -37 -222 -111s-80 -176.667 -80 -308c0 -130.667 26.5 -233.334 79.5 -308.001s125.833 -112 218.5 -112zM728.001 1579l222 -296
h-173l-160 185l-161 -185h-172l222 296h222z" />
    <glyph glyph-name="otilde" unicode="&#xf5;" 
d="M609 -25c-154.667 0 -277.333 50.999 -368 152.999s-136 240.333 -136 415c0 176 45.667 314.5 137 415.5s216.333 151.5 375 151.5s283.667 -50.333 375 -151s137 -238.667 137 -414c0 -179.333 -45.833 -319.166 -137.5 -419.499s-219.167 -150.5 -382.5 -150.5z
M613.001 122.999c102 0 178.5 35.168 229.5 105.501s76.5 175.833 76.5 316.5c0 130 -26.667 232 -80 306s-127.333 111 -222 111s-168.667 -37 -222 -111s-80 -176.667 -80 -308c0 -130.667 26.5 -233.334 79.5 -308.001s125.833 -112 218.5 -112zM950.001 1517
c-8 -78 -27.3359 -136.499 -58.0029 -175.499s-72.667 -58.5 -126 -58.5c-41.333 0 -78.666 6.66699 -111.999 20l-111 46c-26 10.667 -46.667 16 -62 16c-17.333 0 -32.166 -6.83301 -44.499 -20.5s-22.166 -34.167 -29.499 -61.5h-123c8 78 27.333 136.5 58 175.5
s73 58.5 127 58.5c40.667 0 77.667 -6.66699 111 -20l111 -45c26 -10.667 46.667 -16 62 -16c16.667 0 31.167 6.66699 43.5 20s22.5 33.666 30.5 60.999h123z" />
    <glyph glyph-name="odieresis" unicode="&#xf6;" 
d="M609 -25c-154.667 0 -277.333 50.999 -368 152.999s-136 240.333 -136 415c0 176 45.667 314.5 137 415.5s216.333 151.5 375 151.5s283.667 -50.333 375 -151s137 -238.667 137 -414c0 -179.333 -45.833 -319.166 -137.5 -419.499s-219.167 -150.5 -382.5 -150.5z
M613.001 122.999c102 0 178.5 35.168 229.5 105.501s76.5 175.833 76.5 316.5c0 130 -26.667 232 -80 306s-127.333 111 -222 111s-168.667 -37 -222 -111s-80 -176.667 -80 -308c0 -130.667 26.5 -233.334 79.5 -308.001s125.833 -112 218.5 -112zM333.001 1283v173h173
v-173h-173zM728.001 1283v173h173v-173h-173z" />
    <glyph glyph-name="divide" unicode="&#xf7;" 
d="M505 0v222h223v-222h-223zM86 456v149h1061v-149h-1061zM505 839v222h223v-222h-223z" />
    <glyph glyph-name="oslash" unicode="&#xf8;" 
d="M804 888c-54.667 49.333 -117.667 74 -189 74c-100 0 -175 -36.333 -225 -109s-75 -181.667 -75 -327c0 -76 14 -149.667 42 -221zM105 -25l125.001 163c-83.333 108 -125 243.333 -125 406c0 174.667 45.5 312.667 136.5 414s214.5 152 370.5 152
c116 0 215.333 -27.333 298 -82l64 82h155l-126 -165c84 -103.333 126 -236 126 -398c0 -178 -45.333 -317.833 -136 -419.5s-215.334 -152.5 -374.001 -152.5c-116.667 0 -215.667 27 -297 81l-62 -81h-155zM429.001 196c49.333 -48.667 112.667 -73 190 -73
c100 0 175.167 36.667 225.5 110s75.5 183.333 75.5 330c0 76.667 -14.333 149.667 -43 219z" />
    <glyph glyph-name="ugrave" unicode="&#xf9;" 
d="M1052 1086v-1086h-197l12 204h-12c-45.333 -76.667 -99 -134 -161 -172s-132 -57 -210 -57c-102.667 0 -179.667 30.667 -231 92s-77 153.333 -77 276v743h197v-689c0 -85.333 13.167 -145.833 39.5 -181.5s70.5 -53.5 132.5 -53.5c49.333 0 99.833 17.833 151.5 53.5
s104.5 89.167 158.5 160.5v710h197zM626 1283l-271 296h222l222 -296h-173z" />
    <glyph glyph-name="uacute" unicode="&#xfa;" 
d="M1052 1086v-1086h-197l12 204h-12c-45.333 -76.667 -99 -134 -161 -172s-132 -57 -210 -57c-102.667 0 -179.667 30.667 -231 92s-77 153.333 -77 276v743h197v-689c0 -85.333 13.167 -145.833 39.5 -181.5s70.5 -53.5 132.5 -53.5c49.333 0 99.833 17.833 151.5 53.5
s104.5 89.167 158.5 160.5v710h197zM429 1283l222 296h222l-271 -296h-173z" />
    <glyph glyph-name="ucircumflex" unicode="&#xfb;" 
d="M1052 1086v-1086h-197l12 204h-12c-45.333 -76.667 -99 -134 -161 -172s-132 -57 -210 -57c-102.667 0 -179.667 30.667 -231 92s-77 153.333 -77 276v743h197v-689c0 -85.333 13.167 -145.833 39.5 -181.5s70.5 -53.5 132.5 -53.5c49.333 0 99.833 17.833 151.5 53.5
s104.5 89.167 158.5 160.5v710h197zM725 1579l222 -296h-173l-160 185l-161 -185h-172l222 296h222z" />
    <glyph glyph-name="udieresis" unicode="&#xfc;" 
d="M1052 1086v-1086h-197l12 204h-12c-45.333 -76.667 -99 -134 -161 -172s-132 -57 -210 -57c-102.667 0 -179.667 30.667 -231 92s-77 153.333 -77 276v743h197v-689c0 -85.333 13.167 -145.833 39.5 -181.5s70.5 -53.5 132.5 -53.5c49.333 0 99.833 17.833 151.5 53.5
s104.5 89.167 158.5 160.5v710h197zM330 1283v173h173v-173h-173zM725 1283v173h173v-173h-173z" />
    <glyph glyph-name="yacute" unicode="&#xfd;" 
d="M142 -395l-0.000976562 148h80c74.667 0 129 12 163 36s69.667 75.667 107 155l49 104l-456 1038h204l355 -813l358 813h177l-547 -1225c-42.667 -95.333 -93.667 -161.833 -153 -199.5s-143.666 -56.5 -252.999 -56.5h-84zM458.999 1283l222 296h222l-271 -296h-173z
" />
    <glyph glyph-name="thorn" unicode="&#xfe;" 
d="M179 -395l0.000976562 1974h197v-493l-12 -204h12c47.333 76 100.666 133 159.999 171s124.333 57 195 57c122.667 0 219.667 -47.5 291 -142.5s107 -224.5 107 -388.5c0 -180 -42 -325.667 -126 -437s-194 -167 -330 -167c-58.667 0 -112.667 12.333 -162 37
s-94.333 61.667 -135 111h-12l12 -148v-370h-197zM376.001 271c45.333 -49.333 90.501 -86.332 135.501 -110.999s89.833 -37 134.5 -37c86.667 0 153.834 38.167 201.501 114.5s71.5 183.166 71.5 320.499c0 128 -19 224 -57 288s-94.667 96 -170 96
c-56.667 0 -111.334 -17.333 -164.001 -52s-103.334 -86.667 -152.001 -156v-463z" />
    <glyph glyph-name="ydieresis" unicode="&#xff;" 
d="M142 -395l-0.000976562 148h80c74.667 0 129 12 163 36s69.667 75.667 107 155l49 104l-456 1038h204l355 -813l358 813h177l-547 -1225c-42.667 -95.333 -93.667 -161.833 -153 -199.5s-143.666 -56.5 -252.999 -56.5h-84zM359.999 1283v173h173v-173h-173z
M754.999 1283v173h173v-173h-173z" />
    <glyph glyph-name="Amacron" unicode="&#x100;" 
d="M12 0l506 1480h197l506 -1480h-209l-143 419h-544l-143 -419h-170zM375 568h444l-222 648zM333 1604v148h568v-148h-568z" />
    <glyph glyph-name="amacron" unicode="&#x101;" 
d="M835 131c-119.333 -100 -238.332 -150.003 -356.999 -150.003c-99.333 0 -181.166 28.333 -245.499 85s-96.5 128.334 -96.5 215.001c0 112.667 50 203.334 150 272.001s232 103 396 103h122v93c0 70.667 -18.333 123.834 -55 159.501s-91.334 53.5 -164.001 53.5
c-114.667 0 -233 -32 -355 -96v169c140 50 272.333 75 397 75c136.667 0 233.334 -27.5 290.001 -82.5s85 -149.167 85 -282.5v-455c0 -65.333 7 -109.833 21 -133.5s40 -35.5 78 -35.5c13.333 0 34.333 3.33301 63 10l18 -118c-66 -21.333 -116.333 -32 -151 -32
c-48.667 0 -89.334 12.5 -122.001 37.5s-57.334 62.5 -74.001 112.5zM804.001 258.997l-0.000976562 274.001h-59c-135.333 0 -236.666 -18.333 -303.999 -55s-101 -91.334 -101 -164.001c0 -58.667 15.833 -102.5 47.5 -131.5s79.167 -43.5 142.5 -43.5
c86 0 177.333 40 274 120zM327 1283v148h568v-148h-568z" />
    <glyph glyph-name="Abreve" unicode="&#x102;" 
d="M12 0l506 1480h197l506 -1480h-209l-143 419h-544l-143 -419h-170zM375 568h444l-222 648zM284 1900h122.999c9.33301 -51.333 31.5 -89.833 66.5 -115.5s82.833 -38.5 143.5 -38.5c60 0 107.5 12.833 142.5 38.5s57.5 64.167 67.5 115.5h123
c-13.333 -98.667 -47.833 -172.667 -103.5 -222s-132.167 -74 -229.5 -74c-98 0 -174.667 24.667 -230 74s-89.666 123.333 -102.999 222z" />
    <glyph glyph-name="abreve" unicode="&#x103;" 
d="M835 131c-119.333 -100 -238.332 -150.003 -356.999 -150.003c-99.333 0 -181.166 28.333 -245.499 85s-96.5 128.334 -96.5 215.001c0 112.667 50 203.334 150 272.001s232 103 396 103h122v93c0 70.667 -18.333 123.834 -55 159.501s-91.334 53.5 -164.001 53.5
c-114.667 0 -233 -32 -355 -96v169c140 50 272.333 75 397 75c136.667 0 233.334 -27.5 290.001 -82.5s85 -149.167 85 -282.5v-455c0 -65.333 7 -109.833 21 -133.5s40 -35.5 78 -35.5c13.333 0 34.333 3.33301 63 10l18 -118c-66 -21.333 -116.333 -32 -151 -32
c-48.667 0 -89.334 12.5 -122.001 37.5s-57.334 62.5 -74.001 112.5zM804.001 258.997l-0.000976562 274.001h-59c-135.333 0 -236.666 -18.333 -303.999 -55s-101 -91.334 -101 -164.001c0 -58.667 15.833 -102.5 47.5 -131.5s79.167 -43.5 142.5 -43.5
c86 0 177.333 40 274 120zM326 1579h122.999c9.33301 -51.333 31.5 -89.833 66.5 -115.5s82.833 -38.5 143.5 -38.5c60 0 107.5 12.833 142.5 38.5s57.5 64.167 67.5 115.5h123c-13.333 -98.667 -47.833 -172.667 -103.5 -222s-132.167 -74 -229.5 -74
c-98 0 -174.667 24.667 -230 74s-89.666 123.333 -102.999 222z" />
    <glyph glyph-name="Aogonek" unicode="&#x104;" 
d="M12 0l506 1480h197l506 -1480h-209l-143 419h-544l-143 -419h-170zM375 568h444l-222 648zM1012 0h107c-43.333 -25.333 -75.666 -53 -96.999 -83s-32 -62.333 -32 -97c0 -31.333 9.5 -55 28.5 -71s47.833 -24 86.5 -24c37.333 0 67.666 5 90.999 15v-81
c-40 -19.333 -86 -29 -138 -29c-68 0 -119 13.333 -153 40s-51 66.667 -51 120c0 42 13.167 80.5 39.5 115.5s65.833 66.5 118.5 94.5z" />
    <glyph glyph-name="aogonek" unicode="&#x105;" 
d="M835 131c-119.333 -100 -238.332 -150.003 -356.999 -150.003c-99.333 0 -181.166 28.333 -245.499 85s-96.5 128.334 -96.5 215.001c0 112.667 50 203.334 150 272.001s232 103 396 103h122v93c0 70.667 -18.333 123.834 -55 159.501s-91.334 53.5 -164.001 53.5
c-114.667 0 -233 -32 -355 -96v169c140 50 272.333 75 397 75c136.667 0 233.334 -27.5 290.001 -82.5s85 -149.167 85 -282.5v-455c0 -65.333 7 -109.833 21 -133.5s40 -35.5 78 -35.5c13.333 0 34.333 3.33301 63 10l18 -118c-66 -21.333 -116.333 -32 -151 -32
c-48.667 0 -89.334 12.5 -122.001 37.5s-57.334 62.5 -74.001 112.5zM804.001 258.997l-0.000976562 274.001h-59c-135.333 0 -236.666 -18.333 -303.999 -55s-101 -91.334 -101 -164.001c0 -58.667 15.833 -102.5 47.5 -131.5s79.167 -43.5 142.5 -43.5
c86 0 177.333 40 274 120zM980 -0.00195312h107c-43.333 -25.333 -75.666 -53 -96.999 -83s-32 -62.333 -32 -97c0 -31.333 9.5 -55 28.5 -71s47.833 -24 86.5 -24c37.333 0 67.666 5 90.999 15v-81c-40 -19.333 -86 -29 -138 -29c-68 0 -119 13.333 -153 40
s-51 66.667 -51 120c0 42 13.167 80.5 39.5 115.5s65.833 66.5 118.5 94.5z" />
    <glyph glyph-name="Cacute" unicode="&#x106;" 
d="M1155 34c-130.667 -47.333 -254.667 -71 -372 -71c-208 0 -373.5 69 -496.5 207s-184.5 324.333 -184.5 559c0 240 60.667 431.5 182 574.5s284 214.5 488 214.5c114 0 236 -19.333 366 -58v-182c-132 60.667 -254 91 -366 91c-138.667 0 -250 -58.333 -334 -175
s-126 -271 -126 -463c0 -184 47.5 -331.167 142.5 -441.5s221.167 -165.5 378.5 -165.5c90 0 197.333 24 322 72v-162zM563 1604l222 296h222l-271 -296h-173z" />
    <glyph glyph-name="cacute" unicode="&#x107;" 
d="M1103 35c-116.667 -40 -233.666 -59.999 -350.999 -59.999c-188 0 -333.167 49.333 -435.5 148s-153.5 238.667 -153.5 420c0 178 50.5 317 151.5 417s241.167 150 420.5 150c115.333 0 231.333 -17.333 348 -52v-165c-128.667 46 -237.667 69 -327 69
c-119.333 0 -213 -37.167 -281 -111.5s-102 -176.833 -102 -307.5s36 -233.334 108 -308.001s171 -112 297 -112c97.333 0 205.666 22.333 324.999 67v-155zM528.001 1283l222 296h222l-271 -296h-173z" />
    <glyph glyph-name="Ccircumflex" unicode="&#x108;" 
d="M1155 34c-130.667 -47.333 -254.667 -71 -372 -71c-208 0 -373.5 69 -496.5 207s-184.5 324.333 -184.5 559c0 240 60.667 431.5 182 574.5s284 214.5 488 214.5c114 0 236 -19.333 366 -58v-182c-132 60.667 -254 91 -366 91c-138.667 0 -250 -58.333 -334 -175
s-126 -271 -126 -463c0 -184 47.5 -331.167 142.5 -441.5s221.167 -165.5 378.5 -165.5c90 0 197.333 24 322 72v-162zM871 1900l222 -296h-173l-160 185l-161 -185h-172l222 296h222z" />
    <glyph glyph-name="ccircumflex" unicode="&#x109;" 
d="M1103 35c-116.667 -40 -233.666 -59.999 -350.999 -59.999c-188 0 -333.167 49.333 -435.5 148s-153.5 238.667 -153.5 420c0 178 50.5 317 151.5 417s241.167 150 420.5 150c115.333 0 231.333 -17.333 348 -52v-165c-128.667 46 -237.667 69 -327 69
c-119.333 0 -213 -37.167 -281 -111.5s-102 -176.833 -102 -307.5s36 -233.334 108 -308.001s171 -112 297 -112c97.333 0 205.666 22.333 324.999 67v-155zM854.001 1579l222 -296h-173l-160 185l-161 -185h-172l222 296h222z" />
    <glyph glyph-name="Cdot" unicode="&#x10a;" 
d="M1155 34c-130.667 -47.333 -254.667 -71 -372 -71c-208 0 -373.5 69 -496.5 207s-184.5 324.333 -184.5 559c0 240 60.667 431.5 182 574.5s284 214.5 488 214.5c114 0 236 -19.333 366 -58v-182c-132 60.667 -254 91 -366 91c-138.667 0 -250 -58.333 -334 -175
s-126 -271 -126 -463c0 -184 47.5 -331.167 142.5 -441.5s221.167 -165.5 378.5 -165.5c90 0 197.333 24 322 72v-162zM686 1604v197h198v-197h-198z" />
    <glyph glyph-name="cdot" unicode="&#x10b;" 
d="M1103 35c-116.667 -40 -233.666 -59.999 -350.999 -59.999c-188 0 -333.167 49.333 -435.5 148s-153.5 238.667 -153.5 420c0 178 50.5 317 151.5 417s241.167 150 420.5 150c115.333 0 231.333 -17.333 348 -52v-165c-128.667 46 -237.667 69 -327 69
c-119.333 0 -213 -37.167 -281 -111.5s-102 -176.833 -102 -307.5s36 -233.334 108 -308.001s171 -112 297 -112c97.333 0 205.666 22.333 324.999 67v-155zM644.001 1283v197h198v-197h-198z" />
    <glyph glyph-name="Ccaron" unicode="&#x10c;" 
d="M1155 34c-130.667 -47.333 -254.667 -71 -372 -71c-208 0 -373.5 69 -496.5 207s-184.5 324.333 -184.5 559c0 240 60.667 431.5 182 574.5s284 214.5 488 214.5c114 0 236 -19.333 366 -58v-182c-132 60.667 -254 91 -366 91c-138.667 0 -250 -58.333 -334 -175
s-126 -271 -126 -463c0 -184 47.5 -331.167 142.5 -441.5s221.167 -165.5 378.5 -165.5c90 0 197.333 24 322 72v-162zM674 1604l-222 296h172l161 -185l160 185h173l-222 -296h-222z" />
    <glyph glyph-name="ccaron" unicode="&#x10d;" 
d="M1103 35c-116.667 -40 -233.666 -59.999 -350.999 -59.999c-188 0 -333.167 49.333 -435.5 148s-153.5 238.667 -153.5 420c0 178 50.5 317 151.5 417s241.167 150 420.5 150c115.333 0 231.333 -17.333 348 -52v-165c-128.667 46 -237.667 69 -327 69
c-119.333 0 -213 -37.167 -281 -111.5s-102 -176.833 -102 -307.5s36 -233.334 108 -308.001s171 -112 297 -112c97.333 0 205.666 22.333 324.999 67v-155zM615.001 1283l-222 296h172l161 -185l160 185h173l-222 -296h-222z" />
    <glyph glyph-name="Dcaron" unicode="&#x10e;" 
d="M130 0l0.000976562 1480h387c213.333 0 373.333 -59.667 480 -179s160 -298.333 160 -537c0 -254.667 -57.833 -445.667 -173.5 -573s-288.834 -191 -519.501 -191h-334zM327.001 148h99c186.667 0 320.167 46.5 400.5 139.5s120.5 247.167 120.5 462.5
c0 235.333 -53 400 -159 494c-67.333 59.333 -190.333 89 -369 89l-92 -1v-1184zM434.001 1604l-222 296h172l161 -185l160 185h173l-222 -296h-222z" />
    <glyph glyph-name="dcaron" unicode="&#x10f;" 
d="M722 0l12 204.001h-12c-29.333 -76.667 -67.666 -134 -114.999 -172s-104 -57 -170 -57c-106.667 0 -193.834 49.833 -261.501 149.5s-101.5 228.167 -101.5 385.5c0 175.333 36.667 319.166 110 431.499s167 168.5 281 168.5c54 0 102.333 -12.333 145 -37
s80 -61.667 112 -111h12l-12 124v493h197v-1579h-197zM722 814.001c-44.667 49.333 -87.3311 86.333 -127.998 111s-79.667 37 -117 37c-64.667 0 -113 -34.667 -145 -104s-48 -173.333 -48 -312c0 -134 15.833 -234.5 47.5 -301.5s79.167 -100.5 142.5 -100.5
c39.333 0 79.666 17.333 120.999 52s83.666 86.667 126.999 156v462zM1055 1125l-0.000976562 59.999c22.667 2.66699 39.834 19 51.501 49s17.5 74 17.5 132v16h-69v197h179v-171c0 -87.333 -15 -154.666 -45 -201.999s-74.667 -74.333 -134 -81z" />
    <glyph glyph-name="Dmacron" unicode="&#x110;" 
d="M130 0l0.000976562 703h-99v148h99v629h387c213.333 0 373.333 -59.667 480 -179s160 -298.333 160 -537c0 -254.667 -57.833 -445.667 -173.5 -573s-288.834 -191 -519.501 -191h-334zM327.001 148h98.999c186 0 319.333 46.5 400 139.5s121 247.167 121 462.5
c0 235.333 -53 400 -159 494c-67.333 59.333 -190.666 89 -369.999 89l-91 -1v-481h247v-148h-247v-555z" />
    <glyph glyph-name="dmacron" unicode="&#x111;" 
d="M880 0l12.001 204.001h-12c-96 -152.667 -214.667 -229 -356 -229c-122 0 -218.667 47.667 -290 143s-107 224.666 -107 387.999c0 170 42.667 309.167 128 417.5s194.666 162.5 327.999 162.5c116.667 0 215.667 -49.333 297 -148h12l-12 148v172h-321v124h321v197h197
v-197h148v-124h-148v-1258h-197zM880.001 790.001c-92 98.667 -182.001 148 -270.001 148c-85.333 0 -152.166 -36.667 -200.499 -110s-72.5 -174 -72.5 -302c0 -254.667 75.667 -382 227 -382c112.667 0 218 69.333 316 208v438z" />
    <glyph glyph-name="Emacron" unicode="&#x112;" 
d="M216 0v1480h867v-148h-670v-475h568v-148h-568v-561h716v-148h-913zM413 1604v148h568v-148h-568z" />
    <glyph glyph-name="emacron" unicode="&#x113;" 
d="M1098 43c-136.667 -45.333 -262.331 -68.002 -376.998 -68.002c-186 0 -329.167 48.167 -429.5 144.5s-150.5 233.5 -150.5 411.5c0 168.667 48.167 307.334 144.5 416.001s218.833 163 367.5 163c150 0 260.5 -45 331.5 -135s106.5 -230 106.5 -420v-63h-740
c7.33301 -123.333 44.166 -215.666 110.499 -276.999s162.166 -92 287.499 -92c106 0 222.333 25.333 349 76v-156zM357.003 639.998h524v28c0 98 -20.5 171.5 -61.5 220.5s-102.167 73.5 -183.5 73.5c-78.667 0 -142.5 -28.333 -191.5 -85s-78.167 -135.667 -87.5 -237z
M371.003 1283v148h568v-148h-568z" />
    <glyph glyph-name="Ebreve" unicode="&#x114;" 
d="M216 0v1480h867v-148h-670v-475h568v-148h-568v-561h716v-148h-913zM327 1900h122.999c9.33301 -51.333 31.5 -89.833 66.5 -115.5s82.833 -38.5 143.5 -38.5c60 0 107.5 12.833 142.5 38.5s57.5 64.167 67.5 115.5h123c-13.333 -98.667 -47.833 -172.667 -103.5 -222
s-132.167 -74 -229.5 -74c-98 0 -174.667 24.667 -230 74s-89.666 123.333 -102.999 222z" />
    <glyph glyph-name="ebreve" unicode="&#x115;" 
d="M1098 43c-136.667 -45.333 -262.331 -68.002 -376.998 -68.002c-186 0 -329.167 48.167 -429.5 144.5s-150.5 233.5 -150.5 411.5c0 168.667 48.167 307.334 144.5 416.001s218.833 163 367.5 163c150 0 260.5 -45 331.5 -135s106.5 -230 106.5 -420v-63h-740
c7.33301 -123.333 44.166 -215.666 110.499 -276.999s162.166 -92 287.499 -92c106 0 222.333 25.333 349 76v-156zM357.003 639.998h524v28c0 98 -20.5 171.5 -61.5 220.5s-102.167 73.5 -183.5 73.5c-78.667 0 -142.5 -28.333 -191.5 -85s-78.167 -135.667 -87.5 -237z
M321.003 1579h122.999c9.33301 -51.333 31.5 -89.833 66.5 -115.5s82.833 -38.5 143.5 -38.5c60 0 107.5 12.833 142.5 38.5s57.5 64.167 67.5 115.5h123c-13.333 -98.667 -47.833 -172.667 -103.5 -222s-132.167 -74 -229.5 -74c-98 0 -174.667 24.667 -230 74
s-89.666 123.333 -102.999 222z" />
    <glyph glyph-name="Edot" unicode="&#x116;" 
d="M216 0v1480h867v-148h-670v-475h568v-148h-568v-561h716v-148h-913zM551 1604v197h198v-197h-198z" />
    <glyph glyph-name="edot" unicode="&#x117;" 
d="M1098 43c-136.667 -45.333 -262.331 -68.002 -376.998 -68.002c-186 0 -329.167 48.167 -429.5 144.5s-150.5 233.5 -150.5 411.5c0 168.667 48.167 307.334 144.5 416.001s218.833 163 367.5 163c150 0 260.5 -45 331.5 -135s106.5 -230 106.5 -420v-63h-740
c7.33301 -123.333 44.166 -215.666 110.499 -276.999s162.166 -92 287.499 -92c106 0 222.333 25.333 349 76v-156zM357.003 639.998h524v28c0 98 -20.5 171.5 -61.5 220.5s-102.167 73.5 -183.5 73.5c-78.667 0 -142.5 -28.333 -191.5 -85s-78.167 -135.667 -87.5 -237z
M556.003 1283v197h198v-197h-198z" />
    <glyph glyph-name="Eogonek" unicode="&#x118;" 
d="M216 0v1480h867v-148h-670v-475h568v-148h-568v-561h716v-148h-913zM933 0h107c-43.333 -25.333 -75.666 -53 -96.999 -83s-32 -62.333 -32 -97c0 -31.333 9.5 -55 28.5 -71s47.833 -24 86.5 -24c37.333 0 67.666 5 90.999 15v-81c-40 -19.333 -86 -29 -138 -29
c-68 0 -119 13.333 -153 40s-51 66.667 -51 120c0 42 13.167 80.5 39.5 115.5s65.833 66.5 118.5 94.5z" />
    <glyph glyph-name="eogonek" unicode="&#x119;" 
d="M1098 43c-136.667 -45.333 -262.331 -68.002 -376.998 -68.002c-186 0 -329.167 48.167 -429.5 144.5s-150.5 233.5 -150.5 411.5c0 168.667 48.167 307.334 144.5 416.001s218.833 163 367.5 163c150 0 260.5 -45 331.5 -135s106.5 -230 106.5 -420v-63h-740
c7.33301 -123.333 44.166 -215.666 110.499 -276.999s162.166 -92 287.499 -92c106 0 222.333 25.333 349 76v-156zM357.003 639.998h524v28c0 98 -20.5 171.5 -61.5 220.5s-102.167 73.5 -183.5 73.5c-78.667 0 -142.5 -28.333 -191.5 -85s-78.167 -135.667 -87.5 -237z
M783.003 -0.00195312h107c-43.333 -25.333 -75.666 -53 -96.999 -83s-32 -62.333 -32 -97c0 -31.333 9.5 -55 28.5 -71s47.833 -24 86.5 -24c37.333 0 67.666 5 90.999 15v-81c-40 -19.333 -86 -29 -138 -29c-68 0 -119 13.333 -153 40s-51 66.667 -51 120
c0 42 13.167 80.5 39.5 115.5s65.833 66.5 118.5 94.5z" />
    <glyph glyph-name="Ecaron" unicode="&#x11a;" 
d="M216 0v1480h867v-148h-670v-475h568v-148h-568v-561h716v-148h-913zM561 1604l-222 296h172l161 -185l160 185h173l-222 -296h-222z" />
    <glyph glyph-name="ecaron" unicode="&#x11b;" 
d="M1098 43c-136.667 -45.333 -262.331 -68.002 -376.998 -68.002c-186 0 -329.167 48.167 -429.5 144.5s-150.5 233.5 -150.5 411.5c0 168.667 48.167 307.334 144.5 416.001s218.833 163 367.5 163c150 0 260.5 -45 331.5 -135s106.5 -230 106.5 -420v-63h-740
c7.33301 -123.333 44.166 -215.666 110.499 -276.999s162.166 -92 287.499 -92c106 0 222.333 25.333 349 76v-156zM357.003 639.998h524v28c0 98 -20.5 171.5 -61.5 220.5s-102.167 73.5 -183.5 73.5c-78.667 0 -142.5 -28.333 -191.5 -85s-78.167 -135.667 -87.5 -237z
M543.003 1283l-222 296h172l161 -185l160 185h173l-222 -296h-222z" />
    <glyph glyph-name="Gcircumflex" unicode="&#x11c;" 
d="M1129 33c-140 -46.667 -261.001 -70 -363.001 -70c-213.333 0 -381.5 69.167 -504.5 207.5s-184.5 327.166 -184.5 566.499c0 238.667 61.333 428.334 184 569.001s288 211 496 211c106 0 225 -18.333 357 -55v-182c-122.667 59.333 -243.667 89 -363 89
c-141.333 0 -254 -58.167 -338 -174.5s-126 -272.833 -126 -469.5c0 -180 47.333 -325.333 142 -436s219.334 -166 374.001 -166c33.333 0 76.333 4.66699 129 14v500h197v-604zM845.999 1900l222 -296h-173l-160 185l-161 -185h-172l222 296h222z" />
    <glyph glyph-name="gcircumflex" unicode="&#x11d;" 
d="M218 -363l21 165.999c118 -50 228 -75 330 -75c106 0 182 22 228 66s75 122.333 87 235l21 196h-12c-41.333 -75.333 -92 -131.666 -152 -168.999s-129 -56 -207 -56c-124 0 -222.5 47.167 -295.5 141.5s-109.5 221.5 -109.5 381.5c0 174 42.333 315.5 127 424.5
s194.667 163.5 330 163.5c106 0 210.333 -49.667 313 -149h12v124h173v-869c0 -140.667 -9.33301 -246.5 -28 -317.5s-53.667 -133.833 -105 -188.5c-82 -87.333 -210.333 -131 -385 -131c-102.667 0 -218.667 19 -348 57zM887 384.999l-0.00195312 427.001
c-88.667 100 -180.334 150 -275.001 150c-91.333 0 -159.666 -35.5 -204.999 -106.5s-68 -177.5 -68 -319.5c0 -121.333 19.833 -212.333 59.5 -273s99.167 -91 178.5 -91c58.667 0 113.834 17.667 165.501 53s99.834 88.666 144.501 159.999zM727.998 1579l222 -296h-173
l-160 185l-161 -185h-172l222 296h222z" />
    <glyph glyph-name="Gbreve" unicode="&#x11e;" 
d="M1129 33c-140 -46.667 -261.001 -70 -363.001 -70c-213.333 0 -381.5 69.167 -504.5 207.5s-184.5 327.166 -184.5 566.499c0 238.667 61.333 428.334 184 569.001s288 211 496 211c106 0 225 -18.333 357 -55v-182c-122.667 59.333 -243.667 89 -363 89
c-141.333 0 -254 -58.167 -338 -174.5s-126 -272.833 -126 -469.5c0 -180 47.333 -325.333 142 -436s219.334 -166 374.001 -166c33.333 0 76.333 4.66699 129 14v500h197v-604zM417.999 1900h122.999c9.33301 -51.333 31.5 -89.833 66.5 -115.5s82.833 -38.5 143.5 -38.5
c60 0 107.5 12.833 142.5 38.5s57.5 64.167 67.5 115.5h123c-13.333 -98.667 -47.833 -172.667 -103.5 -222s-132.167 -74 -229.5 -74c-98 0 -174.667 24.667 -230 74s-89.666 123.333 -102.999 222z" />
    <glyph glyph-name="gbreve" unicode="&#x11f;" 
d="M212 -363l21 165.999c118 -50 228 -75 330 -75c106 0 182 22 228 66s75 122.333 87 235l21 196h-12c-41.333 -75.333 -92 -131.666 -152 -168.999s-129 -56 -207 -56c-124 0 -222.5 47.167 -295.5 141.5s-109.5 221.5 -109.5 381.5c0 174 42.333 315.5 127 424.5
s194.667 163.5 330 163.5c106 0 210.333 -49.667 313 -149h12v124h173v-869c0 -140.667 -9.33301 -246.5 -28 -317.5s-53.667 -133.833 -105 -188.5c-82 -87.333 -210.333 -131 -385 -131c-102.667 0 -218.667 19 -348 57zM881 384.999l-0.00195312 427.001
c-88.667 100 -180.334 150 -275.001 150c-91.333 0 -159.666 -35.5 -204.999 -106.5s-68 -177.5 -68 -319.5c0 -121.333 19.833 -212.333 59.5 -273s99.167 -91 178.5 -91c58.667 0 113.834 17.667 165.501 53s99.834 88.666 144.501 159.999zM291.998 1579h122.999
c9.33301 -51.333 31.5 -89.833 66.5 -115.5s82.833 -38.5 143.5 -38.5c60 0 107.5 12.833 142.5 38.5s57.5 64.167 67.5 115.5h123c-13.333 -98.667 -47.833 -172.667 -103.5 -222s-132.167 -74 -229.5 -74c-98 0 -174.667 24.667 -230 74s-89.666 123.333 -102.999 222z
" />
    <glyph glyph-name="Gdot" unicode="&#x120;" 
d="M1129 33c-140 -46.667 -261.001 -70 -363.001 -70c-213.333 0 -381.5 69.167 -504.5 207.5s-184.5 327.166 -184.5 566.499c0 238.667 61.333 428.334 184 569.001s288 211 496 211c106 0 225 -18.333 357 -55v-182c-122.667 59.333 -243.667 89 -363 89
c-141.333 0 -254 -58.167 -338 -174.5s-126 -272.833 -126 -469.5c0 -180 47.333 -325.333 142 -436s219.334 -166 374.001 -166c33.333 0 76.333 4.66699 129 14v500h197v-604zM660.999 1604v197h198v-197h-198z" />
    <glyph glyph-name="gdot" unicode="&#x121;" 
d="M212 -363l21 165.999c118 -50 228 -75 330 -75c106 0 182 22 228 66s75 122.333 87 235l21 196h-12c-41.333 -75.333 -92 -131.666 -152 -168.999s-129 -56 -207 -56c-124 0 -222.5 47.167 -295.5 141.5s-109.5 221.5 -109.5 381.5c0 174 42.333 315.5 127 424.5
s194.667 163.5 330 163.5c106 0 210.333 -49.667 313 -149h12v124h173v-869c0 -140.667 -9.33301 -246.5 -28 -317.5s-53.667 -133.833 -105 -188.5c-82 -87.333 -210.333 -131 -385 -131c-102.667 0 -218.667 19 -348 57zM881 384.999l-0.00195312 427.001
c-88.667 100 -180.334 150 -275.001 150c-91.333 0 -159.666 -35.5 -204.999 -106.5s-68 -177.5 -68 -319.5c0 -121.333 19.833 -212.333 59.5 -273s99.167 -91 178.5 -91c58.667 0 113.834 17.667 165.501 53s99.834 88.666 144.501 159.999zM511.998 1283v197h198v-197
h-198z" />
    <glyph glyph-name="Gcedilla" unicode="&#x122;" 
d="M1129 33c-140 -46.667 -261.001 -70 -363.001 -70c-213.333 0 -381.5 69.167 -504.5 207.5s-184.5 327.166 -184.5 566.499c0 238.667 61.333 428.334 184 569.001s288 211 496 211c106 0 225 -18.333 357 -55v-182c-122.667 59.333 -243.667 89 -363 89
c-141.333 0 -254 -58.167 -338 -174.5s-126 -272.833 -126 -469.5c0 -180 47.333 -325.333 142 -436s219.334 -166 374.001 -166c33.333 0 76.333 4.66699 129 14v500h197v-604zM607.999 -651v59c25.333 7.33301 44.333 26 57 56s19 71.667 19 125v16h-76v198h197v-172
c0 -87.333 -16.5 -154.5 -49.5 -201.5s-82.167 -73.833 -147.5 -80.5z" />
    <glyph glyph-name="gcedilla" unicode="&#x123;" 
d="M212 -363l21 165.999c118 -50 228 -75 330 -75c106 0 182 22 228 66s75 122.333 87 235l21 196h-12c-41.333 -75.333 -92 -131.666 -152 -168.999s-129 -56 -207 -56c-124 0 -222.5 47.167 -295.5 141.5s-109.5 221.5 -109.5 381.5c0 174 42.333 315.5 127 424.5
s194.667 163.5 330 163.5c106 0 210.333 -49.667 313 -149h12v124h173v-869c0 -140.667 -9.33301 -246.5 -28 -317.5s-53.667 -133.833 -105 -188.5c-82 -87.333 -210.333 -131 -385 -131c-102.667 0 -218.667 19 -348 57zM881 384.999l-0.00195312 427.001
c-88.667 100 -180.334 150 -275.001 150c-91.333 0 -159.666 -35.5 -204.999 -106.5s-68 -177.5 -68 -319.5c0 -121.333 19.833 -212.333 59.5 -273s99.167 -91 178.5 -91c58.667 0 113.834 17.667 165.501 53s99.834 88.666 144.501 159.999zM708.998 1737v-58.999
c-25.333 -7.33301 -44.333 -26 -57 -56s-19 -71.667 -19 -125v-17h76v-197h-197v171c0 87.333 16.333 154.666 49 201.999s82 74.333 148 81z" />
    <glyph glyph-name="Hcircumflex" unicode="&#x124;" 
d="M148 0v1480h197v-629h543v629h198v-1480h-198v703h-543v-703h-197zM728 1900l222 -296h-173l-160 185l-161 -185h-172l222 296h222z" />
    <glyph glyph-name="hcircumflex" unicode="&#x125;" 
d="M182 0l-0.000976562 1579h197v-493l-12 -204h12c45.333 76 98.833 133 160.5 171s131.5 57 209.5 57c102.667 0 179.834 -30.667 231.501 -92s77.5 -153 77.5 -275v-743h-197v689c0 85.333 -13.167 145.666 -39.5 180.999s-70.5 53 -132.5 53
c-49.333 0 -99.833 -17.833 -151.5 -53.5s-104.5 -88.834 -158.5 -159.501v-710h-197zM724.999 1974l222 -296h-173l-160 185l-161 -185h-172l222 296h222z" />
    <glyph glyph-name="Hbar" unicode="&#x126;" 
d="M345 851h543v259h-544zM148 0v1110h-99v124h99v246h197v-246h543v246h198v-246h98v-124h-98v-1110h-198v703h-543v-703h-197z" />
    <glyph glyph-name="hbar" unicode="&#x127;" 
d="M182 0l-0.000976562 1258h-123v124h123v197h197v-197h321v-124h-321v-172l-12 -228h12c45.333 76 98.833 133 160.5 171s131.5 57 209.5 57c102.667 0 179.834 -30.667 231.501 -92s77.5 -153.333 77.5 -276v-718h-197v665c0 84.667 -13.167 144.834 -39.5 180.501
s-70.5 53.5 -132.5 53.5c-49.333 0 -99.833 -17.833 -151.5 -53.5s-104.5 -88.834 -158.5 -159.501v-686h-197z" />
    <glyph glyph-name="Itilde" unicode="&#x128;" 
d="M173 0v148h345v1184h-345v148h888v-148h-345v-1184h345v-148h-888zM950 1838c-8 -78 -27.3359 -136.499 -58.0029 -175.499s-72.667 -58.5 -126 -58.5c-41.333 0 -78.666 6.66699 -111.999 20l-111 46c-26 10.667 -46.667 16 -62 16
c-17.333 0 -32.166 -6.83301 -44.499 -20.5s-22.166 -34.167 -29.499 -61.5h-123c8 78 27.333 136.5 58 175.5s73 58.5 127 58.5c40.667 0 77.667 -6.66699 111 -20l111 -45c26 -10.667 46.667 -16 62 -16c16.667 0 31.167 6.66699 43.5 20s22.5 33.666 30.5 60.999h123z
" />
    <glyph glyph-name="itilde" unicode="&#x129;" 
d="M568 0v938h-395v148h592v-1086h-197zM839 1517c-8 -78 -27.3359 -136.499 -58.0029 -175.499s-72.667 -58.5 -126 -58.5c-41.333 0 -78.666 6.66699 -111.999 20l-111 46c-26 10.667 -46.667 16 -62 16c-17.333 0 -32.166 -6.83301 -44.499 -20.5
s-22.166 -34.167 -29.499 -61.5h-123c8 78 27.333 136.5 58 175.5s73 58.5 127 58.5c40.667 0 77.667 -6.66699 111 -20l111 -45c26 -10.667 46.667 -16 62 -16c16.667 0 31.167 6.66699 43.5 20s22.5 33.666 30.5 60.999h123z" />
    <glyph glyph-name="Imacron" unicode="&#x12a;" 
d="M173 0v148h345v1184h-345v148h888v-148h-345v-1184h345v-148h-888zM333 1604v148h568v-148h-568z" />
    <glyph glyph-name="imacron" unicode="&#x12b;" 
d="M568 0v938h-395v148h592v-1086h-197zM198 1283v148h568v-148h-568z" />
    <glyph glyph-name="Ibreve" unicode="&#x12c;" 
d="M173 0v148h345v1184h-345v148h888v-148h-345v-1184h345v-148h-888zM284 1900h122.999c9.33301 -51.333 31.5 -89.833 66.5 -115.5s82.833 -38.5 143.5 -38.5c60 0 107.5 12.833 142.5 38.5s57.5 64.167 67.5 115.5h123c-13.333 -98.667 -47.833 -172.667 -103.5 -222
s-132.167 -74 -229.5 -74c-98 0 -174.667 24.667 -230 74s-89.666 123.333 -102.999 222z" />
    <glyph glyph-name="ibreve" unicode="&#x12d;" 
d="M568 0v938h-395v148h592v-1086h-197zM296 1579h122.999c9.33301 -51.333 31.5 -89.833 66.5 -115.5s82.833 -38.5 143.5 -38.5c60 0 107.5 12.833 142.5 38.5s57.5 64.167 67.5 115.5h123c-13.333 -98.667 -47.833 -172.667 -103.5 -222s-132.167 -74 -229.5 -74
c-98 0 -174.667 24.667 -230 74s-89.666 123.333 -102.999 222z" />
    <glyph glyph-name="Iogonek" unicode="&#x12e;" 
d="M173 0v148h345v1184h-345v148h888v-148h-345v-1184h345v-148h-888zM609 0h107c-43.333 -25.333 -75.666 -53 -96.999 -83s-32 -62.333 -32 -97c0 -31.333 9.5 -55 28.5 -71s47.833 -24 86.5 -24c37.333 0 67.666 5 90.999 15v-81c-40 -19.333 -86 -29 -138 -29
c-68 0 -119 13.333 -153 40s-51 66.667 -51 120c0 42 13.167 80.5 39.5 115.5s65.833 66.5 118.5 94.5z" />
    <glyph glyph-name="iogonek" unicode="&#x12f;" 
d="M568 0v938h-395v148h592v-1086h-197zM543 1332v247h247v-247h-247zM640 0h107c-43.333 -25.333 -75.666 -53 -96.999 -83s-32 -62.333 -32 -97c0 -31.333 9.5 -55 28.5 -71s47.833 -24 86.5 -24c37.333 0 67.666 5 90.999 15v-81c-40 -19.333 -86 -29 -138 -29
c-68 0 -119 13.333 -153 40s-51 66.667 -51 120c0 42 13.167 80.5 39.5 115.5s65.833 66.5 118.5 94.5z" />
    <glyph glyph-name="Idot" unicode="&#x130;" 
d="M173 0v148h345v1184h-345v148h888v-148h-345v-1184h345v-148h-888zM518 1604v197h198v-197h-198z" />
    <glyph glyph-name="dotlessi" unicode="&#x131;" 
d="M568 0v938h-395v148h592v-1086h-197z" />
    <glyph glyph-name="IJ" unicode="&#x132;" 
d="M49 0v148h136v1184h-136v148h469v-148h-136v-1184h136v-148h-469zM925 1332h-247v148h445v-947v-183c0 -122 -27.667 -213.333 -83 -274s-138 -91 -248 -91c-36.667 0 -82.667 5 -138 15v159c60 -17.333 106 -26 138 -26c44 0 77.167 16 99.5 48s33.5 80.333 33.5 145
v1006z" />
    <glyph glyph-name="ij" unicode="&#x133;" 
d="M259 0v938h-197v148h395v-1086h-198zM235 1332v247h246v-247h-246zM1037 1086v-1086c0 -139.333 -29.5 -244 -88.5 -314s-147.5 -105 -265.5 -105c-70.667 0 -146 16.667 -226 50v156c91.333 -38.667 161.333 -58 210 -58c68.667 0 114.5 18 137.5 54
s34.5 108.333 34.5 217v938h-197v148h395zM815 1332v247h246v-247h-246z" />
    <glyph glyph-name="Jcircumflex" unicode="&#x134;" 
d="M197 11v167l66 -22c91.333 -30 164.333 -45 219 -45c93.333 0 158.666 24.5 195.999 73.5s56 134.833 56 257.5v890h-444v148h641v-933c0 -130.667 -7.66699 -227.5 -23 -290.5s-44.666 -118.5 -87.999 -166.5c-76 -84.667 -184.333 -127 -325 -127
c-76.667 0 -176 16 -298 48zM734 1900l222 -296h-173l-160 185l-161 -185h-172l222 296h222z" />
    </font>
</defs>
</svg>
